%TF.GenerationSoftware,KiCad,Pcbnew,9.0.6*%
%TF.CreationDate,2025-12-21T22:24:18+01:00*%
%TF.ProjectId,drone_v2,64726f6e-655f-4763-922e-6b696361645f,rev?*%
%TF.SameCoordinates,Original*%
%TF.FileFunction,Legend,Bot*%
%TF.FilePolarity,Positive*%
%FSLAX46Y46*%
G04 Gerber Fmt 4.6, Leading zero omitted, Abs format (unit mm)*
G04 Created by KiCad (PCBNEW 9.0.6) date 2025-12-21 22:24:18*
%MOMM*%
%LPD*%
G01*
G04 APERTURE LIST*
%ADD10C,0.100000*%
%ADD11C,0.150000*%
%ADD12C,0.120000*%
G04 APERTURE END LIST*
D10*
X170249687Y-48522419D02*
X170583020Y-48046228D01*
X170821115Y-48522419D02*
X170821115Y-47522419D01*
X170821115Y-47522419D02*
X170440163Y-47522419D01*
X170440163Y-47522419D02*
X170344925Y-47570038D01*
X170344925Y-47570038D02*
X170297306Y-47617657D01*
X170297306Y-47617657D02*
X170249687Y-47712895D01*
X170249687Y-47712895D02*
X170249687Y-47855752D01*
X170249687Y-47855752D02*
X170297306Y-47950990D01*
X170297306Y-47950990D02*
X170344925Y-47998609D01*
X170344925Y-47998609D02*
X170440163Y-48046228D01*
X170440163Y-48046228D02*
X170821115Y-48046228D01*
X169963972Y-47522419D02*
X169392544Y-47522419D01*
X169678258Y-48522419D02*
X169678258Y-47522419D01*
X169059210Y-48522419D02*
X169059210Y-47522419D01*
X168487782Y-48522419D02*
X168916353Y-47950990D01*
X168487782Y-47522419D02*
X169059210Y-48093847D01*
X168297306Y-48617657D02*
X167535401Y-48617657D01*
X166963972Y-47998609D02*
X166821115Y-48046228D01*
X166821115Y-48046228D02*
X166773496Y-48093847D01*
X166773496Y-48093847D02*
X166725877Y-48189085D01*
X166725877Y-48189085D02*
X166725877Y-48331942D01*
X166725877Y-48331942D02*
X166773496Y-48427180D01*
X166773496Y-48427180D02*
X166821115Y-48474800D01*
X166821115Y-48474800D02*
X166916353Y-48522419D01*
X166916353Y-48522419D02*
X167297305Y-48522419D01*
X167297305Y-48522419D02*
X167297305Y-47522419D01*
X167297305Y-47522419D02*
X166963972Y-47522419D01*
X166963972Y-47522419D02*
X166868734Y-47570038D01*
X166868734Y-47570038D02*
X166821115Y-47617657D01*
X166821115Y-47617657D02*
X166773496Y-47712895D01*
X166773496Y-47712895D02*
X166773496Y-47808133D01*
X166773496Y-47808133D02*
X166821115Y-47903371D01*
X166821115Y-47903371D02*
X166868734Y-47950990D01*
X166868734Y-47950990D02*
X166963972Y-47998609D01*
X166963972Y-47998609D02*
X167297305Y-47998609D01*
X166154448Y-48522419D02*
X166249686Y-48474800D01*
X166249686Y-48474800D02*
X166297305Y-48427180D01*
X166297305Y-48427180D02*
X166344924Y-48331942D01*
X166344924Y-48331942D02*
X166344924Y-48046228D01*
X166344924Y-48046228D02*
X166297305Y-47950990D01*
X166297305Y-47950990D02*
X166249686Y-47903371D01*
X166249686Y-47903371D02*
X166154448Y-47855752D01*
X166154448Y-47855752D02*
X166011591Y-47855752D01*
X166011591Y-47855752D02*
X165916353Y-47903371D01*
X165916353Y-47903371D02*
X165868734Y-47950990D01*
X165868734Y-47950990D02*
X165821115Y-48046228D01*
X165821115Y-48046228D02*
X165821115Y-48331942D01*
X165821115Y-48331942D02*
X165868734Y-48427180D01*
X165868734Y-48427180D02*
X165916353Y-48474800D01*
X165916353Y-48474800D02*
X166011591Y-48522419D01*
X166011591Y-48522419D02*
X166154448Y-48522419D01*
X164963972Y-48522419D02*
X164963972Y-47998609D01*
X164963972Y-47998609D02*
X165011591Y-47903371D01*
X165011591Y-47903371D02*
X165106829Y-47855752D01*
X165106829Y-47855752D02*
X165297305Y-47855752D01*
X165297305Y-47855752D02*
X165392543Y-47903371D01*
X164963972Y-48474800D02*
X165059210Y-48522419D01*
X165059210Y-48522419D02*
X165297305Y-48522419D01*
X165297305Y-48522419D02*
X165392543Y-48474800D01*
X165392543Y-48474800D02*
X165440162Y-48379561D01*
X165440162Y-48379561D02*
X165440162Y-48284323D01*
X165440162Y-48284323D02*
X165392543Y-48189085D01*
X165392543Y-48189085D02*
X165297305Y-48141466D01*
X165297305Y-48141466D02*
X165059210Y-48141466D01*
X165059210Y-48141466D02*
X164963972Y-48093847D01*
X164487781Y-48522419D02*
X164487781Y-47855752D01*
X164487781Y-48046228D02*
X164440162Y-47950990D01*
X164440162Y-47950990D02*
X164392543Y-47903371D01*
X164392543Y-47903371D02*
X164297305Y-47855752D01*
X164297305Y-47855752D02*
X164202067Y-47855752D01*
X163440162Y-48522419D02*
X163440162Y-47522419D01*
X163440162Y-48474800D02*
X163535400Y-48522419D01*
X163535400Y-48522419D02*
X163725876Y-48522419D01*
X163725876Y-48522419D02*
X163821114Y-48474800D01*
X163821114Y-48474800D02*
X163868733Y-48427180D01*
X163868733Y-48427180D02*
X163916352Y-48331942D01*
X163916352Y-48331942D02*
X163916352Y-48046228D01*
X163916352Y-48046228D02*
X163868733Y-47950990D01*
X163868733Y-47950990D02*
X163821114Y-47903371D01*
X163821114Y-47903371D02*
X163725876Y-47855752D01*
X163725876Y-47855752D02*
X163535400Y-47855752D01*
X163535400Y-47855752D02*
X163440162Y-47903371D01*
X163202067Y-48617657D02*
X162440162Y-48617657D01*
X162344923Y-47522419D02*
X162011590Y-48522419D01*
X162011590Y-48522419D02*
X161678257Y-47522419D01*
X160821114Y-48522419D02*
X161392542Y-48522419D01*
X161106828Y-48522419D02*
X161106828Y-47522419D01*
X161106828Y-47522419D02*
X161202066Y-47665276D01*
X161202066Y-47665276D02*
X161297304Y-47760514D01*
X161297304Y-47760514D02*
X161392542Y-47808133D01*
D11*
X183238094Y-48704819D02*
X183238094Y-47704819D01*
X183238094Y-47704819D02*
X182999999Y-47704819D01*
X182999999Y-47704819D02*
X182857142Y-47752438D01*
X182857142Y-47752438D02*
X182761904Y-47847676D01*
X182761904Y-47847676D02*
X182714285Y-47942914D01*
X182714285Y-47942914D02*
X182666666Y-48133390D01*
X182666666Y-48133390D02*
X182666666Y-48276247D01*
X182666666Y-48276247D02*
X182714285Y-48466723D01*
X182714285Y-48466723D02*
X182761904Y-48561961D01*
X182761904Y-48561961D02*
X182857142Y-48657200D01*
X182857142Y-48657200D02*
X182999999Y-48704819D01*
X182999999Y-48704819D02*
X183238094Y-48704819D01*
X181714285Y-48704819D02*
X182285713Y-48704819D01*
X181999999Y-48704819D02*
X181999999Y-47704819D01*
X181999999Y-47704819D02*
X182095237Y-47847676D01*
X182095237Y-47847676D02*
X182190475Y-47942914D01*
X182190475Y-47942914D02*
X182285713Y-47990533D01*
X174041666Y-48704819D02*
X174374999Y-48228628D01*
X174613094Y-48704819D02*
X174613094Y-47704819D01*
X174613094Y-47704819D02*
X174232142Y-47704819D01*
X174232142Y-47704819D02*
X174136904Y-47752438D01*
X174136904Y-47752438D02*
X174089285Y-47800057D01*
X174089285Y-47800057D02*
X174041666Y-47895295D01*
X174041666Y-47895295D02*
X174041666Y-48038152D01*
X174041666Y-48038152D02*
X174089285Y-48133390D01*
X174089285Y-48133390D02*
X174136904Y-48181009D01*
X174136904Y-48181009D02*
X174232142Y-48228628D01*
X174232142Y-48228628D02*
X174613094Y-48228628D01*
X173136904Y-47704819D02*
X173613094Y-47704819D01*
X173613094Y-47704819D02*
X173660713Y-48181009D01*
X173660713Y-48181009D02*
X173613094Y-48133390D01*
X173613094Y-48133390D02*
X173517856Y-48085771D01*
X173517856Y-48085771D02*
X173279761Y-48085771D01*
X173279761Y-48085771D02*
X173184523Y-48133390D01*
X173184523Y-48133390D02*
X173136904Y-48181009D01*
X173136904Y-48181009D02*
X173089285Y-48276247D01*
X173089285Y-48276247D02*
X173089285Y-48514342D01*
X173089285Y-48514342D02*
X173136904Y-48609580D01*
X173136904Y-48609580D02*
X173184523Y-48657200D01*
X173184523Y-48657200D02*
X173279761Y-48704819D01*
X173279761Y-48704819D02*
X173517856Y-48704819D01*
X173517856Y-48704819D02*
X173613094Y-48657200D01*
X173613094Y-48657200D02*
X173660713Y-48609580D01*
X191211904Y-73054819D02*
X191211904Y-72054819D01*
X191211904Y-72531009D02*
X190640476Y-72531009D01*
X190640476Y-73054819D02*
X190640476Y-72054819D01*
X189735714Y-72388152D02*
X189735714Y-73054819D01*
X189973809Y-72007200D02*
X190211904Y-72721485D01*
X190211904Y-72721485D02*
X189592857Y-72721485D01*
X138886904Y-69554819D02*
X138886904Y-68554819D01*
X138886904Y-69031009D02*
X138315476Y-69031009D01*
X138315476Y-69554819D02*
X138315476Y-68554819D01*
X137934523Y-68554819D02*
X137315476Y-68554819D01*
X137315476Y-68554819D02*
X137648809Y-68935771D01*
X137648809Y-68935771D02*
X137505952Y-68935771D01*
X137505952Y-68935771D02*
X137410714Y-68983390D01*
X137410714Y-68983390D02*
X137363095Y-69031009D01*
X137363095Y-69031009D02*
X137315476Y-69126247D01*
X137315476Y-69126247D02*
X137315476Y-69364342D01*
X137315476Y-69364342D02*
X137363095Y-69459580D01*
X137363095Y-69459580D02*
X137410714Y-69507200D01*
X137410714Y-69507200D02*
X137505952Y-69554819D01*
X137505952Y-69554819D02*
X137791666Y-69554819D01*
X137791666Y-69554819D02*
X137886904Y-69507200D01*
X137886904Y-69507200D02*
X137934523Y-69459580D01*
X138661904Y-50979819D02*
X138661904Y-49979819D01*
X138661904Y-50456009D02*
X138090476Y-50456009D01*
X138090476Y-50979819D02*
X138090476Y-49979819D01*
X137661904Y-50075057D02*
X137614285Y-50027438D01*
X137614285Y-50027438D02*
X137519047Y-49979819D01*
X137519047Y-49979819D02*
X137280952Y-49979819D01*
X137280952Y-49979819D02*
X137185714Y-50027438D01*
X137185714Y-50027438D02*
X137138095Y-50075057D01*
X137138095Y-50075057D02*
X137090476Y-50170295D01*
X137090476Y-50170295D02*
X137090476Y-50265533D01*
X137090476Y-50265533D02*
X137138095Y-50408390D01*
X137138095Y-50408390D02*
X137709523Y-50979819D01*
X137709523Y-50979819D02*
X137090476Y-50979819D01*
X191336904Y-47779819D02*
X191336904Y-46779819D01*
X191336904Y-47256009D02*
X190765476Y-47256009D01*
X190765476Y-47779819D02*
X190765476Y-46779819D01*
X189765476Y-47779819D02*
X190336904Y-47779819D01*
X190051190Y-47779819D02*
X190051190Y-46779819D01*
X190051190Y-46779819D02*
X190146428Y-46922676D01*
X190146428Y-46922676D02*
X190241666Y-47017914D01*
X190241666Y-47017914D02*
X190336904Y-47065533D01*
X154033333Y-49354819D02*
X154033333Y-50069104D01*
X154033333Y-50069104D02*
X154080952Y-50211961D01*
X154080952Y-50211961D02*
X154176190Y-50307200D01*
X154176190Y-50307200D02*
X154319047Y-50354819D01*
X154319047Y-50354819D02*
X154414285Y-50354819D01*
X153033333Y-50354819D02*
X153604761Y-50354819D01*
X153319047Y-50354819D02*
X153319047Y-49354819D01*
X153319047Y-49354819D02*
X153414285Y-49497676D01*
X153414285Y-49497676D02*
X153509523Y-49592914D01*
X153509523Y-49592914D02*
X153604761Y-49640533D01*
X138133333Y-52144819D02*
X138133333Y-52859104D01*
X138133333Y-52859104D02*
X138180952Y-53001961D01*
X138180952Y-53001961D02*
X138276190Y-53097200D01*
X138276190Y-53097200D02*
X138419047Y-53144819D01*
X138419047Y-53144819D02*
X138514285Y-53144819D01*
X137228571Y-52478152D02*
X137228571Y-53144819D01*
X137466666Y-52097200D02*
X137704761Y-52811485D01*
X137704761Y-52811485D02*
X137085714Y-52811485D01*
X146283332Y-65057200D02*
X146140475Y-65104819D01*
X146140475Y-65104819D02*
X145902380Y-65104819D01*
X145902380Y-65104819D02*
X145807142Y-65057200D01*
X145807142Y-65057200D02*
X145759523Y-65009580D01*
X145759523Y-65009580D02*
X145711904Y-64914342D01*
X145711904Y-64914342D02*
X145711904Y-64819104D01*
X145711904Y-64819104D02*
X145759523Y-64723866D01*
X145759523Y-64723866D02*
X145807142Y-64676247D01*
X145807142Y-64676247D02*
X145902380Y-64628628D01*
X145902380Y-64628628D02*
X146092856Y-64581009D01*
X146092856Y-64581009D02*
X146188094Y-64533390D01*
X146188094Y-64533390D02*
X146235713Y-64485771D01*
X146235713Y-64485771D02*
X146283332Y-64390533D01*
X146283332Y-64390533D02*
X146283332Y-64295295D01*
X146283332Y-64295295D02*
X146235713Y-64200057D01*
X146235713Y-64200057D02*
X146188094Y-64152438D01*
X146188094Y-64152438D02*
X146092856Y-64104819D01*
X146092856Y-64104819D02*
X145854761Y-64104819D01*
X145854761Y-64104819D02*
X145711904Y-64152438D01*
X145378570Y-64104819D02*
X145140475Y-65104819D01*
X145140475Y-65104819D02*
X144949999Y-64390533D01*
X144949999Y-64390533D02*
X144759523Y-65104819D01*
X144759523Y-65104819D02*
X144521428Y-64104819D01*
X144188094Y-64200057D02*
X144140475Y-64152438D01*
X144140475Y-64152438D02*
X144045237Y-64104819D01*
X144045237Y-64104819D02*
X143807142Y-64104819D01*
X143807142Y-64104819D02*
X143711904Y-64152438D01*
X143711904Y-64152438D02*
X143664285Y-64200057D01*
X143664285Y-64200057D02*
X143616666Y-64295295D01*
X143616666Y-64295295D02*
X143616666Y-64390533D01*
X143616666Y-64390533D02*
X143664285Y-64533390D01*
X143664285Y-64533390D02*
X144235713Y-65104819D01*
X144235713Y-65104819D02*
X143616666Y-65104819D01*
X187416666Y-48259580D02*
X187464285Y-48307200D01*
X187464285Y-48307200D02*
X187607142Y-48354819D01*
X187607142Y-48354819D02*
X187702380Y-48354819D01*
X187702380Y-48354819D02*
X187845237Y-48307200D01*
X187845237Y-48307200D02*
X187940475Y-48211961D01*
X187940475Y-48211961D02*
X187988094Y-48116723D01*
X187988094Y-48116723D02*
X188035713Y-47926247D01*
X188035713Y-47926247D02*
X188035713Y-47783390D01*
X188035713Y-47783390D02*
X187988094Y-47592914D01*
X187988094Y-47592914D02*
X187940475Y-47497676D01*
X187940475Y-47497676D02*
X187845237Y-47402438D01*
X187845237Y-47402438D02*
X187702380Y-47354819D01*
X187702380Y-47354819D02*
X187607142Y-47354819D01*
X187607142Y-47354819D02*
X187464285Y-47402438D01*
X187464285Y-47402438D02*
X187416666Y-47450057D01*
X186559523Y-47688152D02*
X186559523Y-48354819D01*
X186797618Y-47307200D02*
X187035713Y-48021485D01*
X187035713Y-48021485D02*
X186416666Y-48021485D01*
X187133332Y-63682200D02*
X186990475Y-63729819D01*
X186990475Y-63729819D02*
X186752380Y-63729819D01*
X186752380Y-63729819D02*
X186657142Y-63682200D01*
X186657142Y-63682200D02*
X186609523Y-63634580D01*
X186609523Y-63634580D02*
X186561904Y-63539342D01*
X186561904Y-63539342D02*
X186561904Y-63444104D01*
X186561904Y-63444104D02*
X186609523Y-63348866D01*
X186609523Y-63348866D02*
X186657142Y-63301247D01*
X186657142Y-63301247D02*
X186752380Y-63253628D01*
X186752380Y-63253628D02*
X186942856Y-63206009D01*
X186942856Y-63206009D02*
X187038094Y-63158390D01*
X187038094Y-63158390D02*
X187085713Y-63110771D01*
X187085713Y-63110771D02*
X187133332Y-63015533D01*
X187133332Y-63015533D02*
X187133332Y-62920295D01*
X187133332Y-62920295D02*
X187085713Y-62825057D01*
X187085713Y-62825057D02*
X187038094Y-62777438D01*
X187038094Y-62777438D02*
X186942856Y-62729819D01*
X186942856Y-62729819D02*
X186704761Y-62729819D01*
X186704761Y-62729819D02*
X186561904Y-62777438D01*
X186228570Y-62729819D02*
X185990475Y-63729819D01*
X185990475Y-63729819D02*
X185799999Y-63015533D01*
X185799999Y-63015533D02*
X185609523Y-63729819D01*
X185609523Y-63729819D02*
X185371428Y-62729819D01*
X184466666Y-63729819D02*
X185038094Y-63729819D01*
X184752380Y-63729819D02*
X184752380Y-62729819D01*
X184752380Y-62729819D02*
X184847618Y-62872676D01*
X184847618Y-62872676D02*
X184942856Y-62967914D01*
X184942856Y-62967914D02*
X185038094Y-63015533D01*
X179541666Y-61209580D02*
X179589285Y-61257200D01*
X179589285Y-61257200D02*
X179732142Y-61304819D01*
X179732142Y-61304819D02*
X179827380Y-61304819D01*
X179827380Y-61304819D02*
X179970237Y-61257200D01*
X179970237Y-61257200D02*
X180065475Y-61161961D01*
X180065475Y-61161961D02*
X180113094Y-61066723D01*
X180113094Y-61066723D02*
X180160713Y-60876247D01*
X180160713Y-60876247D02*
X180160713Y-60733390D01*
X180160713Y-60733390D02*
X180113094Y-60542914D01*
X180113094Y-60542914D02*
X180065475Y-60447676D01*
X180065475Y-60447676D02*
X179970237Y-60352438D01*
X179970237Y-60352438D02*
X179827380Y-60304819D01*
X179827380Y-60304819D02*
X179732142Y-60304819D01*
X179732142Y-60304819D02*
X179589285Y-60352438D01*
X179589285Y-60352438D02*
X179541666Y-60400057D01*
X179208332Y-60304819D02*
X178541666Y-60304819D01*
X178541666Y-60304819D02*
X178970237Y-61304819D01*
X179361904Y-54304819D02*
X179361904Y-55114342D01*
X179361904Y-55114342D02*
X179314285Y-55209580D01*
X179314285Y-55209580D02*
X179266666Y-55257200D01*
X179266666Y-55257200D02*
X179171428Y-55304819D01*
X179171428Y-55304819D02*
X178980952Y-55304819D01*
X178980952Y-55304819D02*
X178885714Y-55257200D01*
X178885714Y-55257200D02*
X178838095Y-55209580D01*
X178838095Y-55209580D02*
X178790476Y-55114342D01*
X178790476Y-55114342D02*
X178790476Y-54304819D01*
X178409523Y-54304819D02*
X177790476Y-54304819D01*
X177790476Y-54304819D02*
X178123809Y-54685771D01*
X178123809Y-54685771D02*
X177980952Y-54685771D01*
X177980952Y-54685771D02*
X177885714Y-54733390D01*
X177885714Y-54733390D02*
X177838095Y-54781009D01*
X177838095Y-54781009D02*
X177790476Y-54876247D01*
X177790476Y-54876247D02*
X177790476Y-55114342D01*
X177790476Y-55114342D02*
X177838095Y-55209580D01*
X177838095Y-55209580D02*
X177885714Y-55257200D01*
X177885714Y-55257200D02*
X177980952Y-55304819D01*
X177980952Y-55304819D02*
X178266666Y-55304819D01*
X178266666Y-55304819D02*
X178361904Y-55257200D01*
X178361904Y-55257200D02*
X178409523Y-55209580D01*
X193503333Y-52234819D02*
X193503333Y-52949104D01*
X193503333Y-52949104D02*
X193550952Y-53091961D01*
X193550952Y-53091961D02*
X193646190Y-53187200D01*
X193646190Y-53187200D02*
X193789047Y-53234819D01*
X193789047Y-53234819D02*
X193884285Y-53234819D01*
X192598571Y-52234819D02*
X192789047Y-52234819D01*
X192789047Y-52234819D02*
X192884285Y-52282438D01*
X192884285Y-52282438D02*
X192931904Y-52330057D01*
X192931904Y-52330057D02*
X193027142Y-52472914D01*
X193027142Y-52472914D02*
X193074761Y-52663390D01*
X193074761Y-52663390D02*
X193074761Y-53044342D01*
X193074761Y-53044342D02*
X193027142Y-53139580D01*
X193027142Y-53139580D02*
X192979523Y-53187200D01*
X192979523Y-53187200D02*
X192884285Y-53234819D01*
X192884285Y-53234819D02*
X192693809Y-53234819D01*
X192693809Y-53234819D02*
X192598571Y-53187200D01*
X192598571Y-53187200D02*
X192550952Y-53139580D01*
X192550952Y-53139580D02*
X192503333Y-53044342D01*
X192503333Y-53044342D02*
X192503333Y-52806247D01*
X192503333Y-52806247D02*
X192550952Y-52711009D01*
X192550952Y-52711009D02*
X192598571Y-52663390D01*
X192598571Y-52663390D02*
X192693809Y-52615771D01*
X192693809Y-52615771D02*
X192884285Y-52615771D01*
X192884285Y-52615771D02*
X192979523Y-52663390D01*
X192979523Y-52663390D02*
X193027142Y-52711009D01*
X193027142Y-52711009D02*
X193074761Y-52806247D01*
X159363220Y-53704819D02*
X159363220Y-54514342D01*
X159363220Y-54514342D02*
X159315601Y-54609580D01*
X159315601Y-54609580D02*
X159267982Y-54657200D01*
X159267982Y-54657200D02*
X159172744Y-54704819D01*
X159172744Y-54704819D02*
X158982268Y-54704819D01*
X158982268Y-54704819D02*
X158887030Y-54657200D01*
X158887030Y-54657200D02*
X158839411Y-54609580D01*
X158839411Y-54609580D02*
X158791792Y-54514342D01*
X158791792Y-54514342D02*
X158791792Y-53704819D01*
X157791792Y-54704819D02*
X158363220Y-54704819D01*
X158077506Y-54704819D02*
X158077506Y-53704819D01*
X158077506Y-53704819D02*
X158172744Y-53847676D01*
X158172744Y-53847676D02*
X158267982Y-53942914D01*
X158267982Y-53942914D02*
X158363220Y-53990533D01*
X154066666Y-74359580D02*
X154114285Y-74407200D01*
X154114285Y-74407200D02*
X154257142Y-74454819D01*
X154257142Y-74454819D02*
X154352380Y-74454819D01*
X154352380Y-74454819D02*
X154495237Y-74407200D01*
X154495237Y-74407200D02*
X154590475Y-74311961D01*
X154590475Y-74311961D02*
X154638094Y-74216723D01*
X154638094Y-74216723D02*
X154685713Y-74026247D01*
X154685713Y-74026247D02*
X154685713Y-73883390D01*
X154685713Y-73883390D02*
X154638094Y-73692914D01*
X154638094Y-73692914D02*
X154590475Y-73597676D01*
X154590475Y-73597676D02*
X154495237Y-73502438D01*
X154495237Y-73502438D02*
X154352380Y-73454819D01*
X154352380Y-73454819D02*
X154257142Y-73454819D01*
X154257142Y-73454819D02*
X154114285Y-73502438D01*
X154114285Y-73502438D02*
X154066666Y-73550057D01*
X153209523Y-73454819D02*
X153399999Y-73454819D01*
X153399999Y-73454819D02*
X153495237Y-73502438D01*
X153495237Y-73502438D02*
X153542856Y-73550057D01*
X153542856Y-73550057D02*
X153638094Y-73692914D01*
X153638094Y-73692914D02*
X153685713Y-73883390D01*
X153685713Y-73883390D02*
X153685713Y-74264342D01*
X153685713Y-74264342D02*
X153638094Y-74359580D01*
X153638094Y-74359580D02*
X153590475Y-74407200D01*
X153590475Y-74407200D02*
X153495237Y-74454819D01*
X153495237Y-74454819D02*
X153304761Y-74454819D01*
X153304761Y-74454819D02*
X153209523Y-74407200D01*
X153209523Y-74407200D02*
X153161904Y-74359580D01*
X153161904Y-74359580D02*
X153114285Y-74264342D01*
X153114285Y-74264342D02*
X153114285Y-74026247D01*
X153114285Y-74026247D02*
X153161904Y-73931009D01*
X153161904Y-73931009D02*
X153209523Y-73883390D01*
X153209523Y-73883390D02*
X153304761Y-73835771D01*
X153304761Y-73835771D02*
X153495237Y-73835771D01*
X153495237Y-73835771D02*
X153590475Y-73883390D01*
X153590475Y-73883390D02*
X153638094Y-73931009D01*
X153638094Y-73931009D02*
X153685713Y-74026247D01*
X187866666Y-61109580D02*
X187914285Y-61157200D01*
X187914285Y-61157200D02*
X188057142Y-61204819D01*
X188057142Y-61204819D02*
X188152380Y-61204819D01*
X188152380Y-61204819D02*
X188295237Y-61157200D01*
X188295237Y-61157200D02*
X188390475Y-61061961D01*
X188390475Y-61061961D02*
X188438094Y-60966723D01*
X188438094Y-60966723D02*
X188485713Y-60776247D01*
X188485713Y-60776247D02*
X188485713Y-60633390D01*
X188485713Y-60633390D02*
X188438094Y-60442914D01*
X188438094Y-60442914D02*
X188390475Y-60347676D01*
X188390475Y-60347676D02*
X188295237Y-60252438D01*
X188295237Y-60252438D02*
X188152380Y-60204819D01*
X188152380Y-60204819D02*
X188057142Y-60204819D01*
X188057142Y-60204819D02*
X187914285Y-60252438D01*
X187914285Y-60252438D02*
X187866666Y-60300057D01*
X186961904Y-60204819D02*
X187438094Y-60204819D01*
X187438094Y-60204819D02*
X187485713Y-60681009D01*
X187485713Y-60681009D02*
X187438094Y-60633390D01*
X187438094Y-60633390D02*
X187342856Y-60585771D01*
X187342856Y-60585771D02*
X187104761Y-60585771D01*
X187104761Y-60585771D02*
X187009523Y-60633390D01*
X187009523Y-60633390D02*
X186961904Y-60681009D01*
X186961904Y-60681009D02*
X186914285Y-60776247D01*
X186914285Y-60776247D02*
X186914285Y-61014342D01*
X186914285Y-61014342D02*
X186961904Y-61109580D01*
X186961904Y-61109580D02*
X187009523Y-61157200D01*
X187009523Y-61157200D02*
X187104761Y-61204819D01*
X187104761Y-61204819D02*
X187342856Y-61204819D01*
X187342856Y-61204819D02*
X187438094Y-61157200D01*
X187438094Y-61157200D02*
X187485713Y-61109580D01*
X151016666Y-69804819D02*
X151349999Y-69328628D01*
X151588094Y-69804819D02*
X151588094Y-68804819D01*
X151588094Y-68804819D02*
X151207142Y-68804819D01*
X151207142Y-68804819D02*
X151111904Y-68852438D01*
X151111904Y-68852438D02*
X151064285Y-68900057D01*
X151064285Y-68900057D02*
X151016666Y-68995295D01*
X151016666Y-68995295D02*
X151016666Y-69138152D01*
X151016666Y-69138152D02*
X151064285Y-69233390D01*
X151064285Y-69233390D02*
X151111904Y-69281009D01*
X151111904Y-69281009D02*
X151207142Y-69328628D01*
X151207142Y-69328628D02*
X151588094Y-69328628D01*
X150064285Y-69804819D02*
X150635713Y-69804819D01*
X150349999Y-69804819D02*
X150349999Y-68804819D01*
X150349999Y-68804819D02*
X150445237Y-68947676D01*
X150445237Y-68947676D02*
X150540475Y-69042914D01*
X150540475Y-69042914D02*
X150635713Y-69090533D01*
X141533333Y-48254819D02*
X141533333Y-48969104D01*
X141533333Y-48969104D02*
X141580952Y-49111961D01*
X141580952Y-49111961D02*
X141676190Y-49207200D01*
X141676190Y-49207200D02*
X141819047Y-49254819D01*
X141819047Y-49254819D02*
X141914285Y-49254819D01*
X141152380Y-48254819D02*
X140533333Y-48254819D01*
X140533333Y-48254819D02*
X140866666Y-48635771D01*
X140866666Y-48635771D02*
X140723809Y-48635771D01*
X140723809Y-48635771D02*
X140628571Y-48683390D01*
X140628571Y-48683390D02*
X140580952Y-48731009D01*
X140580952Y-48731009D02*
X140533333Y-48826247D01*
X140533333Y-48826247D02*
X140533333Y-49064342D01*
X140533333Y-49064342D02*
X140580952Y-49159580D01*
X140580952Y-49159580D02*
X140628571Y-49207200D01*
X140628571Y-49207200D02*
X140723809Y-49254819D01*
X140723809Y-49254819D02*
X141009523Y-49254819D01*
X141009523Y-49254819D02*
X141104761Y-49207200D01*
X141104761Y-49207200D02*
X141152380Y-49159580D01*
X177666666Y-59384819D02*
X177999999Y-58908628D01*
X178238094Y-59384819D02*
X178238094Y-58384819D01*
X178238094Y-58384819D02*
X177857142Y-58384819D01*
X177857142Y-58384819D02*
X177761904Y-58432438D01*
X177761904Y-58432438D02*
X177714285Y-58480057D01*
X177714285Y-58480057D02*
X177666666Y-58575295D01*
X177666666Y-58575295D02*
X177666666Y-58718152D01*
X177666666Y-58718152D02*
X177714285Y-58813390D01*
X177714285Y-58813390D02*
X177761904Y-58861009D01*
X177761904Y-58861009D02*
X177857142Y-58908628D01*
X177857142Y-58908628D02*
X178238094Y-58908628D01*
X177285713Y-58480057D02*
X177238094Y-58432438D01*
X177238094Y-58432438D02*
X177142856Y-58384819D01*
X177142856Y-58384819D02*
X176904761Y-58384819D01*
X176904761Y-58384819D02*
X176809523Y-58432438D01*
X176809523Y-58432438D02*
X176761904Y-58480057D01*
X176761904Y-58480057D02*
X176714285Y-58575295D01*
X176714285Y-58575295D02*
X176714285Y-58670533D01*
X176714285Y-58670533D02*
X176761904Y-58813390D01*
X176761904Y-58813390D02*
X177333332Y-59384819D01*
X177333332Y-59384819D02*
X176714285Y-59384819D01*
X178558333Y-61944819D02*
X178558333Y-62659104D01*
X178558333Y-62659104D02*
X178605952Y-62801961D01*
X178605952Y-62801961D02*
X178701190Y-62897200D01*
X178701190Y-62897200D02*
X178844047Y-62944819D01*
X178844047Y-62944819D02*
X178939285Y-62944819D01*
X177605952Y-61944819D02*
X178082142Y-61944819D01*
X178082142Y-61944819D02*
X178129761Y-62421009D01*
X178129761Y-62421009D02*
X178082142Y-62373390D01*
X178082142Y-62373390D02*
X177986904Y-62325771D01*
X177986904Y-62325771D02*
X177748809Y-62325771D01*
X177748809Y-62325771D02*
X177653571Y-62373390D01*
X177653571Y-62373390D02*
X177605952Y-62421009D01*
X177605952Y-62421009D02*
X177558333Y-62516247D01*
X177558333Y-62516247D02*
X177558333Y-62754342D01*
X177558333Y-62754342D02*
X177605952Y-62849580D01*
X177605952Y-62849580D02*
X177653571Y-62897200D01*
X177653571Y-62897200D02*
X177748809Y-62944819D01*
X177748809Y-62944819D02*
X177986904Y-62944819D01*
X177986904Y-62944819D02*
X178082142Y-62897200D01*
X178082142Y-62897200D02*
X178129761Y-62849580D01*
D12*
%TO.C,D1*%
X181510000Y-48885000D02*
X179225000Y-48885000D01*
X181510000Y-47415000D02*
X181510000Y-48885000D01*
X179225000Y-47415000D02*
X181510000Y-47415000D01*
%TO.C,R5*%
X176337742Y-48697500D02*
X176812258Y-48697500D01*
X176337742Y-47652500D02*
X176812258Y-47652500D01*
%TO.C,SW2*%
X141800000Y-65700000D02*
X141800000Y-65950000D01*
X141800000Y-67850000D02*
X141800000Y-70450000D01*
X141800000Y-72350000D02*
X141800000Y-72600000D01*
X141800000Y-72600000D02*
X148100000Y-72600000D01*
X148100000Y-65700000D02*
X141800000Y-65700000D01*
X148100000Y-65950000D02*
X148100000Y-65700000D01*
X148100000Y-70450000D02*
X148100000Y-67850000D01*
X148100000Y-72600000D02*
X148100000Y-72350000D01*
%TO.C,C4*%
X186865580Y-48840000D02*
X186584420Y-48840000D01*
X186865580Y-49860000D02*
X186584420Y-49860000D01*
%TO.C,SW1*%
X182300000Y-65800000D02*
X182300000Y-72100000D01*
X182300000Y-72100000D02*
X182550000Y-72100000D01*
X182550000Y-65800000D02*
X182300000Y-65800000D01*
X184450000Y-72100000D02*
X187050000Y-72100000D01*
X187050000Y-65800000D02*
X184450000Y-65800000D01*
X188950000Y-72100000D02*
X189200000Y-72100000D01*
X189200000Y-65800000D02*
X188950000Y-65800000D01*
X189200000Y-72100000D02*
X189200000Y-65800000D01*
%TO.C,C7*%
X181934420Y-60140000D02*
X182215580Y-60140000D01*
X181934420Y-61160000D02*
X182215580Y-61160000D01*
%TO.C,U3*%
X180190000Y-52750000D02*
X180190000Y-56510000D01*
X180190000Y-56510000D02*
X181450000Y-56510000D01*
X187010000Y-52750000D02*
X187010000Y-56510000D01*
X187010000Y-56510000D02*
X185750000Y-56510000D01*
X180290000Y-51470000D02*
X179960000Y-51710000D01*
X179960000Y-51230000D01*
X180290000Y-51470000D01*
G36*
X180290000Y-51470000D02*
G01*
X179960000Y-51710000D01*
X179960000Y-51230000D01*
X180290000Y-51470000D01*
G37*
%TO.C,J6*%
X190520000Y-53780000D02*
X190520000Y-66700000D01*
X193170000Y-53780000D02*
X190520000Y-53780000D01*
X193170000Y-56430000D02*
X193170000Y-53780000D01*
X195820000Y-53780000D02*
X194440000Y-53780000D01*
X195820000Y-55160000D02*
X195820000Y-53780000D01*
X195820000Y-56430000D02*
X193170000Y-56430000D01*
X195820000Y-56430000D02*
X195820000Y-66700000D01*
X195820000Y-66700000D02*
X190520000Y-66700000D01*
%TO.C,U1*%
X156150000Y-55660000D02*
X156150000Y-56610000D01*
X157550000Y-55660000D02*
X156150000Y-55660000D01*
X173150000Y-55660000D02*
X174550000Y-55660000D01*
X174550000Y-55660000D02*
X174550000Y-56610000D01*
X156150000Y-75110000D02*
X155650000Y-74610000D01*
X156150000Y-74610000D01*
X156150000Y-75110000D01*
G36*
X156150000Y-75110000D02*
G01*
X155650000Y-74610000D01*
X156150000Y-74610000D01*
X156150000Y-75110000D01*
G37*
%TO.C,C6*%
X153784420Y-71990000D02*
X154065580Y-71990000D01*
X153784420Y-73010000D02*
X154065580Y-73010000D01*
%TO.C,C5*%
X185265580Y-60140000D02*
X184984420Y-60140000D01*
X185265580Y-61160000D02*
X184984420Y-61160000D01*
%TO.C,R1*%
X153062742Y-70177500D02*
X153537258Y-70177500D01*
X153062742Y-71222500D02*
X153537258Y-71222500D01*
%TO.C,J3*%
X142440000Y-47665000D02*
X142440000Y-48825000D01*
X143250000Y-47665000D02*
X142440000Y-47665000D01*
X144060000Y-47665000D02*
X144060000Y-48158292D01*
X144060000Y-47665000D02*
X147805000Y-47665000D01*
X144060000Y-49491708D02*
X144060000Y-49985000D01*
X144060000Y-49985000D02*
X147805000Y-49985000D01*
X147805000Y-47665000D02*
X147805000Y-48507077D01*
X147805000Y-49142923D02*
X147805000Y-49985000D01*
%TO.C,R2*%
X177262742Y-56977500D02*
X177737258Y-56977500D01*
X177262742Y-58022500D02*
X177737258Y-58022500D01*
%TO.C,J5*%
X178145000Y-66570000D02*
X178145000Y-74300000D01*
X180905000Y-63920000D02*
X179525000Y-63920000D01*
X180905000Y-65300000D02*
X180905000Y-63920000D01*
X180905000Y-66570000D02*
X178145000Y-66570000D01*
X180905000Y-66570000D02*
X180905000Y-74300000D01*
X180905000Y-74300000D02*
X178145000Y-74300000D01*
%TD*%
M02*
