%TF.GenerationSoftware,KiCad,Pcbnew,9.0.6*%
%TF.CreationDate,2025-12-21T22:24:18+01:00*%
%TF.ProjectId,drone_v2,64726f6e-655f-4763-922e-6b696361645f,rev?*%
%TF.SameCoordinates,Original*%
%TF.FileFunction,Copper,L2,Bot*%
%TF.FilePolarity,Positive*%
%FSLAX46Y46*%
G04 Gerber Fmt 4.6, Leading zero omitted, Abs format (unit mm)*
G04 Created by KiCad (PCBNEW 9.0.6) date 2025-12-21 22:24:18*
%MOMM*%
%LPD*%
G01*
G04 APERTURE LIST*
G04 Aperture macros list*
%AMRoundRect*
0 Rectangle with rounded corners*
0 $1 Rounding radius*
0 $2 $3 $4 $5 $6 $7 $8 $9 X,Y pos of 4 corners*
0 Add a 4 corners polygon primitive as box body*
4,1,4,$2,$3,$4,$5,$6,$7,$8,$9,$2,$3,0*
0 Add four circle primitives for the rounded corners*
1,1,$1+$1,$2,$3*
1,1,$1+$1,$4,$5*
1,1,$1+$1,$6,$7*
1,1,$1+$1,$8,$9*
0 Add four rect primitives between the rounded corners*
20,1,$1+$1,$2,$3,$4,$5,0*
20,1,$1+$1,$4,$5,$6,$7,0*
20,1,$1+$1,$6,$7,$8,$9,0*
20,1,$1+$1,$8,$9,$2,$3,0*%
G04 Aperture macros list end*
%TA.AperFunction,SMDPad,CuDef*%
%ADD10RoundRect,0.218750X0.218750X0.256250X-0.218750X0.256250X-0.218750X-0.256250X0.218750X-0.256250X0*%
%TD*%
%TA.AperFunction,SMDPad,CuDef*%
%ADD11RoundRect,0.200000X-0.200000X-0.275000X0.200000X-0.275000X0.200000X0.275000X-0.200000X0.275000X0*%
%TD*%
%TA.AperFunction,ComponentPad*%
%ADD12R,1.700000X1.700000*%
%TD*%
%TA.AperFunction,ComponentPad*%
%ADD13C,1.700000*%
%TD*%
%TA.AperFunction,SMDPad,CuDef*%
%ADD14R,1.550000X1.300000*%
%TD*%
%TA.AperFunction,SMDPad,CuDef*%
%ADD15RoundRect,0.225000X0.225000X0.250000X-0.225000X0.250000X-0.225000X-0.250000X0.225000X-0.250000X0*%
%TD*%
%TA.AperFunction,SMDPad,CuDef*%
%ADD16R,1.300000X1.550000*%
%TD*%
%TA.AperFunction,SMDPad,CuDef*%
%ADD17RoundRect,0.225000X-0.225000X-0.250000X0.225000X-0.250000X0.225000X0.250000X-0.225000X0.250000X0*%
%TD*%
%TA.AperFunction,SMDPad,CuDef*%
%ADD18RoundRect,0.375000X-0.375000X0.625000X-0.375000X-0.625000X0.375000X-0.625000X0.375000X0.625000X0*%
%TD*%
%TA.AperFunction,SMDPad,CuDef*%
%ADD19RoundRect,0.500000X-1.400000X0.500000X-1.400000X-0.500000X1.400000X-0.500000X1.400000X0.500000X0*%
%TD*%
%TA.AperFunction,SMDPad,CuDef*%
%ADD20R,1.500000X0.900000*%
%TD*%
%TA.AperFunction,SMDPad,CuDef*%
%ADD21R,0.900000X1.500000*%
%TD*%
%TA.AperFunction,HeatsinkPad*%
%ADD22R,0.900000X0.900000*%
%TD*%
%TA.AperFunction,HeatsinkPad*%
%ADD23C,0.600000*%
%TD*%
%TA.AperFunction,ComponentPad*%
%ADD24R,1.000000X1.000000*%
%TD*%
%TA.AperFunction,ComponentPad*%
%ADD25C,1.000000*%
%TD*%
%TA.AperFunction,ViaPad*%
%ADD26C,0.600000*%
%TD*%
%TA.AperFunction,Conductor*%
%ADD27C,0.200000*%
%TD*%
%TA.AperFunction,Conductor*%
%ADD28C,0.500000*%
%TD*%
G04 APERTURE END LIST*
D10*
%TO.P,D1,1,K*%
%TO.N,/G*%
X180812500Y-48150000D03*
%TO.P,D1,2,A*%
%TO.N,Net-(D1-A)*%
X179237500Y-48150000D03*
%TD*%
D11*
%TO.P,R5,1*%
%TO.N,Net-(U1-IO2)*%
X175750000Y-48175000D03*
%TO.P,R5,2*%
%TO.N,Net-(D1-A)*%
X177400000Y-48175000D03*
%TD*%
D12*
%TO.P,J1,1,Pin_1*%
%TO.N,unconnected-(J1-Pin_1-Pad1)*%
X153700000Y-52380000D03*
D13*
%TO.P,J1,2,Pin_2*%
%TO.N,unconnected-(J1-Pin_2-Pad2)*%
X153700000Y-54920000D03*
%TO.P,J1,3,Pin_3*%
%TO.N,unconnected-(J1-Pin_3-Pad3)*%
X153700000Y-57460000D03*
%TO.P,J1,4,Pin_4*%
%TO.N,/R*%
X153700000Y-60000000D03*
%TO.P,J1,5,Pin_5*%
%TO.N,/T*%
X153700000Y-62540000D03*
%TO.P,J1,6,Pin_6*%
%TO.N,/G*%
X153700000Y-65080000D03*
%TO.P,J1,7,Pin_7*%
%TO.N,/3v3*%
X153700000Y-67620000D03*
%TD*%
D12*
%TO.P,J4,1,Pin_1*%
%TO.N,unconnected-(J4-Pin_1-Pad1)*%
X137800000Y-55070000D03*
D13*
%TO.P,J4,2,Pin_2*%
%TO.N,/SDA*%
X137800000Y-57610000D03*
%TO.P,J4,3,Pin_3*%
%TO.N,/SCL*%
X137800000Y-60150000D03*
%TO.P,J4,4,Pin_4*%
%TO.N,/G*%
X137800000Y-62690000D03*
%TO.P,J4,5,Pin_5*%
%TO.N,/3v3*%
X137800000Y-65230000D03*
%TD*%
D14*
%TO.P,SW2,1,1*%
%TO.N,/G*%
X148925000Y-66900000D03*
X140975000Y-66900000D03*
%TO.P,SW2,2,2*%
%TO.N,Net-(U1-EN)*%
X148925000Y-71400000D03*
X140975000Y-71400000D03*
%TD*%
D15*
%TO.P,C4,1*%
%TO.N,/G*%
X187500000Y-49350000D03*
%TO.P,C4,2*%
%TO.N,/5V*%
X185950000Y-49350000D03*
%TD*%
D16*
%TO.P,SW1,1,1*%
%TO.N,Net-(U1-IO0)*%
X183500000Y-64975000D03*
X183500000Y-72925000D03*
%TO.P,SW1,2,2*%
%TO.N,/G*%
X188000000Y-64975000D03*
X188000000Y-72925000D03*
%TD*%
D17*
%TO.P,C7,1*%
%TO.N,/G*%
X181300000Y-60650000D03*
%TO.P,C7,2*%
%TO.N,/3v3*%
X182850000Y-60650000D03*
%TD*%
D18*
%TO.P,U3,1,GND*%
%TO.N,/G*%
X181300000Y-51450000D03*
%TO.P,U3,2,VO*%
%TO.N,/3v3*%
X183600000Y-51450000D03*
D19*
X183600000Y-57750000D03*
D18*
%TO.P,U3,3,VI*%
%TO.N,/5V*%
X185900000Y-51450000D03*
%TD*%
D12*
%TO.P,J6,1,Pin_1*%
%TO.N,/5V*%
X194440000Y-55160000D03*
D13*
%TO.P,J6,2,Pin_2*%
%TO.N,/G*%
X191900000Y-55160000D03*
%TO.P,J6,3,Pin_3*%
%TO.N,/GPIO16*%
X194440000Y-57700000D03*
%TO.P,J6,4,Pin_4*%
%TO.N,/GPIO17*%
X191900000Y-57700000D03*
%TO.P,J6,5,Pin_5*%
%TO.N,/SCL*%
X194440000Y-60240000D03*
%TO.P,J6,6,Pin_6*%
%TO.N,/RX*%
X191900000Y-60240000D03*
%TO.P,J6,7,Pin_7*%
%TO.N,/TX*%
X194440000Y-62780000D03*
%TO.P,J6,8,Pin_8*%
%TO.N,/R*%
X191900000Y-62780000D03*
%TO.P,J6,9,Pin_9*%
%TO.N,/T*%
X194440000Y-65320000D03*
%TO.P,J6,10,Pin_10*%
%TO.N,/SDA*%
X191900000Y-65320000D03*
%TD*%
D20*
%TO.P,U1,1,GND*%
%TO.N,/G*%
X156600000Y-73870000D03*
%TO.P,U1,2,VDD*%
%TO.N,/3v3*%
X156600000Y-72600000D03*
%TO.P,U1,3,EN*%
%TO.N,Net-(U1-EN)*%
X156600000Y-71330000D03*
%TO.P,U1,4,SENSOR_VP*%
%TO.N,unconnected-(U1-SENSOR_VP-Pad4)*%
X156600000Y-70060000D03*
%TO.P,U1,5,SENSOR_VN*%
%TO.N,unconnected-(U1-SENSOR_VN-Pad5)*%
X156600000Y-68790000D03*
%TO.P,U1,6,IO34*%
%TO.N,unconnected-(U1-IO34-Pad6)*%
X156600000Y-67520000D03*
%TO.P,U1,7,IO35*%
%TO.N,unconnected-(U1-IO35-Pad7)*%
X156600000Y-66250000D03*
%TO.P,U1,8,IO32*%
%TO.N,unconnected-(U1-IO32-Pad8)*%
X156600000Y-64980000D03*
%TO.P,U1,9,IO33*%
%TO.N,unconnected-(U1-IO33-Pad9)*%
X156600000Y-63710000D03*
%TO.P,U1,10,IO25*%
%TO.N,unconnected-(U1-IO25-Pad10)*%
X156600000Y-62440000D03*
%TO.P,U1,11,IO26*%
%TO.N,unconnected-(U1-IO26-Pad11)*%
X156600000Y-61170000D03*
%TO.P,U1,12,IO27*%
%TO.N,unconnected-(U1-IO27-Pad12)*%
X156600000Y-59900000D03*
%TO.P,U1,13,IO14*%
%TO.N,unconnected-(U1-IO14-Pad13)*%
X156600000Y-58630000D03*
%TO.P,U1,14,IO12*%
%TO.N,unconnected-(U1-IO12-Pad14)*%
X156600000Y-57360000D03*
D21*
%TO.P,U1,15,GND*%
%TO.N,/G*%
X159635000Y-56110000D03*
%TO.P,U1,16,IO13*%
%TO.N,unconnected-(U1-IO13-Pad16)*%
X160905000Y-56110000D03*
%TO.P,U1,17,NC*%
%TO.N,unconnected-(U1-NC-Pad17)*%
X162175000Y-56110000D03*
%TO.P,U1,18,NC*%
%TO.N,unconnected-(U1-NC-Pad18)*%
X163445000Y-56110000D03*
%TO.P,U1,19,NC*%
%TO.N,unconnected-(U1-NC-Pad19)*%
X164715000Y-56110000D03*
%TO.P,U1,20,NC*%
%TO.N,unconnected-(U1-NC-Pad20)*%
X165985000Y-56110000D03*
%TO.P,U1,21,NC*%
%TO.N,unconnected-(U1-NC-Pad21)*%
X167255000Y-56110000D03*
%TO.P,U1,22,NC*%
%TO.N,unconnected-(U1-NC-Pad22)*%
X168525000Y-56110000D03*
%TO.P,U1,23,IO15*%
%TO.N,unconnected-(U1-IO15-Pad23)*%
X169795000Y-56110000D03*
%TO.P,U1,24,IO2*%
%TO.N,Net-(U1-IO2)*%
X171065000Y-56110000D03*
D20*
%TO.P,U1,25,IO0*%
%TO.N,Net-(U1-IO0)*%
X174100000Y-57360000D03*
%TO.P,U1,26,IO4*%
%TO.N,unconnected-(U1-IO4-Pad26)*%
X174100000Y-58630000D03*
%TO.P,U1,27,IO16*%
%TO.N,/GPIO16*%
X174100000Y-59900000D03*
%TO.P,U1,28,IO17*%
%TO.N,/GPIO17*%
X174100000Y-61170000D03*
%TO.P,U1,29,IO5*%
%TO.N,unconnected-(U1-IO5-Pad29)*%
X174100000Y-62440000D03*
%TO.P,U1,30,IO18*%
%TO.N,unconnected-(U1-IO18-Pad30)*%
X174100000Y-63710000D03*
%TO.P,U1,31,IO19*%
%TO.N,unconnected-(U1-IO19-Pad31)*%
X174100000Y-64980000D03*
%TO.P,U1,32,NC*%
%TO.N,unconnected-(U1-NC-Pad32)*%
X174100000Y-66250000D03*
%TO.P,U1,33,IO21*%
%TO.N,unconnected-(U1-IO21-Pad33)*%
X174100000Y-67520000D03*
%TO.P,U1,34,RXD0/IO3*%
%TO.N,unconnected-(U1-RXD0{slash}IO3-Pad34)*%
X174100000Y-68790000D03*
%TO.P,U1,35,TXD0/IO1*%
%TO.N,unconnected-(U1-TXD0{slash}IO1-Pad35)*%
X174100000Y-70060000D03*
%TO.P,U1,36,IO22*%
%TO.N,unconnected-(U1-IO22-Pad36)*%
X174100000Y-71330000D03*
%TO.P,U1,37,IO23*%
%TO.N,unconnected-(U1-IO23-Pad37)*%
X174100000Y-72600000D03*
%TO.P,U1,38,GND*%
%TO.N,/G*%
X174100000Y-73870000D03*
D22*
%TO.P,U1,39,GND*%
X162450000Y-64750000D03*
D23*
X162450000Y-65450000D03*
D22*
X162450000Y-66150000D03*
D23*
X162450000Y-66850000D03*
D22*
X162450000Y-67550000D03*
D23*
X163150000Y-64750000D03*
X163150000Y-66150000D03*
X163150000Y-67550000D03*
D22*
X163850000Y-64750000D03*
D23*
X163850000Y-65450000D03*
D22*
X163850000Y-66150000D03*
D23*
X163850000Y-66850000D03*
D22*
X163850000Y-67550000D03*
D23*
X164550000Y-64750000D03*
X164550000Y-66150000D03*
X164550000Y-67550000D03*
D22*
X165250000Y-64750000D03*
D23*
X165250000Y-65450000D03*
D22*
X165250000Y-66150000D03*
D23*
X165250000Y-66850000D03*
D22*
X165250000Y-67550000D03*
%TD*%
D17*
%TO.P,C6,1*%
%TO.N,/G*%
X153150000Y-72500000D03*
%TO.P,C6,2*%
%TO.N,/3v3*%
X154700000Y-72500000D03*
%TD*%
D15*
%TO.P,C5,1*%
%TO.N,/G*%
X185900000Y-60650000D03*
%TO.P,C5,2*%
%TO.N,/3v3*%
X184350000Y-60650000D03*
%TD*%
D11*
%TO.P,R1,1*%
%TO.N,/3v3*%
X152475000Y-70700000D03*
%TO.P,R1,2*%
%TO.N,Net-(U1-EN)*%
X154125000Y-70700000D03*
%TD*%
D24*
%TO.P,J3,1,Pin_1*%
%TO.N,/TX*%
X143250000Y-48825000D03*
D25*
%TO.P,J3,2,Pin_2*%
%TO.N,/RX*%
X144520000Y-48825000D03*
%TO.P,J3,3,Pin_3*%
%TO.N,/5V*%
X145790000Y-48825000D03*
%TO.P,J3,4,Pin_4*%
%TO.N,/G*%
X147060000Y-48825000D03*
%TD*%
D11*
%TO.P,R2,1*%
%TO.N,Net-(U1-IO0)*%
X176675000Y-57500000D03*
%TO.P,R2,2*%
%TO.N,/3v3*%
X178325000Y-57500000D03*
%TD*%
D12*
%TO.P,J5,1,Pin_1*%
%TO.N,/3v3*%
X179525000Y-65300000D03*
D13*
%TO.P,J5,2,Pin_2*%
%TO.N,/G*%
X179525000Y-67840000D03*
%TO.P,J5,3,Pin_3*%
%TO.N,/GPIO17*%
X179525000Y-70380000D03*
%TO.P,J5,4,Pin_4*%
%TO.N,/GPIO16*%
X179525000Y-72920000D03*
%TD*%
D26*
%TO.N,Net-(U1-IO2)*%
X172000000Y-48200000D03*
%TO.N,/RX*%
X187275000Y-51300000D03*
%TO.N,/3v3*%
X151400000Y-73950000D03*
X151070000Y-69420000D03*
%TO.N,/GPIO16*%
X177925000Y-63375000D03*
X176575735Y-60125735D03*
X176075000Y-63350000D03*
X182675000Y-63400000D03*
X176575735Y-62224265D03*
X180925000Y-63350000D03*
X179000000Y-63350000D03*
X189350000Y-63375000D03*
%TO.N,/GPIO17*%
X182555925Y-62370559D03*
X180950000Y-62425000D03*
X178950000Y-62425000D03*
X188525000Y-62400000D03*
%TO.N,/R*%
X184630042Y-54423106D03*
X190250000Y-56725000D03*
X156050000Y-54175000D03*
X190225000Y-60100000D03*
X177225000Y-54450000D03*
X164548640Y-54225000D03*
%TO.N,/SCL*%
X164418862Y-53435595D03*
X196100000Y-59900000D03*
X152425000Y-53650000D03*
X184575000Y-53625000D03*
X149650000Y-53600000D03*
X156050000Y-53374997D03*
X193375000Y-53075000D03*
X177200000Y-53625000D03*
%TO.N,/SDA*%
X189800000Y-65300000D03*
X145300000Y-59425000D03*
X143450000Y-57650000D03*
X149825000Y-63975000D03*
%TO.N,/T*%
X155025000Y-69175000D03*
X184900000Y-69575000D03*
%TO.N,Net-(U1-EN)*%
X150100000Y-71375000D03*
X153200000Y-69650000D03*
%TO.N,Net-(U1-IO0)*%
X182025000Y-64250000D03*
X179225000Y-60067831D03*
%TO.N,Net-(U1-IO2)*%
X171075000Y-55050000D03*
%TO.N,/5V*%
X151075000Y-49400000D03*
%TO.N,/RX*%
X187275000Y-47075000D03*
%TD*%
D27*
%TO.N,Net-(U1-IO2)*%
X172025000Y-48175000D02*
X172000000Y-48200000D01*
X175750000Y-48175000D02*
X172025000Y-48175000D01*
%TO.N,Net-(D1-A)*%
X179212500Y-48175000D02*
X179237500Y-48150000D01*
X177400000Y-48175000D02*
X179212500Y-48175000D01*
%TO.N,/TX*%
X143250000Y-48175000D02*
X143250000Y-48825000D01*
X145150000Y-46275000D02*
X143250000Y-48175000D01*
X196475000Y-46275000D02*
X145150000Y-46275000D01*
X196900000Y-46700000D02*
X196475000Y-46275000D01*
X196900000Y-60320000D02*
X196900000Y-46700000D01*
X194440000Y-62780000D02*
X196900000Y-60320000D01*
%TO.N,/RX*%
X195248000Y-51773000D02*
X196100000Y-52625000D01*
X187748000Y-51773000D02*
X195248000Y-51773000D01*
X187275000Y-51300000D02*
X187748000Y-51773000D01*
X196100000Y-52625000D02*
X196100000Y-58400000D01*
D28*
%TO.N,/5V*%
X187175000Y-52350000D02*
X186275000Y-51450000D01*
X187201000Y-52324000D02*
X187175000Y-52350000D01*
X194224000Y-52324000D02*
X187201000Y-52324000D01*
X186275000Y-51450000D02*
X185900000Y-51450000D01*
X194440000Y-52540000D02*
X194224000Y-52324000D01*
%TO.N,/3v3*%
X179975000Y-64850000D02*
X179975000Y-59750000D01*
X178325000Y-50875000D02*
X178325000Y-57500000D01*
X182875000Y-59000000D02*
X179225000Y-59000000D01*
X154500000Y-73950000D02*
X151400000Y-73950000D01*
X151150000Y-50850000D02*
X151500000Y-50500000D01*
X151500000Y-50500000D02*
X177950000Y-50500000D01*
X154700000Y-72500000D02*
X156500000Y-72500000D01*
X177950000Y-50500000D02*
X178325000Y-50875000D01*
X179225000Y-59000000D02*
X179975000Y-59750000D01*
X156500000Y-72500000D02*
X156600000Y-72600000D01*
X151150000Y-65150000D02*
X151150000Y-50850000D01*
X184350000Y-60650000D02*
X182850000Y-60650000D01*
X151070000Y-67220000D02*
X151070000Y-65230000D01*
X179525000Y-65300000D02*
X179975000Y-64850000D01*
X153700000Y-67620000D02*
X151470000Y-67620000D01*
X183600000Y-57750000D02*
X183600000Y-59900000D01*
X182850000Y-60650000D02*
X182850000Y-59025000D01*
X151070000Y-69420000D02*
X151070000Y-67220000D01*
X151070000Y-65230000D02*
X151150000Y-65150000D01*
X178325000Y-58100000D02*
X179225000Y-59000000D01*
X152350000Y-70700000D02*
X151070000Y-69420000D01*
X182850000Y-59025000D02*
X182875000Y-59000000D01*
X137800000Y-65230000D02*
X151070000Y-65230000D01*
X151470000Y-67620000D02*
X151070000Y-67220000D01*
X183600000Y-59900000D02*
X184350000Y-60650000D01*
X154700000Y-72500000D02*
X154700000Y-73750000D01*
X152475000Y-70700000D02*
X152350000Y-70700000D01*
X154700000Y-73750000D02*
X154500000Y-73950000D01*
X183600000Y-57750000D02*
X183600000Y-51450000D01*
X178325000Y-57500000D02*
X178325000Y-58100000D01*
D27*
%TO.N,/GPIO16*%
X176575735Y-60125735D02*
X176350000Y-59900000D01*
X176600000Y-63975000D02*
X176600000Y-62248530D01*
X193051000Y-59089000D02*
X189761000Y-59089000D01*
X176600000Y-72350000D02*
X176600000Y-63975000D01*
X177170000Y-72920000D02*
X176600000Y-72350000D01*
X176075000Y-63450000D02*
X176600000Y-63975000D01*
X177950000Y-63350000D02*
X177925000Y-63375000D01*
X176350000Y-59900000D02*
X174100000Y-59900000D01*
X176075000Y-63350000D02*
X176075000Y-63450000D01*
X180975000Y-63400000D02*
X180925000Y-63350000D01*
X189350000Y-59500000D02*
X189761000Y-59089000D01*
X179525000Y-72920000D02*
X177170000Y-72920000D01*
X189350000Y-59500000D02*
X189350000Y-63375000D01*
X193051000Y-59089000D02*
X194440000Y-57700000D01*
X176600000Y-62248530D02*
X176575735Y-62224265D01*
X182675000Y-63400000D02*
X180975000Y-63400000D01*
X179000000Y-63350000D02*
X177950000Y-63350000D01*
%TO.N,/GPIO17*%
X178950000Y-62425000D02*
X177250000Y-62425000D01*
X176370000Y-61170000D02*
X177200000Y-62000000D01*
X181004441Y-62370559D02*
X180950000Y-62425000D01*
X177250000Y-62425000D02*
X177200000Y-62375000D01*
X182555925Y-62370559D02*
X181004441Y-62370559D01*
X177200000Y-69950000D02*
X177200000Y-62375000D01*
X179525000Y-70380000D02*
X177630000Y-70380000D01*
X177630000Y-70380000D02*
X177200000Y-69950000D01*
X177200000Y-62000000D02*
X177200000Y-62375000D01*
X189250000Y-57700000D02*
X188525000Y-58425000D01*
X188525000Y-58425000D02*
X188525000Y-62425000D01*
X191900000Y-57700000D02*
X189250000Y-57700000D01*
X188525000Y-62425000D02*
X188525000Y-62400000D01*
X174100000Y-61170000D02*
X176370000Y-61170000D01*
%TO.N,/R*%
X153700000Y-60000000D02*
X155000000Y-60000000D01*
X189323106Y-54423106D02*
X184630042Y-54423106D01*
X176951057Y-54226000D02*
X177001000Y-54226000D01*
X176751057Y-54026000D02*
X164747640Y-54026000D01*
X190225000Y-62500000D02*
X190505000Y-62780000D01*
X177001000Y-54226000D02*
X177225000Y-54450000D01*
X155000000Y-60000000D02*
X155250000Y-59750000D01*
X190225000Y-62500000D02*
X190225000Y-60100000D01*
X155250000Y-54975000D02*
X156050000Y-54175000D01*
X191900000Y-62780000D02*
X190505000Y-62780000D01*
X155250000Y-59750000D02*
X155250000Y-54975000D01*
X190250000Y-55350000D02*
X189323106Y-54423106D01*
X176751057Y-54026000D02*
X176951057Y-54226000D01*
X164747640Y-54026000D02*
X164548640Y-54225000D01*
X190250000Y-56725000D02*
X190250000Y-55350000D01*
%TO.N,/SCL*%
X137800000Y-60150000D02*
X143100000Y-60150000D01*
X195685000Y-60240000D02*
X196050000Y-59875000D01*
X188100000Y-53075000D02*
X193375000Y-53075000D01*
X177200000Y-53625000D02*
X164450000Y-53625000D01*
X155725003Y-53374997D02*
X155450000Y-53650000D01*
X155450000Y-53650000D02*
X152425000Y-53650000D01*
X184575000Y-53625000D02*
X187550000Y-53625000D01*
X164450000Y-53625000D02*
X164425000Y-53600000D01*
X156050000Y-53374997D02*
X155725003Y-53374997D01*
X194440000Y-60240000D02*
X195685000Y-60240000D01*
X187550000Y-53625000D02*
X188100000Y-53075000D01*
X196050000Y-59875000D02*
X196075000Y-59875000D01*
X164450000Y-53625000D02*
X164450000Y-53466733D01*
X143100000Y-60150000D02*
X149650000Y-53600000D01*
X196075000Y-59875000D02*
X196100000Y-59900000D01*
X164450000Y-53466733D02*
X164418862Y-53435595D01*
%TO.N,/SDA*%
X143135000Y-57610000D02*
X137800000Y-57610000D01*
X145300000Y-59450000D02*
X145300000Y-59425000D01*
X189820000Y-65320000D02*
X189800000Y-65300000D01*
X149825000Y-63975000D02*
X145300000Y-59450000D01*
X143450000Y-57650000D02*
X143175000Y-57650000D01*
X143175000Y-57650000D02*
X143135000Y-57610000D01*
X191900000Y-65320000D02*
X189820000Y-65320000D01*
%TO.N,/T*%
X190185000Y-69575000D02*
X184900000Y-69575000D01*
X155025000Y-63865000D02*
X153700000Y-62540000D01*
X155025000Y-69175000D02*
X155025000Y-63865000D01*
X194440000Y-65320000D02*
X190185000Y-69575000D01*
%TO.N,Net-(U1-EN)*%
X154755000Y-71330000D02*
X156600000Y-71330000D01*
X153200000Y-69650000D02*
X153200000Y-69775000D01*
X154125000Y-70700000D02*
X154755000Y-71330000D01*
X153200000Y-69775000D02*
X154125000Y-70700000D01*
X148925000Y-71400000D02*
X150075000Y-71400000D01*
X150075000Y-71400000D02*
X150100000Y-71375000D01*
X140975000Y-71400000D02*
X148925000Y-71400000D01*
%TO.N,Net-(U1-IO0)*%
X182750000Y-64975000D02*
X182025000Y-64250000D01*
X183500000Y-64975000D02*
X182750000Y-64975000D01*
X183500000Y-64975000D02*
X183500000Y-72925000D01*
X174240000Y-57500000D02*
X176675000Y-57500000D01*
X179225000Y-60050000D02*
X176675000Y-57500000D01*
X174240000Y-57500000D02*
X174100000Y-57360000D01*
X179225000Y-60067831D02*
X179225000Y-60050000D01*
%TO.N,Net-(U1-IO2)*%
X171065000Y-56110000D02*
X171065000Y-55060000D01*
X171065000Y-55060000D02*
X171075000Y-55050000D01*
D28*
%TO.N,/5V*%
X194440000Y-52540000D02*
X194440000Y-55160000D01*
X151075000Y-49350000D02*
X151075000Y-49400000D01*
X185950000Y-51400000D02*
X185900000Y-51450000D01*
X185950000Y-49350000D02*
X151075000Y-49350000D01*
X185950000Y-49350000D02*
X185950000Y-51400000D01*
D27*
%TO.N,/RX*%
X192812240Y-60240000D02*
X191900000Y-60240000D01*
X145525000Y-47800000D02*
X146250000Y-47075000D01*
X195649000Y-58851000D02*
X194201240Y-58851000D01*
X194201240Y-58851000D02*
X192812240Y-60240000D01*
X187275000Y-47075000D02*
X146250000Y-47075000D01*
X145525000Y-47820000D02*
X145525000Y-47800000D01*
X145525000Y-47820000D02*
X144520000Y-48825000D01*
X196100000Y-58400000D02*
X195649000Y-58851000D01*
%TD*%
%TA.AperFunction,Conductor*%
%TO.N,/G*%
G36*
X144742206Y-46045185D02*
G01*
X144787961Y-46097989D01*
X144797905Y-46167147D01*
X144768880Y-46230703D01*
X144762848Y-46237181D01*
X143009541Y-47990487D01*
X143009539Y-47990489D01*
X142993230Y-48018739D01*
X142969979Y-48059011D01*
X142969978Y-48059013D01*
X142967966Y-48062499D01*
X142917399Y-48110715D01*
X142860578Y-48124500D01*
X142730247Y-48124500D01*
X142671770Y-48136131D01*
X142671769Y-48136132D01*
X142605447Y-48180447D01*
X142561132Y-48246769D01*
X142561131Y-48246770D01*
X142549500Y-48305247D01*
X142549500Y-49344752D01*
X142561131Y-49403229D01*
X142561132Y-49403230D01*
X142605447Y-49469552D01*
X142671769Y-49513867D01*
X142671770Y-49513868D01*
X142730247Y-49525499D01*
X142730250Y-49525500D01*
X142730252Y-49525500D01*
X143769750Y-49525500D01*
X143769751Y-49525499D01*
X143784568Y-49522552D01*
X143828229Y-49513868D01*
X143828229Y-49513867D01*
X143828231Y-49513867D01*
X143894552Y-49469552D01*
X143927279Y-49420573D01*
X143980889Y-49375769D01*
X144050213Y-49367060D01*
X144099271Y-49386362D01*
X144188182Y-49445771D01*
X144188195Y-49445778D01*
X144315667Y-49498578D01*
X144315672Y-49498580D01*
X144315676Y-49498580D01*
X144315677Y-49498581D01*
X144451004Y-49525500D01*
X144451007Y-49525500D01*
X144588995Y-49525500D01*
X144680041Y-49507389D01*
X144724328Y-49498580D01*
X144851811Y-49445775D01*
X144966542Y-49369114D01*
X145001548Y-49334108D01*
X145067319Y-49268338D01*
X145128642Y-49234853D01*
X145198334Y-49239837D01*
X145242681Y-49268338D01*
X145343454Y-49369111D01*
X145343458Y-49369114D01*
X145458182Y-49445771D01*
X145458195Y-49445778D01*
X145585667Y-49498578D01*
X145585672Y-49498580D01*
X145585676Y-49498580D01*
X145585677Y-49498581D01*
X145721004Y-49525500D01*
X145721007Y-49525500D01*
X145858995Y-49525500D01*
X145950041Y-49507389D01*
X145994328Y-49498580D01*
X146121811Y-49445775D01*
X146236542Y-49369114D01*
X146331658Y-49273998D01*
X146392981Y-49240513D01*
X146431495Y-49238276D01*
X146434313Y-49238553D01*
X146749810Y-48923057D01*
X146757149Y-48950445D01*
X146799936Y-49024554D01*
X146860446Y-49085064D01*
X146934555Y-49127851D01*
X146961941Y-49135189D01*
X146646443Y-49450687D01*
X146704744Y-49489642D01*
X146841232Y-49546177D01*
X146841240Y-49546179D01*
X146986126Y-49574999D01*
X146986129Y-49575000D01*
X147133871Y-49575000D01*
X147133873Y-49574999D01*
X147278759Y-49546179D01*
X147278767Y-49546177D01*
X147415256Y-49489641D01*
X147415262Y-49489638D01*
X147473555Y-49450687D01*
X147473555Y-49450686D01*
X147158058Y-49135189D01*
X147185445Y-49127851D01*
X147259554Y-49085064D01*
X147320064Y-49024554D01*
X147362851Y-48950445D01*
X147370189Y-48923057D01*
X147685686Y-49238555D01*
X147685687Y-49238555D01*
X147724638Y-49180262D01*
X147724641Y-49180256D01*
X147781177Y-49043767D01*
X147781179Y-49043759D01*
X147809999Y-48898873D01*
X147810000Y-48898871D01*
X147810000Y-48751128D01*
X147809999Y-48751126D01*
X147781179Y-48606240D01*
X147781177Y-48606232D01*
X147724642Y-48469744D01*
X147685687Y-48411443D01*
X147370189Y-48726941D01*
X147362851Y-48699555D01*
X147320064Y-48625446D01*
X147259554Y-48564936D01*
X147185445Y-48522149D01*
X147158057Y-48514810D01*
X147473554Y-48199312D01*
X147415255Y-48160357D01*
X147278767Y-48103822D01*
X147278759Y-48103820D01*
X147133872Y-48075000D01*
X146986128Y-48075000D01*
X146841240Y-48103820D01*
X146841232Y-48103822D01*
X146704743Y-48160358D01*
X146646444Y-48199312D01*
X146646443Y-48199312D01*
X146961942Y-48514810D01*
X146934555Y-48522149D01*
X146860446Y-48564936D01*
X146799936Y-48625446D01*
X146757149Y-48699555D01*
X146749810Y-48726941D01*
X146434312Y-48411443D01*
X146431491Y-48411721D01*
X146429797Y-48411399D01*
X146428183Y-48412002D01*
X146395606Y-48404915D01*
X146362845Y-48398702D01*
X146361055Y-48397399D01*
X146359910Y-48397150D01*
X146331656Y-48375999D01*
X146236545Y-48280888D01*
X146236541Y-48280885D01*
X146121817Y-48204228D01*
X146121804Y-48204221D01*
X145994332Y-48151421D01*
X145994323Y-48151419D01*
X145891742Y-48131013D01*
X145829832Y-48098627D01*
X145795258Y-48037911D01*
X145798999Y-47968142D01*
X145828252Y-47921717D01*
X146338152Y-47411819D01*
X146399475Y-47378334D01*
X146425833Y-47375500D01*
X175208745Y-47375500D01*
X175275784Y-47395185D01*
X175321539Y-47447989D01*
X175331483Y-47517147D01*
X175302458Y-47580703D01*
X175296426Y-47587181D01*
X175221954Y-47661652D01*
X175221951Y-47661657D01*
X175221950Y-47661658D01*
X175216556Y-47672244D01*
X175164352Y-47774698D01*
X175161337Y-47783980D01*
X175158825Y-47783163D01*
X175135180Y-47833037D01*
X175075866Y-47869966D01*
X175042640Y-47874500D01*
X172433676Y-47874500D01*
X172366637Y-47854815D01*
X172345995Y-47838181D01*
X172307316Y-47799502D01*
X172307314Y-47799500D01*
X172243367Y-47762580D01*
X172193187Y-47733608D01*
X172129539Y-47716554D01*
X172065892Y-47699500D01*
X171934108Y-47699500D01*
X171806812Y-47733608D01*
X171692686Y-47799500D01*
X171692683Y-47799502D01*
X171599502Y-47892683D01*
X171599500Y-47892686D01*
X171533608Y-48006812D01*
X171507615Y-48103822D01*
X171499500Y-48134108D01*
X171499500Y-48265892D01*
X171503518Y-48280886D01*
X171533608Y-48393187D01*
X171560201Y-48439246D01*
X171599500Y-48507314D01*
X171692686Y-48600500D01*
X171692687Y-48600501D01*
X171692689Y-48600502D01*
X171809794Y-48668113D01*
X171858010Y-48718680D01*
X171871232Y-48787287D01*
X171845264Y-48852152D01*
X171788350Y-48892680D01*
X171747794Y-48899500D01*
X151009108Y-48899500D01*
X150881812Y-48933608D01*
X150767686Y-48999500D01*
X150767683Y-48999502D01*
X150674502Y-49092683D01*
X150674500Y-49092686D01*
X150608608Y-49206812D01*
X150599578Y-49240513D01*
X150574500Y-49334108D01*
X150574500Y-49465892D01*
X150590472Y-49525500D01*
X150608608Y-49593187D01*
X150629890Y-49630048D01*
X150674500Y-49707314D01*
X150767686Y-49800500D01*
X150881814Y-49866392D01*
X151009108Y-49900500D01*
X151009110Y-49900500D01*
X151140890Y-49900500D01*
X151140892Y-49900500D01*
X151268186Y-49866392D01*
X151353546Y-49817108D01*
X151357785Y-49815973D01*
X151359063Y-49815468D01*
X151359985Y-49815383D01*
X151415540Y-49800500D01*
X185274988Y-49800500D01*
X185342027Y-49820185D01*
X185375311Y-49851621D01*
X185376476Y-49853225D01*
X185463181Y-49939930D01*
X185496666Y-50001253D01*
X185499500Y-50027611D01*
X185499500Y-50139146D01*
X185479815Y-50206185D01*
X185427011Y-50251940D01*
X185391687Y-50262085D01*
X185374764Y-50264313D01*
X185374763Y-50264313D01*
X185234770Y-50322300D01*
X185234767Y-50322301D01*
X185234767Y-50322302D01*
X185114549Y-50414549D01*
X185022300Y-50534770D01*
X184964313Y-50674763D01*
X184964313Y-50674764D01*
X184949500Y-50787272D01*
X184949500Y-52112727D01*
X184964313Y-52225235D01*
X184964313Y-52225236D01*
X185005714Y-52325188D01*
X185022302Y-52365233D01*
X185114549Y-52485451D01*
X185234767Y-52577698D01*
X185374764Y-52635687D01*
X185487280Y-52650500D01*
X185487287Y-52650500D01*
X186312713Y-52650500D01*
X186312720Y-52650500D01*
X186425236Y-52635687D01*
X186565233Y-52577698D01*
X186592330Y-52556905D01*
X186657497Y-52531711D01*
X186725942Y-52545748D01*
X186755497Y-52567600D01*
X186814511Y-52626614D01*
X186898386Y-52710489D01*
X186965904Y-52749471D01*
X187001114Y-52769800D01*
X187071233Y-52788587D01*
X187115691Y-52800499D01*
X187115694Y-52800499D01*
X187234306Y-52800499D01*
X187234309Y-52800499D01*
X187315574Y-52778725D01*
X187347666Y-52774500D01*
X187676167Y-52774500D01*
X187743206Y-52794185D01*
X187788961Y-52846989D01*
X187798905Y-52916147D01*
X187769880Y-52979703D01*
X187763848Y-52986181D01*
X187461848Y-53288181D01*
X187400525Y-53321666D01*
X187374167Y-53324500D01*
X185033676Y-53324500D01*
X184966637Y-53304815D01*
X184945995Y-53288181D01*
X184882316Y-53224502D01*
X184882314Y-53224500D01*
X184808375Y-53181811D01*
X184768187Y-53158608D01*
X184702068Y-53140892D01*
X184640892Y-53124500D01*
X184509108Y-53124500D01*
X184381812Y-53158608D01*
X184267686Y-53224500D01*
X184267683Y-53224502D01*
X184262181Y-53230005D01*
X184200858Y-53263490D01*
X184131166Y-53258506D01*
X184075233Y-53216634D01*
X184050816Y-53151170D01*
X184050500Y-53142324D01*
X184050500Y-52749497D01*
X184070185Y-52682458D01*
X184122989Y-52636703D01*
X184127027Y-52634945D01*
X184265228Y-52577700D01*
X184265229Y-52577700D01*
X184265229Y-52577699D01*
X184265233Y-52577698D01*
X184385451Y-52485451D01*
X184477698Y-52365233D01*
X184535687Y-52225236D01*
X184550500Y-52112720D01*
X184550500Y-50787280D01*
X184535687Y-50674764D01*
X184477698Y-50534767D01*
X184385451Y-50414549D01*
X184265233Y-50322302D01*
X184265229Y-50322300D01*
X184201801Y-50296027D01*
X184125236Y-50264313D01*
X184100497Y-50261056D01*
X184012727Y-50249500D01*
X184012720Y-50249500D01*
X183187280Y-50249500D01*
X183187272Y-50249500D01*
X183074764Y-50264313D01*
X183074763Y-50264313D01*
X182934770Y-50322300D01*
X182934767Y-50322301D01*
X182934767Y-50322302D01*
X182814549Y-50414549D01*
X182722300Y-50534770D01*
X182664313Y-50674763D01*
X182664313Y-50674764D01*
X182649500Y-50787272D01*
X182649500Y-52112727D01*
X182664313Y-52225235D01*
X182664313Y-52225236D01*
X182705714Y-52325188D01*
X182722302Y-52365233D01*
X182814549Y-52485451D01*
X182934767Y-52577698D01*
X182934770Y-52577699D01*
X182934771Y-52577700D01*
X182995271Y-52602759D01*
X183072953Y-52634936D01*
X183127356Y-52678776D01*
X183149421Y-52745071D01*
X183149500Y-52749497D01*
X183149500Y-56425500D01*
X183129815Y-56492539D01*
X183077011Y-56538294D01*
X183025500Y-56549500D01*
X182143384Y-56549500D01*
X182124145Y-56551248D01*
X182072807Y-56555913D01*
X181910393Y-56606522D01*
X181764811Y-56694530D01*
X181644530Y-56814811D01*
X181556522Y-56960393D01*
X181505913Y-57122807D01*
X181501160Y-57175119D01*
X181499500Y-57193384D01*
X181499500Y-58306616D01*
X181505914Y-58377196D01*
X181509471Y-58388611D01*
X181510623Y-58458468D01*
X181473823Y-58517861D01*
X181410755Y-58547930D01*
X181391086Y-58549500D01*
X179462965Y-58549500D01*
X179395926Y-58529815D01*
X179375284Y-58513181D01*
X178924313Y-58062210D01*
X178890828Y-58000887D01*
X178895812Y-57931195D01*
X178901507Y-57918240D01*
X178910646Y-57900304D01*
X178910646Y-57900301D01*
X178910647Y-57900301D01*
X178922946Y-57822643D01*
X178925500Y-57806519D01*
X178925499Y-57193482D01*
X178910646Y-57099696D01*
X178853050Y-56986658D01*
X178853046Y-56986654D01*
X178853045Y-56986652D01*
X178811819Y-56945426D01*
X178778334Y-56884103D01*
X178775500Y-56857745D01*
X178775500Y-52138118D01*
X180300000Y-52138118D01*
X180302788Y-52173547D01*
X180302789Y-52173553D01*
X180346843Y-52325185D01*
X180346844Y-52325188D01*
X180427226Y-52461108D01*
X180427232Y-52461116D01*
X180538883Y-52572767D01*
X180538891Y-52572773D01*
X180674811Y-52653155D01*
X180674814Y-52653156D01*
X180826446Y-52697210D01*
X180826452Y-52697211D01*
X180861881Y-52699999D01*
X180861894Y-52700000D01*
X181150000Y-52700000D01*
X181450000Y-52700000D01*
X181738106Y-52700000D01*
X181738118Y-52699999D01*
X181773547Y-52697211D01*
X181773553Y-52697210D01*
X181925185Y-52653156D01*
X181925188Y-52653155D01*
X182061108Y-52572773D01*
X182061116Y-52572767D01*
X182172767Y-52461116D01*
X182172773Y-52461108D01*
X182253155Y-52325188D01*
X182253156Y-52325185D01*
X182297210Y-52173553D01*
X182297211Y-52173547D01*
X182299999Y-52138118D01*
X182300000Y-52138105D01*
X182300000Y-51600000D01*
X181450000Y-51600000D01*
X181450000Y-52700000D01*
X181150000Y-52700000D01*
X181150000Y-51600000D01*
X180300000Y-51600000D01*
X180300000Y-52138118D01*
X178775500Y-52138118D01*
X178775500Y-50815693D01*
X178775500Y-50815691D01*
X178761082Y-50761881D01*
X180300000Y-50761881D01*
X180300000Y-51300000D01*
X181150000Y-51300000D01*
X181450000Y-51300000D01*
X182300000Y-51300000D01*
X182300000Y-50761894D01*
X182299999Y-50761881D01*
X182297211Y-50726452D01*
X182297210Y-50726446D01*
X182253156Y-50574814D01*
X182253155Y-50574811D01*
X182172773Y-50438891D01*
X182172767Y-50438883D01*
X182061116Y-50327232D01*
X182061108Y-50327226D01*
X181925188Y-50246844D01*
X181925185Y-50246843D01*
X181773553Y-50202789D01*
X181773547Y-50202788D01*
X181738118Y-50200000D01*
X181450000Y-50200000D01*
X181450000Y-51300000D01*
X181150000Y-51300000D01*
X181150000Y-50200000D01*
X180861881Y-50200000D01*
X180826452Y-50202788D01*
X180826446Y-50202789D01*
X180674814Y-50246843D01*
X180674811Y-50246844D01*
X180538891Y-50327226D01*
X180538883Y-50327232D01*
X180427232Y-50438883D01*
X180427226Y-50438891D01*
X180346844Y-50574811D01*
X180346843Y-50574814D01*
X180302789Y-50726446D01*
X180302788Y-50726452D01*
X180300000Y-50761881D01*
X178761082Y-50761881D01*
X178744799Y-50701114D01*
X178744799Y-50701113D01*
X178685489Y-50598386D01*
X178226614Y-50139511D01*
X178175250Y-50109856D01*
X178123888Y-50080201D01*
X178111780Y-50076957D01*
X178099673Y-50073713D01*
X178099670Y-50073712D01*
X178061478Y-50063478D01*
X178009309Y-50049500D01*
X151440691Y-50049500D01*
X151350326Y-50073713D01*
X151326113Y-50080201D01*
X151243736Y-50127760D01*
X151243723Y-50127766D01*
X151223392Y-50139505D01*
X151223384Y-50139511D01*
X150789513Y-50573383D01*
X150789509Y-50573389D01*
X150730201Y-50676112D01*
X150730200Y-50676117D01*
X150699500Y-50790691D01*
X150699500Y-64655500D01*
X150679815Y-64722539D01*
X150627011Y-64768294D01*
X150575500Y-64779500D01*
X138828691Y-64779500D01*
X138761652Y-64759815D01*
X138725589Y-64724391D01*
X138615977Y-64560344D01*
X138469657Y-64414024D01*
X138334165Y-64323492D01*
X138297598Y-64299059D01*
X138257172Y-64282314D01*
X138106420Y-64219870D01*
X138106412Y-64219868D01*
X137903469Y-64179500D01*
X137903465Y-64179500D01*
X137696535Y-64179500D01*
X137696530Y-64179500D01*
X137493587Y-64219868D01*
X137493579Y-64219870D01*
X137302403Y-64299058D01*
X137130342Y-64414024D01*
X136984024Y-64560342D01*
X136869058Y-64732403D01*
X136789870Y-64923579D01*
X136789868Y-64923587D01*
X136749500Y-65126530D01*
X136749500Y-65333469D01*
X136789868Y-65536412D01*
X136789870Y-65536420D01*
X136866644Y-65721769D01*
X136869059Y-65727598D01*
X136894980Y-65766392D01*
X136984024Y-65899657D01*
X137130342Y-66045975D01*
X137130345Y-66045977D01*
X137302402Y-66160941D01*
X137493580Y-66240130D01*
X137661796Y-66273590D01*
X137696530Y-66280499D01*
X137696534Y-66280500D01*
X137696535Y-66280500D01*
X137903466Y-66280500D01*
X137903467Y-66280499D01*
X138106420Y-66240130D01*
X138142051Y-66225371D01*
X139950000Y-66225371D01*
X139950000Y-66750000D01*
X140825000Y-66750000D01*
X141125000Y-66750000D01*
X142000000Y-66750000D01*
X142000000Y-66225373D01*
X141999999Y-66225371D01*
X147900000Y-66225371D01*
X147900000Y-66750000D01*
X148775000Y-66750000D01*
X149075000Y-66750000D01*
X149950000Y-66750000D01*
X149950000Y-66225373D01*
X149949999Y-66225371D01*
X149935496Y-66152459D01*
X149935494Y-66152455D01*
X149880239Y-66069760D01*
X149797544Y-66014505D01*
X149797540Y-66014503D01*
X149724627Y-66000000D01*
X149075000Y-66000000D01*
X149075000Y-66750000D01*
X148775000Y-66750000D01*
X148775000Y-66000000D01*
X148125373Y-66000000D01*
X148052459Y-66014503D01*
X148052455Y-66014505D01*
X147969760Y-66069760D01*
X147914505Y-66152455D01*
X147914503Y-66152459D01*
X147900000Y-66225371D01*
X141999999Y-66225371D01*
X141985496Y-66152459D01*
X141985494Y-66152455D01*
X141930239Y-66069760D01*
X141847544Y-66014505D01*
X141847540Y-66014503D01*
X141774627Y-66000000D01*
X141125000Y-66000000D01*
X141125000Y-66750000D01*
X140825000Y-66750000D01*
X140825000Y-66000000D01*
X140175373Y-66000000D01*
X140102459Y-66014503D01*
X140102455Y-66014505D01*
X140019760Y-66069760D01*
X139964505Y-66152455D01*
X139964503Y-66152459D01*
X139950000Y-66225371D01*
X138142051Y-66225371D01*
X138297598Y-66160941D01*
X138469655Y-66045977D01*
X138615977Y-65899655D01*
X138663701Y-65828231D01*
X138725589Y-65735609D01*
X138779201Y-65690804D01*
X138828691Y-65680500D01*
X150495500Y-65680500D01*
X150562539Y-65700185D01*
X150608294Y-65752989D01*
X150619500Y-65804500D01*
X150619500Y-69166062D01*
X150605383Y-69218751D01*
X150606719Y-69219304D01*
X150603608Y-69226814D01*
X150569500Y-69354108D01*
X150569500Y-69485892D01*
X150571644Y-69493892D01*
X150603608Y-69613187D01*
X150636554Y-69670250D01*
X150669500Y-69727314D01*
X150762686Y-69820500D01*
X150876814Y-69886392D01*
X150876816Y-69886392D01*
X150884326Y-69889504D01*
X150883771Y-69890841D01*
X150931010Y-69918113D01*
X151838181Y-70825284D01*
X151871666Y-70886607D01*
X151874500Y-70912964D01*
X151874500Y-71006517D01*
X151881333Y-71049657D01*
X151889354Y-71100304D01*
X151946950Y-71213342D01*
X151946952Y-71213344D01*
X151946954Y-71213347D01*
X152036652Y-71303045D01*
X152036654Y-71303046D01*
X152036658Y-71303050D01*
X152149694Y-71360645D01*
X152149698Y-71360647D01*
X152243475Y-71375499D01*
X152243481Y-71375500D01*
X152706518Y-71375499D01*
X152800304Y-71360646D01*
X152913342Y-71303050D01*
X153003050Y-71213342D01*
X153060646Y-71100304D01*
X153060646Y-71100302D01*
X153060647Y-71100301D01*
X153075499Y-71006524D01*
X153075500Y-71006519D01*
X153075499Y-70393482D01*
X153075353Y-70392560D01*
X153075398Y-70392205D01*
X153075117Y-70388620D01*
X153075869Y-70388560D01*
X153084306Y-70323267D01*
X153129300Y-70269814D01*
X153196051Y-70249172D01*
X153263366Y-70267895D01*
X153285507Y-70285478D01*
X153488181Y-70488152D01*
X153521666Y-70549475D01*
X153524500Y-70575833D01*
X153524500Y-71006517D01*
X153531333Y-71049657D01*
X153539354Y-71100304D01*
X153596950Y-71213342D01*
X153596952Y-71213344D01*
X153596954Y-71213347D01*
X153686652Y-71303045D01*
X153686654Y-71303046D01*
X153686658Y-71303050D01*
X153799694Y-71360645D01*
X153799698Y-71360647D01*
X153893475Y-71375499D01*
X153893481Y-71375500D01*
X154324166Y-71375499D01*
X154391205Y-71395183D01*
X154411847Y-71411818D01*
X154570489Y-71570460D01*
X154583329Y-71577873D01*
X154609725Y-71593114D01*
X154657940Y-71643681D01*
X154671162Y-71712288D01*
X154645194Y-71777153D01*
X154588279Y-71817681D01*
X154547724Y-71824500D01*
X154441507Y-71824500D01*
X154341878Y-71840279D01*
X154221778Y-71901473D01*
X154221774Y-71901476D01*
X154126476Y-71996774D01*
X154126473Y-71996778D01*
X154126472Y-71996780D01*
X154065281Y-72116874D01*
X154065280Y-72116876D01*
X154060851Y-72125570D01*
X154058579Y-72124412D01*
X154027233Y-72170241D01*
X153962871Y-72197431D01*
X153894026Y-72185507D01*
X153842557Y-72138256D01*
X153832571Y-72117570D01*
X153796186Y-72020018D01*
X153796184Y-72020015D01*
X153714329Y-71910670D01*
X153604984Y-71828815D01*
X153604983Y-71828814D01*
X153477010Y-71781083D01*
X153420428Y-71775000D01*
X153300000Y-71775000D01*
X153300000Y-73224999D01*
X153420433Y-73224999D01*
X153420439Y-73224998D01*
X153477007Y-73218918D01*
X153604981Y-73171186D01*
X153604984Y-73171184D01*
X153714329Y-73089329D01*
X153796184Y-72979984D01*
X153796186Y-72979981D01*
X153832571Y-72882429D01*
X153874442Y-72826495D01*
X153939906Y-72802078D01*
X154008179Y-72816930D01*
X154057585Y-72866335D01*
X154062304Y-72877281D01*
X154065280Y-72883122D01*
X154065281Y-72883126D01*
X154126472Y-73003220D01*
X154126473Y-73003221D01*
X154126476Y-73003225D01*
X154213181Y-73089930D01*
X154246666Y-73151253D01*
X154249500Y-73177611D01*
X154249500Y-73375500D01*
X154229815Y-73442539D01*
X154177011Y-73488294D01*
X154125500Y-73499500D01*
X151653937Y-73499500D01*
X151601249Y-73485381D01*
X151600696Y-73486719D01*
X151593188Y-73483609D01*
X151593186Y-73483608D01*
X151465892Y-73449500D01*
X151334108Y-73449500D01*
X151206812Y-73483608D01*
X151092686Y-73549500D01*
X151092683Y-73549502D01*
X150999502Y-73642683D01*
X150999500Y-73642686D01*
X150933608Y-73756812D01*
X150899500Y-73884108D01*
X150899500Y-74015891D01*
X150933608Y-74143187D01*
X150957814Y-74185112D01*
X150999500Y-74257314D01*
X150999502Y-74257316D01*
X151003072Y-74263499D01*
X151019545Y-74331399D01*
X150996693Y-74397426D01*
X150941772Y-74440617D01*
X150895685Y-74449500D01*
X135974500Y-74449500D01*
X135907461Y-74429815D01*
X135861706Y-74377011D01*
X135850500Y-74325500D01*
X135850500Y-72143713D01*
X136774500Y-72143713D01*
X136774500Y-72356287D01*
X136807754Y-72566243D01*
X136834968Y-72650000D01*
X136873444Y-72768414D01*
X136969951Y-72957820D01*
X137094890Y-73129786D01*
X137245213Y-73280109D01*
X137417179Y-73405048D01*
X137417181Y-73405049D01*
X137417184Y-73405051D01*
X137606588Y-73501557D01*
X137808757Y-73567246D01*
X138018713Y-73600500D01*
X138018714Y-73600500D01*
X138231286Y-73600500D01*
X138231287Y-73600500D01*
X138441243Y-73567246D01*
X138643412Y-73501557D01*
X138832816Y-73405051D01*
X138946495Y-73322459D01*
X139004786Y-73280109D01*
X139004788Y-73280106D01*
X139004792Y-73280104D01*
X139155104Y-73129792D01*
X139155106Y-73129788D01*
X139155109Y-73129786D01*
X139280048Y-72957820D01*
X139280047Y-72957820D01*
X139280051Y-72957816D01*
X139362786Y-72795439D01*
X152450001Y-72795439D01*
X152456081Y-72852007D01*
X152503813Y-72979981D01*
X152503815Y-72979984D01*
X152585670Y-73089329D01*
X152695015Y-73171184D01*
X152695016Y-73171185D01*
X152822991Y-73218917D01*
X152822994Y-73218918D01*
X152879555Y-73224999D01*
X152999999Y-73224999D01*
X153000000Y-73224998D01*
X153000000Y-72650000D01*
X152450001Y-72650000D01*
X152450001Y-72795439D01*
X139362786Y-72795439D01*
X139376557Y-72768412D01*
X139442246Y-72566243D01*
X139475500Y-72356287D01*
X139475500Y-72143713D01*
X139442246Y-71933757D01*
X139376557Y-71731588D01*
X139280051Y-71542184D01*
X139280049Y-71542181D01*
X139280048Y-71542179D01*
X139155109Y-71370213D01*
X139004786Y-71219890D01*
X138832820Y-71094951D01*
X138643414Y-70998444D01*
X138643413Y-70998443D01*
X138643412Y-70998443D01*
X138441243Y-70932754D01*
X138441241Y-70932753D01*
X138441240Y-70932753D01*
X138279957Y-70907208D01*
X138231287Y-70899500D01*
X138018713Y-70899500D01*
X137970042Y-70907208D01*
X137808760Y-70932753D01*
X137606585Y-70998444D01*
X137417179Y-71094951D01*
X137245213Y-71219890D01*
X137094890Y-71370213D01*
X136969951Y-71542179D01*
X136873444Y-71731585D01*
X136807753Y-71933760D01*
X136776632Y-72130251D01*
X136774500Y-72143713D01*
X135850500Y-72143713D01*
X135850500Y-70730247D01*
X139999500Y-70730247D01*
X139999500Y-72069752D01*
X140011131Y-72128229D01*
X140011132Y-72128230D01*
X140055447Y-72194552D01*
X140121769Y-72238867D01*
X140121770Y-72238868D01*
X140180247Y-72250499D01*
X140180250Y-72250500D01*
X140180252Y-72250500D01*
X141769750Y-72250500D01*
X141769751Y-72250499D01*
X141784568Y-72247552D01*
X141828229Y-72238868D01*
X141828229Y-72238867D01*
X141828231Y-72238867D01*
X141894552Y-72194552D01*
X141938867Y-72128231D01*
X141938867Y-72128229D01*
X141938868Y-72128229D01*
X141950499Y-72069752D01*
X141950500Y-72069750D01*
X141950500Y-71824500D01*
X141970185Y-71757461D01*
X142022989Y-71711706D01*
X142074500Y-71700500D01*
X147825500Y-71700500D01*
X147892539Y-71720185D01*
X147938294Y-71772989D01*
X147949500Y-71824500D01*
X147949500Y-72069752D01*
X147961131Y-72128229D01*
X147961132Y-72128230D01*
X148005447Y-72194552D01*
X148071769Y-72238867D01*
X148071770Y-72238868D01*
X148130247Y-72250499D01*
X148130250Y-72250500D01*
X148130252Y-72250500D01*
X149719750Y-72250500D01*
X149719751Y-72250499D01*
X149734568Y-72247552D01*
X149778229Y-72238868D01*
X149778229Y-72238867D01*
X149778231Y-72238867D01*
X149829558Y-72204571D01*
X152450000Y-72204571D01*
X152450000Y-72350000D01*
X153000000Y-72350000D01*
X153000000Y-71775000D01*
X152879566Y-71775000D01*
X152879559Y-71775001D01*
X152822992Y-71781081D01*
X152695018Y-71828813D01*
X152695015Y-71828815D01*
X152585670Y-71910670D01*
X152503815Y-72020015D01*
X152503814Y-72020016D01*
X152456083Y-72147989D01*
X152450000Y-72204571D01*
X149829558Y-72204571D01*
X149844552Y-72194552D01*
X149888867Y-72128231D01*
X149900500Y-72069748D01*
X149900500Y-71988554D01*
X149902351Y-71977961D01*
X149913249Y-71955884D01*
X149920185Y-71932265D01*
X149928441Y-71925110D01*
X149933280Y-71915310D01*
X149954387Y-71902628D01*
X149972989Y-71886510D01*
X149983940Y-71884872D01*
X149993171Y-71879327D01*
X150016351Y-71880026D01*
X150025981Y-71878587D01*
X150025981Y-71875500D01*
X150165890Y-71875500D01*
X150165892Y-71875500D01*
X150293186Y-71841392D01*
X150407314Y-71775500D01*
X150500500Y-71682314D01*
X150566392Y-71568186D01*
X150600500Y-71440892D01*
X150600500Y-71309108D01*
X150566392Y-71181814D01*
X150500500Y-71067686D01*
X150407314Y-70974500D01*
X150350250Y-70941554D01*
X150293187Y-70908608D01*
X150211076Y-70886607D01*
X150165892Y-70874500D01*
X150034108Y-70874500D01*
X150025981Y-70874500D01*
X150025981Y-70871340D01*
X149971652Y-70862869D01*
X149919395Y-70816490D01*
X149900500Y-70750695D01*
X149900500Y-70730249D01*
X149900499Y-70730247D01*
X149888868Y-70671770D01*
X149888867Y-70671769D01*
X149844552Y-70605447D01*
X149778230Y-70561132D01*
X149778229Y-70561131D01*
X149719752Y-70549500D01*
X149719748Y-70549500D01*
X148130252Y-70549500D01*
X148130247Y-70549500D01*
X148071770Y-70561131D01*
X148071769Y-70561132D01*
X148005447Y-70605447D01*
X147961132Y-70671769D01*
X147961131Y-70671770D01*
X147949500Y-70730247D01*
X147949500Y-70975500D01*
X147929815Y-71042539D01*
X147877011Y-71088294D01*
X147825500Y-71099500D01*
X142074500Y-71099500D01*
X142007461Y-71079815D01*
X141961706Y-71027011D01*
X141950500Y-70975500D01*
X141950500Y-70730249D01*
X141950499Y-70730247D01*
X141938868Y-70671770D01*
X141938867Y-70671769D01*
X141894552Y-70605447D01*
X141828230Y-70561132D01*
X141828229Y-70561131D01*
X141769752Y-70549500D01*
X141769748Y-70549500D01*
X140180252Y-70549500D01*
X140180247Y-70549500D01*
X140121770Y-70561131D01*
X140121769Y-70561132D01*
X140055447Y-70605447D01*
X140011132Y-70671769D01*
X140011131Y-70671770D01*
X139999500Y-70730247D01*
X135850500Y-70730247D01*
X135850500Y-67574628D01*
X139950000Y-67574628D01*
X139964503Y-67647540D01*
X139964505Y-67647544D01*
X140019760Y-67730239D01*
X140102455Y-67785494D01*
X140102459Y-67785496D01*
X140175371Y-67799999D01*
X140175374Y-67800000D01*
X140825000Y-67800000D01*
X141125000Y-67800000D01*
X141774626Y-67800000D01*
X141774628Y-67799999D01*
X141847540Y-67785496D01*
X141847544Y-67785494D01*
X141930239Y-67730239D01*
X141985494Y-67647544D01*
X141985496Y-67647540D01*
X141999999Y-67574628D01*
X147900000Y-67574628D01*
X147914503Y-67647540D01*
X147914505Y-67647544D01*
X147969760Y-67730239D01*
X148052455Y-67785494D01*
X148052459Y-67785496D01*
X148125371Y-67799999D01*
X148125374Y-67800000D01*
X148775000Y-67800000D01*
X149075000Y-67800000D01*
X149724626Y-67800000D01*
X149724628Y-67799999D01*
X149797540Y-67785496D01*
X149797544Y-67785494D01*
X149880239Y-67730239D01*
X149935494Y-67647544D01*
X149935496Y-67647540D01*
X149949999Y-67574628D01*
X149950000Y-67574626D01*
X149950000Y-67050000D01*
X149075000Y-67050000D01*
X149075000Y-67800000D01*
X148775000Y-67800000D01*
X148775000Y-67050000D01*
X147900000Y-67050000D01*
X147900000Y-67574628D01*
X141999999Y-67574628D01*
X142000000Y-67574626D01*
X142000000Y-67050000D01*
X141125000Y-67050000D01*
X141125000Y-67800000D01*
X140825000Y-67800000D01*
X140825000Y-67050000D01*
X139950000Y-67050000D01*
X139950000Y-67574628D01*
X135850500Y-67574628D01*
X135850500Y-62603428D01*
X136700000Y-62603428D01*
X136700000Y-62776571D01*
X136727085Y-62947584D01*
X136780591Y-63112257D01*
X136859198Y-63266528D01*
X136923219Y-63354646D01*
X136923220Y-63354647D01*
X137356329Y-62921538D01*
X137399901Y-62997007D01*
X137492993Y-63090099D01*
X137568460Y-63133670D01*
X137135351Y-63566778D01*
X137135352Y-63566780D01*
X137223471Y-63630801D01*
X137377742Y-63709408D01*
X137542415Y-63762914D01*
X137713429Y-63790000D01*
X137886571Y-63790000D01*
X138057584Y-63762914D01*
X138222257Y-63709408D01*
X138376525Y-63630803D01*
X138464646Y-63566778D01*
X138464647Y-63566778D01*
X138031539Y-63133670D01*
X138107007Y-63090099D01*
X138200099Y-62997007D01*
X138243670Y-62921538D01*
X138676778Y-63354647D01*
X138676778Y-63354646D01*
X138740803Y-63266525D01*
X138819408Y-63112257D01*
X138872914Y-62947584D01*
X138900000Y-62776571D01*
X138900000Y-62603428D01*
X138872914Y-62432415D01*
X138819408Y-62267742D01*
X138740801Y-62113471D01*
X138676780Y-62025352D01*
X138676778Y-62025351D01*
X138243670Y-62458460D01*
X138200099Y-62382993D01*
X138107007Y-62289901D01*
X138031538Y-62246329D01*
X138464647Y-61813220D01*
X138464646Y-61813219D01*
X138376528Y-61749198D01*
X138222257Y-61670591D01*
X138057584Y-61617085D01*
X137886571Y-61590000D01*
X137713429Y-61590000D01*
X137542415Y-61617085D01*
X137377742Y-61670591D01*
X137223478Y-61749194D01*
X137135352Y-61813220D01*
X137568461Y-62246329D01*
X137492993Y-62289901D01*
X137399901Y-62382993D01*
X137356329Y-62458461D01*
X136923220Y-62025352D01*
X136859194Y-62113478D01*
X136780591Y-62267742D01*
X136727085Y-62432415D01*
X136700000Y-62603428D01*
X135850500Y-62603428D01*
X135850500Y-60046530D01*
X136749500Y-60046530D01*
X136749500Y-60253469D01*
X136789868Y-60456412D01*
X136789870Y-60456420D01*
X136869058Y-60647596D01*
X136984024Y-60819657D01*
X137130342Y-60965975D01*
X137130345Y-60965977D01*
X137302402Y-61080941D01*
X137493580Y-61160130D01*
X137681709Y-61197551D01*
X137696530Y-61200499D01*
X137696534Y-61200500D01*
X137696535Y-61200500D01*
X137903466Y-61200500D01*
X137903467Y-61200499D01*
X138106420Y-61160130D01*
X138297598Y-61080941D01*
X138469655Y-60965977D01*
X138615977Y-60819655D01*
X138730941Y-60647598D01*
X138780875Y-60527046D01*
X138824716Y-60472644D01*
X138891010Y-60450579D01*
X138895436Y-60450500D01*
X143139560Y-60450500D01*
X143139562Y-60450500D01*
X143215989Y-60430021D01*
X143284511Y-60390460D01*
X143340460Y-60334511D01*
X144315863Y-59359108D01*
X144799500Y-59359108D01*
X144799500Y-59490892D01*
X144806877Y-59518422D01*
X144833608Y-59618187D01*
X144853363Y-59652403D01*
X144899500Y-59732314D01*
X144992686Y-59825500D01*
X145106814Y-59891392D01*
X145234108Y-59925500D01*
X145299167Y-59925500D01*
X145366206Y-59945185D01*
X145386848Y-59961819D01*
X149288181Y-63863152D01*
X149321666Y-63924475D01*
X149324500Y-63950833D01*
X149324500Y-64040892D01*
X149340196Y-64099471D01*
X149358608Y-64168187D01*
X149372668Y-64192539D01*
X149424500Y-64282314D01*
X149517686Y-64375500D01*
X149631814Y-64441392D01*
X149759108Y-64475500D01*
X149759110Y-64475500D01*
X149890890Y-64475500D01*
X149890892Y-64475500D01*
X150018186Y-64441392D01*
X150132314Y-64375500D01*
X150225500Y-64282314D01*
X150291392Y-64168186D01*
X150325500Y-64040892D01*
X150325500Y-63909108D01*
X150291392Y-63781814D01*
X150225500Y-63667686D01*
X150132314Y-63574500D01*
X150044846Y-63524000D01*
X150018187Y-63508608D01*
X149954539Y-63491554D01*
X149890892Y-63474500D01*
X149800833Y-63474500D01*
X149733794Y-63454815D01*
X149713152Y-63438181D01*
X145836819Y-59561848D01*
X145803334Y-59500525D01*
X145800500Y-59474167D01*
X145800500Y-59359110D01*
X145800500Y-59359108D01*
X145766392Y-59231814D01*
X145700500Y-59117686D01*
X145607314Y-59024500D01*
X145519846Y-58974000D01*
X145493187Y-58958608D01*
X145429539Y-58941554D01*
X145365892Y-58924500D01*
X145234108Y-58924500D01*
X145106814Y-58958608D01*
X145106813Y-58958608D01*
X145106811Y-58958609D01*
X145106810Y-58958609D01*
X145012817Y-59012876D01*
X145012813Y-59012879D01*
X144992686Y-59024500D01*
X144899500Y-59117686D01*
X144887879Y-59137813D01*
X144887876Y-59137817D01*
X144833609Y-59231810D01*
X144833609Y-59231811D01*
X144833609Y-59231812D01*
X144833608Y-59231814D01*
X144799500Y-59359108D01*
X144315863Y-59359108D01*
X149538151Y-54136818D01*
X149599474Y-54103334D01*
X149625832Y-54100500D01*
X149715890Y-54100500D01*
X149715892Y-54100500D01*
X149843186Y-54066392D01*
X149957314Y-54000500D01*
X150050500Y-53907314D01*
X150116392Y-53793186D01*
X150150500Y-53665892D01*
X150150500Y-53534108D01*
X150116392Y-53406814D01*
X150050500Y-53292686D01*
X149957314Y-53199500D01*
X149886487Y-53158608D01*
X149843187Y-53133608D01*
X149779539Y-53116554D01*
X149715892Y-53099500D01*
X149584108Y-53099500D01*
X149456812Y-53133608D01*
X149342686Y-53199500D01*
X149342683Y-53199502D01*
X149249502Y-53292683D01*
X149249500Y-53292686D01*
X149183608Y-53406812D01*
X149149500Y-53534108D01*
X149149500Y-53624166D01*
X149129815Y-53691205D01*
X149113181Y-53711847D01*
X143011848Y-59813181D01*
X142950525Y-59846666D01*
X142924167Y-59849500D01*
X138895436Y-59849500D01*
X138828397Y-59829815D01*
X138782642Y-59777011D01*
X138780875Y-59772953D01*
X138768220Y-59742402D01*
X138730941Y-59652402D01*
X138615977Y-59480345D01*
X138615975Y-59480342D01*
X138469657Y-59334024D01*
X138363042Y-59262787D01*
X138297598Y-59219059D01*
X138251187Y-59199835D01*
X138106420Y-59139870D01*
X138106412Y-59139868D01*
X137903469Y-59099500D01*
X137903465Y-59099500D01*
X137696535Y-59099500D01*
X137696530Y-59099500D01*
X137493587Y-59139868D01*
X137493579Y-59139870D01*
X137302403Y-59219058D01*
X137130342Y-59334024D01*
X136984024Y-59480342D01*
X136869058Y-59652403D01*
X136789870Y-59843579D01*
X136789868Y-59843587D01*
X136749500Y-60046530D01*
X135850500Y-60046530D01*
X135850500Y-57506530D01*
X136749500Y-57506530D01*
X136749500Y-57713469D01*
X136789868Y-57916412D01*
X136789870Y-57916420D01*
X136866644Y-58101769D01*
X136869059Y-58107598D01*
X136914429Y-58175499D01*
X136984024Y-58279657D01*
X137130342Y-58425975D01*
X137130345Y-58425977D01*
X137302402Y-58540941D01*
X137493580Y-58620130D01*
X137696530Y-58660499D01*
X137696534Y-58660500D01*
X137696535Y-58660500D01*
X137903466Y-58660500D01*
X137903467Y-58660499D01*
X138106420Y-58620130D01*
X138297598Y-58540941D01*
X138469655Y-58425977D01*
X138615977Y-58279655D01*
X138730941Y-58107598D01*
X138780875Y-57987046D01*
X138824716Y-57932644D01*
X138891010Y-57910579D01*
X138895436Y-57910500D01*
X142952429Y-57910500D01*
X143019468Y-57930185D01*
X143043253Y-57952066D01*
X143043753Y-57951567D01*
X143049499Y-57957313D01*
X143049500Y-57957314D01*
X143142686Y-58050500D01*
X143256814Y-58116392D01*
X143384108Y-58150500D01*
X143384110Y-58150500D01*
X143515890Y-58150500D01*
X143515892Y-58150500D01*
X143643186Y-58116392D01*
X143757314Y-58050500D01*
X143850500Y-57957314D01*
X143916392Y-57843186D01*
X143950500Y-57715892D01*
X143950500Y-57584108D01*
X143916392Y-57456814D01*
X143850500Y-57342686D01*
X143757314Y-57249500D01*
X143675740Y-57202403D01*
X143643187Y-57183608D01*
X143579539Y-57166554D01*
X143515892Y-57149500D01*
X143384108Y-57149500D01*
X143256812Y-57183608D01*
X143142686Y-57249500D01*
X143142683Y-57249502D01*
X143119005Y-57273181D01*
X143057682Y-57306666D01*
X143031324Y-57309500D01*
X138895436Y-57309500D01*
X138828397Y-57289815D01*
X138782642Y-57237011D01*
X138780875Y-57232953D01*
X138764863Y-57194297D01*
X138730941Y-57112402D01*
X138615977Y-56940345D01*
X138615975Y-56940342D01*
X138469657Y-56794024D01*
X138320749Y-56694528D01*
X138297598Y-56679059D01*
X138249432Y-56659108D01*
X138106420Y-56599870D01*
X138106412Y-56599868D01*
X137903469Y-56559500D01*
X137903465Y-56559500D01*
X137696535Y-56559500D01*
X137696530Y-56559500D01*
X137493587Y-56599868D01*
X137493579Y-56599870D01*
X137302403Y-56679058D01*
X137130342Y-56794024D01*
X136984024Y-56940342D01*
X136869058Y-57112403D01*
X136789870Y-57303579D01*
X136789868Y-57303587D01*
X136749500Y-57506530D01*
X135850500Y-57506530D01*
X135850500Y-54200247D01*
X136749500Y-54200247D01*
X136749500Y-55939752D01*
X136761131Y-55998229D01*
X136761132Y-55998230D01*
X136805447Y-56064552D01*
X136871769Y-56108867D01*
X136871770Y-56108868D01*
X136930247Y-56120499D01*
X136930250Y-56120500D01*
X136930252Y-56120500D01*
X138669750Y-56120500D01*
X138669751Y-56120499D01*
X138684568Y-56117552D01*
X138728229Y-56108868D01*
X138728229Y-56108867D01*
X138728231Y-56108867D01*
X138794552Y-56064552D01*
X138838867Y-55998231D01*
X138838867Y-55998229D01*
X138838868Y-55998229D01*
X138850499Y-55939752D01*
X138850500Y-55939750D01*
X138850500Y-54200249D01*
X138850499Y-54200247D01*
X138838868Y-54141770D01*
X138838867Y-54141769D01*
X138794552Y-54075447D01*
X138728230Y-54031132D01*
X138728229Y-54031131D01*
X138669752Y-54019500D01*
X138669748Y-54019500D01*
X136930252Y-54019500D01*
X136930247Y-54019500D01*
X136871770Y-54031131D01*
X136871769Y-54031132D01*
X136805447Y-54075447D01*
X136761132Y-54141769D01*
X136761131Y-54141770D01*
X136749500Y-54200247D01*
X135850500Y-54200247D01*
X135850500Y-48318713D01*
X136724500Y-48318713D01*
X136724500Y-48531287D01*
X136731471Y-48575301D01*
X136754488Y-48720626D01*
X136757754Y-48741243D01*
X136820257Y-48933608D01*
X136823444Y-48943414D01*
X136919951Y-49132820D01*
X137044890Y-49304786D01*
X137195213Y-49455109D01*
X137367179Y-49580048D01*
X137367181Y-49580049D01*
X137367184Y-49580051D01*
X137556588Y-49676557D01*
X137758757Y-49742246D01*
X137968713Y-49775500D01*
X137968714Y-49775500D01*
X138181286Y-49775500D01*
X138181287Y-49775500D01*
X138391243Y-49742246D01*
X138593412Y-49676557D01*
X138782816Y-49580051D01*
X138873910Y-49513868D01*
X138954786Y-49455109D01*
X138954788Y-49455106D01*
X138954792Y-49455104D01*
X139105104Y-49304792D01*
X139105106Y-49304788D01*
X139105109Y-49304786D01*
X139230048Y-49132820D01*
X139230047Y-49132820D01*
X139230051Y-49132816D01*
X139326557Y-48943412D01*
X139392246Y-48741243D01*
X139425500Y-48531287D01*
X139425500Y-48318713D01*
X139392246Y-48108757D01*
X139326557Y-47906588D01*
X139230051Y-47717184D01*
X139230049Y-47717181D01*
X139230048Y-47717179D01*
X139105109Y-47545213D01*
X138954786Y-47394890D01*
X138782820Y-47269951D01*
X138593414Y-47173444D01*
X138593413Y-47173443D01*
X138593412Y-47173443D01*
X138391243Y-47107754D01*
X138391241Y-47107753D01*
X138391240Y-47107753D01*
X138229957Y-47082208D01*
X138181287Y-47074500D01*
X137968713Y-47074500D01*
X137920042Y-47082208D01*
X137758760Y-47107753D01*
X137556585Y-47173444D01*
X137367179Y-47269951D01*
X137195213Y-47394890D01*
X137044890Y-47545213D01*
X136919951Y-47717179D01*
X136823444Y-47906585D01*
X136757753Y-48108760D01*
X136731445Y-48274863D01*
X136724500Y-48318713D01*
X135850500Y-48318713D01*
X135850500Y-46149500D01*
X135870185Y-46082461D01*
X135922989Y-46036706D01*
X135974500Y-46025500D01*
X144675167Y-46025500D01*
X144742206Y-46045185D01*
G37*
%TD.AperFunction*%
%TA.AperFunction,Conductor*%
G36*
X177779074Y-50970185D02*
G01*
X177799716Y-50986819D01*
X177838181Y-51025284D01*
X177871666Y-51086607D01*
X177874500Y-51112965D01*
X177874500Y-53329493D01*
X177854815Y-53396532D01*
X177802011Y-53442287D01*
X177732853Y-53452231D01*
X177669297Y-53423206D01*
X177643113Y-53391494D01*
X177630532Y-53369703D01*
X177600500Y-53317686D01*
X177507314Y-53224500D01*
X177433375Y-53181811D01*
X177393187Y-53158608D01*
X177327068Y-53140892D01*
X177265892Y-53124500D01*
X177134108Y-53124500D01*
X177006812Y-53158608D01*
X176892686Y-53224500D01*
X176892683Y-53224502D01*
X176829005Y-53288181D01*
X176767682Y-53321666D01*
X176741324Y-53324500D01*
X165002111Y-53324500D01*
X164935072Y-53304815D01*
X164889317Y-53252011D01*
X164887548Y-53247947D01*
X164885255Y-53242411D01*
X164885253Y-53242407D01*
X164819362Y-53128281D01*
X164726176Y-53035095D01*
X164641455Y-52986181D01*
X164612049Y-52969203D01*
X164548401Y-52952149D01*
X164484754Y-52935095D01*
X164352970Y-52935095D01*
X164225674Y-52969203D01*
X164111548Y-53035095D01*
X164111545Y-53035097D01*
X164018364Y-53128278D01*
X164018362Y-53128281D01*
X163952470Y-53242407D01*
X163932300Y-53317686D01*
X163918362Y-53369703D01*
X163918362Y-53501487D01*
X163933801Y-53559108D01*
X163952470Y-53628782D01*
X163973896Y-53665892D01*
X164018362Y-53742909D01*
X164018364Y-53742911D01*
X164097330Y-53821877D01*
X164130815Y-53883200D01*
X164125831Y-53952892D01*
X164117036Y-53971558D01*
X164082249Y-54031810D01*
X164082249Y-54031811D01*
X164082248Y-54031813D01*
X164082248Y-54031814D01*
X164048140Y-54159108D01*
X164048140Y-54290892D01*
X164058141Y-54328218D01*
X164082248Y-54418187D01*
X164100280Y-54449418D01*
X164148140Y-54532314D01*
X164241326Y-54625500D01*
X164355454Y-54691392D01*
X164482748Y-54725500D01*
X164482750Y-54725500D01*
X164614530Y-54725500D01*
X164614532Y-54725500D01*
X164741826Y-54691392D01*
X164855954Y-54625500D01*
X164949140Y-54532314D01*
X165015032Y-54418186D01*
X165015032Y-54418183D01*
X165018140Y-54410682D01*
X165019371Y-54411191D01*
X165051332Y-54358751D01*
X165114177Y-54328218D01*
X165134747Y-54326500D01*
X170899482Y-54326500D01*
X170966521Y-54346185D01*
X171012276Y-54398989D01*
X171022220Y-54468147D01*
X170993195Y-54531703D01*
X170934417Y-54569477D01*
X170931597Y-54570268D01*
X170913988Y-54574987D01*
X170881812Y-54583608D01*
X170767686Y-54649500D01*
X170767683Y-54649502D01*
X170674502Y-54742683D01*
X170674500Y-54742686D01*
X170608608Y-54856812D01*
X170574500Y-54984108D01*
X170574500Y-55079642D01*
X170572263Y-55087259D01*
X170573533Y-55095094D01*
X170562560Y-55120301D01*
X170554815Y-55146681D01*
X170548105Y-55153511D01*
X170545648Y-55159158D01*
X170519392Y-55182743D01*
X170498892Y-55196441D01*
X170432215Y-55217320D01*
X170364834Y-55198836D01*
X170361109Y-55196442D01*
X170323230Y-55171132D01*
X170323229Y-55171131D01*
X170264752Y-55159500D01*
X170264748Y-55159500D01*
X169325252Y-55159500D01*
X169325247Y-55159500D01*
X169266770Y-55171131D01*
X169266769Y-55171132D01*
X169228891Y-55196442D01*
X169162213Y-55217320D01*
X169094833Y-55198835D01*
X169091109Y-55196442D01*
X169053230Y-55171132D01*
X169053229Y-55171131D01*
X168994752Y-55159500D01*
X168994748Y-55159500D01*
X168055252Y-55159500D01*
X168055247Y-55159500D01*
X167996770Y-55171131D01*
X167996769Y-55171132D01*
X167958891Y-55196442D01*
X167892213Y-55217320D01*
X167824833Y-55198835D01*
X167821109Y-55196442D01*
X167783230Y-55171132D01*
X167783229Y-55171131D01*
X167724752Y-55159500D01*
X167724748Y-55159500D01*
X166785252Y-55159500D01*
X166785247Y-55159500D01*
X166726770Y-55171131D01*
X166726769Y-55171132D01*
X166688891Y-55196442D01*
X166622213Y-55217320D01*
X166554833Y-55198835D01*
X166551109Y-55196442D01*
X166513230Y-55171132D01*
X166513229Y-55171131D01*
X166454752Y-55159500D01*
X166454748Y-55159500D01*
X165515252Y-55159500D01*
X165515247Y-55159500D01*
X165456770Y-55171131D01*
X165456769Y-55171132D01*
X165418891Y-55196442D01*
X165352213Y-55217320D01*
X165284833Y-55198835D01*
X165281109Y-55196442D01*
X165243230Y-55171132D01*
X165243229Y-55171131D01*
X165184752Y-55159500D01*
X165184748Y-55159500D01*
X164245252Y-55159500D01*
X164245247Y-55159500D01*
X164186770Y-55171131D01*
X164186769Y-55171132D01*
X164148891Y-55196442D01*
X164082213Y-55217320D01*
X164014833Y-55198835D01*
X164011109Y-55196442D01*
X163973230Y-55171132D01*
X163973229Y-55171131D01*
X163914752Y-55159500D01*
X163914748Y-55159500D01*
X162975252Y-55159500D01*
X162975247Y-55159500D01*
X162916770Y-55171131D01*
X162916769Y-55171132D01*
X162878891Y-55196442D01*
X162812213Y-55217320D01*
X162744833Y-55198835D01*
X162741109Y-55196442D01*
X162703230Y-55171132D01*
X162703229Y-55171131D01*
X162644752Y-55159500D01*
X162644748Y-55159500D01*
X161705252Y-55159500D01*
X161705247Y-55159500D01*
X161646770Y-55171131D01*
X161646769Y-55171132D01*
X161608891Y-55196442D01*
X161542213Y-55217320D01*
X161474833Y-55198835D01*
X161471109Y-55196442D01*
X161433230Y-55171132D01*
X161433229Y-55171131D01*
X161374752Y-55159500D01*
X161374748Y-55159500D01*
X160435252Y-55159500D01*
X160435247Y-55159500D01*
X160376770Y-55171131D01*
X160365487Y-55175806D01*
X160364201Y-55172701D01*
X160316738Y-55187554D01*
X160249362Y-55169056D01*
X160245658Y-55166676D01*
X160182543Y-55124504D01*
X160182540Y-55124503D01*
X160109627Y-55110000D01*
X159785000Y-55110000D01*
X159785000Y-57110000D01*
X160109626Y-57110000D01*
X160109628Y-57109999D01*
X160182540Y-57095496D01*
X160182544Y-57095495D01*
X160245657Y-57053324D01*
X160312334Y-57032446D01*
X160364433Y-57046738D01*
X160365487Y-57044194D01*
X160376770Y-57048868D01*
X160435247Y-57060499D01*
X160435250Y-57060500D01*
X160435252Y-57060500D01*
X161374750Y-57060500D01*
X161374751Y-57060499D01*
X161389568Y-57057552D01*
X161433229Y-57048868D01*
X161433231Y-57048867D01*
X161471108Y-57023558D01*
X161537785Y-57002679D01*
X161605165Y-57021163D01*
X161608892Y-57023558D01*
X161646768Y-57048867D01*
X161646770Y-57048868D01*
X161705247Y-57060499D01*
X161705250Y-57060500D01*
X161705252Y-57060500D01*
X162644750Y-57060500D01*
X162644751Y-57060499D01*
X162659568Y-57057552D01*
X162703229Y-57048868D01*
X162703231Y-57048867D01*
X162741108Y-57023558D01*
X162807785Y-57002679D01*
X162875165Y-57021163D01*
X162878892Y-57023558D01*
X162916768Y-57048867D01*
X162916770Y-57048868D01*
X162975247Y-57060499D01*
X162975250Y-57060500D01*
X162975252Y-57060500D01*
X163914750Y-57060500D01*
X163914751Y-57060499D01*
X163929568Y-57057552D01*
X163973229Y-57048868D01*
X163973231Y-57048867D01*
X164011108Y-57023558D01*
X164077785Y-57002679D01*
X164145165Y-57021163D01*
X164148892Y-57023558D01*
X164186768Y-57048867D01*
X164186770Y-57048868D01*
X164245247Y-57060499D01*
X164245250Y-57060500D01*
X164245252Y-57060500D01*
X165184750Y-57060500D01*
X165184751Y-57060499D01*
X165199568Y-57057552D01*
X165243229Y-57048868D01*
X165243231Y-57048867D01*
X165281108Y-57023558D01*
X165347785Y-57002679D01*
X165415165Y-57021163D01*
X165418892Y-57023558D01*
X165456768Y-57048867D01*
X165456770Y-57048868D01*
X165515247Y-57060499D01*
X165515250Y-57060500D01*
X165515252Y-57060500D01*
X166454750Y-57060500D01*
X166454751Y-57060499D01*
X166469568Y-57057552D01*
X166513229Y-57048868D01*
X166513231Y-57048867D01*
X166551108Y-57023558D01*
X166617785Y-57002679D01*
X166685165Y-57021163D01*
X166688892Y-57023558D01*
X166726768Y-57048867D01*
X166726770Y-57048868D01*
X166785247Y-57060499D01*
X166785250Y-57060500D01*
X166785252Y-57060500D01*
X167724750Y-57060500D01*
X167724751Y-57060499D01*
X167739568Y-57057552D01*
X167783229Y-57048868D01*
X167783231Y-57048867D01*
X167821108Y-57023558D01*
X167887785Y-57002679D01*
X167955165Y-57021163D01*
X167958892Y-57023558D01*
X167996768Y-57048867D01*
X167996770Y-57048868D01*
X168055247Y-57060499D01*
X168055250Y-57060500D01*
X168055252Y-57060500D01*
X168994750Y-57060500D01*
X168994751Y-57060499D01*
X169009568Y-57057552D01*
X169053229Y-57048868D01*
X169053231Y-57048867D01*
X169091108Y-57023558D01*
X169157785Y-57002679D01*
X169225165Y-57021163D01*
X169228892Y-57023558D01*
X169266768Y-57048867D01*
X169266770Y-57048868D01*
X169325247Y-57060499D01*
X169325250Y-57060500D01*
X169325252Y-57060500D01*
X170264750Y-57060500D01*
X170264751Y-57060499D01*
X170279568Y-57057552D01*
X170323229Y-57048868D01*
X170323231Y-57048867D01*
X170361108Y-57023558D01*
X170427785Y-57002679D01*
X170495165Y-57021163D01*
X170498892Y-57023558D01*
X170536768Y-57048867D01*
X170536770Y-57048868D01*
X170595247Y-57060499D01*
X170595250Y-57060500D01*
X170595252Y-57060500D01*
X171534750Y-57060500D01*
X171534751Y-57060499D01*
X171549568Y-57057552D01*
X171593229Y-57048868D01*
X171593229Y-57048867D01*
X171593231Y-57048867D01*
X171659552Y-57004552D01*
X171703867Y-56938231D01*
X171703867Y-56938229D01*
X171703868Y-56938229D01*
X171715499Y-56879752D01*
X171715500Y-56879750D01*
X171715500Y-55340249D01*
X171715499Y-55340247D01*
X171703868Y-55281770D01*
X171703867Y-55281769D01*
X171659552Y-55215448D01*
X171630608Y-55196108D01*
X171585804Y-55142495D01*
X171575500Y-55093006D01*
X171575500Y-54984110D01*
X171575500Y-54984108D01*
X171541392Y-54856814D01*
X171475500Y-54742686D01*
X171382314Y-54649500D01*
X171320097Y-54613579D01*
X171268187Y-54583608D01*
X171237926Y-54575500D01*
X171218424Y-54570274D01*
X171158764Y-54533910D01*
X171128235Y-54471063D01*
X171136530Y-54401688D01*
X171181015Y-54347810D01*
X171247567Y-54326535D01*
X171250518Y-54326500D01*
X176575224Y-54326500D01*
X176604664Y-54335144D01*
X176634651Y-54341668D01*
X176639666Y-54345422D01*
X176642263Y-54346185D01*
X176662905Y-54362819D01*
X176688181Y-54388095D01*
X176721666Y-54449418D01*
X176724500Y-54475776D01*
X176724500Y-54515892D01*
X176740472Y-54575500D01*
X176758608Y-54643187D01*
X176786407Y-54691336D01*
X176824500Y-54757314D01*
X176917686Y-54850500D01*
X177031814Y-54916392D01*
X177159108Y-54950500D01*
X177159110Y-54950500D01*
X177290890Y-54950500D01*
X177290892Y-54950500D01*
X177418186Y-54916392D01*
X177532314Y-54850500D01*
X177625500Y-54757314D01*
X177643113Y-54726806D01*
X177693679Y-54678592D01*
X177762286Y-54665368D01*
X177827151Y-54691336D01*
X177867680Y-54748250D01*
X177874500Y-54788807D01*
X177874500Y-56857745D01*
X177854815Y-56924784D01*
X177838181Y-56945426D01*
X177796954Y-56986652D01*
X177796951Y-56986657D01*
X177739352Y-57099698D01*
X177724500Y-57193475D01*
X177724500Y-57806520D01*
X177724649Y-57807456D01*
X177724602Y-57807814D01*
X177724883Y-57811380D01*
X177724133Y-57811438D01*
X177715686Y-57876748D01*
X177670684Y-57930195D01*
X177603930Y-57950828D01*
X177536618Y-57932095D01*
X177514492Y-57914521D01*
X177311818Y-57711847D01*
X177278333Y-57650524D01*
X177275499Y-57624166D01*
X177275499Y-57193482D01*
X177273935Y-57183608D01*
X177260646Y-57099696D01*
X177203050Y-56986658D01*
X177203046Y-56986654D01*
X177203045Y-56986652D01*
X177113347Y-56896954D01*
X177113344Y-56896952D01*
X177113342Y-56896950D01*
X177036398Y-56857745D01*
X177000301Y-56839352D01*
X176906524Y-56824500D01*
X176443482Y-56824500D01*
X176362519Y-56837323D01*
X176349696Y-56839354D01*
X176236658Y-56896950D01*
X176236657Y-56896951D01*
X176236652Y-56896954D01*
X176146954Y-56986652D01*
X176146951Y-56986657D01*
X176089352Y-57099698D01*
X176086337Y-57108980D01*
X176083825Y-57108163D01*
X176060180Y-57158037D01*
X176000866Y-57194966D01*
X175967640Y-57199500D01*
X175174500Y-57199500D01*
X175107461Y-57179815D01*
X175061706Y-57127011D01*
X175050500Y-57075500D01*
X175050500Y-56890249D01*
X175050499Y-56890247D01*
X175038868Y-56831770D01*
X175038867Y-56831769D01*
X174994552Y-56765447D01*
X174928230Y-56721132D01*
X174928229Y-56721131D01*
X174869752Y-56709500D01*
X174869748Y-56709500D01*
X173330252Y-56709500D01*
X173330247Y-56709500D01*
X173271770Y-56721131D01*
X173271769Y-56721132D01*
X173205447Y-56765447D01*
X173161132Y-56831769D01*
X173161131Y-56831770D01*
X173149500Y-56890247D01*
X173149500Y-57829752D01*
X173161131Y-57888229D01*
X173161132Y-57888230D01*
X173186442Y-57926109D01*
X173207320Y-57992787D01*
X173188835Y-58060167D01*
X173186442Y-58063891D01*
X173161132Y-58101769D01*
X173161131Y-58101770D01*
X173149500Y-58160247D01*
X173149500Y-59099752D01*
X173161131Y-59158229D01*
X173161132Y-59158230D01*
X173186442Y-59196109D01*
X173207320Y-59262787D01*
X173188835Y-59330167D01*
X173186442Y-59333891D01*
X173161132Y-59371769D01*
X173161131Y-59371770D01*
X173149500Y-59430247D01*
X173149500Y-60369752D01*
X173161131Y-60428229D01*
X173161132Y-60428230D01*
X173186442Y-60466109D01*
X173207320Y-60532787D01*
X173188835Y-60600167D01*
X173186442Y-60603891D01*
X173161132Y-60641769D01*
X173161131Y-60641770D01*
X173149500Y-60700247D01*
X173149500Y-61639752D01*
X173161131Y-61698229D01*
X173161132Y-61698230D01*
X173186442Y-61736109D01*
X173207320Y-61802787D01*
X173188835Y-61870167D01*
X173186442Y-61873891D01*
X173161132Y-61911769D01*
X173161131Y-61911770D01*
X173149500Y-61970247D01*
X173149500Y-62909752D01*
X173161131Y-62968229D01*
X173161132Y-62968230D01*
X173186442Y-63006109D01*
X173207320Y-63072787D01*
X173188835Y-63140167D01*
X173186442Y-63143891D01*
X173161132Y-63181769D01*
X173161131Y-63181770D01*
X173149500Y-63240247D01*
X173149500Y-64179752D01*
X173161131Y-64238229D01*
X173161132Y-64238230D01*
X173186442Y-64276109D01*
X173207320Y-64342787D01*
X173188835Y-64410167D01*
X173186442Y-64413891D01*
X173161132Y-64451769D01*
X173161131Y-64451770D01*
X173149500Y-64510247D01*
X173149500Y-65449752D01*
X173161131Y-65508229D01*
X173161132Y-65508230D01*
X173186442Y-65546109D01*
X173207320Y-65612787D01*
X173188835Y-65680167D01*
X173186442Y-65683891D01*
X173161132Y-65721769D01*
X173161131Y-65721770D01*
X173149500Y-65780247D01*
X173149500Y-66719752D01*
X173161131Y-66778229D01*
X173161132Y-66778230D01*
X173186442Y-66816109D01*
X173207320Y-66882787D01*
X173188835Y-66950167D01*
X173186442Y-66953891D01*
X173161132Y-66991769D01*
X173161131Y-66991770D01*
X173149500Y-67050247D01*
X173149500Y-67989752D01*
X173161131Y-68048229D01*
X173161132Y-68048230D01*
X173186442Y-68086109D01*
X173207320Y-68152787D01*
X173188835Y-68220167D01*
X173186442Y-68223891D01*
X173161132Y-68261769D01*
X173161131Y-68261770D01*
X173149500Y-68320247D01*
X173149500Y-69259752D01*
X173161131Y-69318229D01*
X173161132Y-69318230D01*
X173186442Y-69356109D01*
X173207320Y-69422787D01*
X173188835Y-69490167D01*
X173186442Y-69493891D01*
X173161132Y-69531769D01*
X173161131Y-69531770D01*
X173149500Y-69590247D01*
X173149500Y-70529752D01*
X173161131Y-70588229D01*
X173161132Y-70588230D01*
X173186442Y-70626109D01*
X173207320Y-70692787D01*
X173188835Y-70760167D01*
X173186442Y-70763891D01*
X173161132Y-70801769D01*
X173161131Y-70801770D01*
X173149500Y-70860247D01*
X173149500Y-71799752D01*
X173161131Y-71858229D01*
X173161132Y-71858230D01*
X173186442Y-71896109D01*
X173207320Y-71962787D01*
X173188835Y-72030167D01*
X173186442Y-72033891D01*
X173161132Y-72071769D01*
X173161131Y-72071770D01*
X173149500Y-72130247D01*
X173149500Y-73069752D01*
X173161131Y-73128229D01*
X173165806Y-73139513D01*
X173162700Y-73140799D01*
X173177553Y-73188244D01*
X173159065Y-73255623D01*
X173156676Y-73259341D01*
X173114504Y-73322456D01*
X173114503Y-73322459D01*
X173100000Y-73395371D01*
X173100000Y-73720000D01*
X175100000Y-73720000D01*
X175100000Y-73395373D01*
X175099999Y-73395371D01*
X175085496Y-73322459D01*
X175085494Y-73322455D01*
X175043324Y-73259342D01*
X175022446Y-73192664D01*
X175036738Y-73140566D01*
X175034194Y-73139513D01*
X175038868Y-73128229D01*
X175050499Y-73069752D01*
X175050500Y-73069750D01*
X175050500Y-72130249D01*
X175050499Y-72130247D01*
X175038868Y-72071770D01*
X175038867Y-72071768D01*
X175013558Y-72033892D01*
X174992679Y-71967215D01*
X175011163Y-71899835D01*
X175013558Y-71896108D01*
X175038867Y-71858231D01*
X175038868Y-71858229D01*
X175050499Y-71799752D01*
X175050500Y-71799750D01*
X175050500Y-70860249D01*
X175050499Y-70860247D01*
X175038868Y-70801770D01*
X175038867Y-70801768D01*
X175013558Y-70763892D01*
X174992679Y-70697215D01*
X175011163Y-70629835D01*
X175013558Y-70626108D01*
X175038867Y-70588231D01*
X175038868Y-70588229D01*
X175050499Y-70529752D01*
X175050500Y-70529750D01*
X175050500Y-69590249D01*
X175050499Y-69590247D01*
X175038868Y-69531770D01*
X175038867Y-69531768D01*
X175013558Y-69493892D01*
X174992679Y-69427215D01*
X175011163Y-69359835D01*
X175013558Y-69356108D01*
X175038867Y-69318231D01*
X175038868Y-69318229D01*
X175050499Y-69259752D01*
X175050500Y-69259750D01*
X175050500Y-68320249D01*
X175050499Y-68320247D01*
X175038868Y-68261770D01*
X175038867Y-68261768D01*
X175013558Y-68223892D01*
X174992679Y-68157215D01*
X175011163Y-68089835D01*
X175013558Y-68086108D01*
X175038867Y-68048231D01*
X175038868Y-68048229D01*
X175050499Y-67989752D01*
X175050500Y-67989750D01*
X175050500Y-67050249D01*
X175050499Y-67050247D01*
X175038868Y-66991770D01*
X175038867Y-66991768D01*
X175013558Y-66953892D01*
X174992679Y-66887215D01*
X175011163Y-66819835D01*
X175013558Y-66816108D01*
X175038867Y-66778231D01*
X175038868Y-66778229D01*
X175050499Y-66719752D01*
X175050500Y-66719750D01*
X175050500Y-65780249D01*
X175050499Y-65780247D01*
X175038868Y-65721770D01*
X175038867Y-65721768D01*
X175013558Y-65683892D01*
X174992679Y-65617215D01*
X175011163Y-65549835D01*
X175013558Y-65546108D01*
X175038867Y-65508231D01*
X175038868Y-65508229D01*
X175050499Y-65449752D01*
X175050500Y-65449750D01*
X175050500Y-64510249D01*
X175050499Y-64510247D01*
X175038868Y-64451770D01*
X175038867Y-64451768D01*
X175013558Y-64413892D01*
X174992679Y-64347215D01*
X175011163Y-64279835D01*
X175013558Y-64276108D01*
X175038867Y-64238231D01*
X175038868Y-64238229D01*
X175050499Y-64179752D01*
X175050500Y-64179750D01*
X175050500Y-63240249D01*
X175050499Y-63240247D01*
X175038868Y-63181770D01*
X175038867Y-63181768D01*
X175013558Y-63143892D01*
X174992679Y-63077215D01*
X175011163Y-63009835D01*
X175013558Y-63006108D01*
X175038867Y-62968231D01*
X175038868Y-62968229D01*
X175050499Y-62909752D01*
X175050500Y-62909750D01*
X175050500Y-61970249D01*
X175050499Y-61970247D01*
X175038868Y-61911770D01*
X175038867Y-61911768D01*
X175013558Y-61873892D01*
X174992679Y-61807215D01*
X174997091Y-61772145D01*
X175002408Y-61752794D01*
X175038867Y-61698231D01*
X175050500Y-61639748D01*
X175050500Y-61577774D01*
X175054932Y-61561645D01*
X175064864Y-61545580D01*
X175070185Y-61527461D01*
X175082855Y-61516482D01*
X175091675Y-61502217D01*
X175108718Y-61494071D01*
X175122989Y-61481706D01*
X175144287Y-61477072D01*
X175154715Y-61472089D01*
X175162617Y-61473084D01*
X175174500Y-61470500D01*
X176194167Y-61470500D01*
X176261206Y-61490185D01*
X176281848Y-61506819D01*
X176363600Y-61588571D01*
X176397085Y-61649894D01*
X176392101Y-61719586D01*
X176350229Y-61775519D01*
X176337920Y-61783638D01*
X176268427Y-61823760D01*
X176268418Y-61823767D01*
X176175237Y-61916948D01*
X176175235Y-61916951D01*
X176109343Y-62031077D01*
X176084311Y-62124500D01*
X176075235Y-62158373D01*
X176075235Y-62290157D01*
X176084348Y-62324167D01*
X176109343Y-62417452D01*
X176120361Y-62436535D01*
X176175235Y-62531579D01*
X176175237Y-62531581D01*
X176263181Y-62619525D01*
X176277884Y-62646452D01*
X176294477Y-62672271D01*
X176295368Y-62678471D01*
X176296666Y-62680848D01*
X176299500Y-62707206D01*
X176299500Y-62730399D01*
X176279815Y-62797438D01*
X176227011Y-62843193D01*
X176157853Y-62853137D01*
X176143414Y-62850176D01*
X176140892Y-62849500D01*
X176009108Y-62849500D01*
X175881812Y-62883608D01*
X175767686Y-62949500D01*
X175767683Y-62949502D01*
X175674502Y-63042683D01*
X175674500Y-63042686D01*
X175608608Y-63156812D01*
X175576245Y-63277596D01*
X175574500Y-63284108D01*
X175574500Y-63415892D01*
X175581199Y-63440892D01*
X175608608Y-63543187D01*
X175623042Y-63568187D01*
X175674500Y-63657314D01*
X175767686Y-63750500D01*
X175881814Y-63816392D01*
X176009108Y-63850500D01*
X176009119Y-63850500D01*
X176015071Y-63851284D01*
X176035979Y-63860532D01*
X176058318Y-63865392D01*
X176074713Y-63877665D01*
X176078969Y-63879548D01*
X176086572Y-63886543D01*
X176263181Y-64063152D01*
X176296666Y-64124475D01*
X176299500Y-64150833D01*
X176299500Y-72389562D01*
X176308300Y-72422402D01*
X176319979Y-72465990D01*
X176319982Y-72465995D01*
X176359535Y-72534504D01*
X176359539Y-72534509D01*
X176359540Y-72534511D01*
X176985489Y-73160460D01*
X177054012Y-73200022D01*
X177130438Y-73220500D01*
X178429564Y-73220500D01*
X178496603Y-73240185D01*
X178542358Y-73292989D01*
X178544125Y-73297047D01*
X178594058Y-73417596D01*
X178709024Y-73589657D01*
X178855342Y-73735975D01*
X178855345Y-73735977D01*
X179027402Y-73850941D01*
X179218580Y-73930130D01*
X179421530Y-73970499D01*
X179421534Y-73970500D01*
X179421535Y-73970500D01*
X179628466Y-73970500D01*
X179628467Y-73970499D01*
X179831420Y-73930130D01*
X180022598Y-73850941D01*
X180194655Y-73735977D01*
X180340977Y-73589655D01*
X180455941Y-73417598D01*
X180535130Y-73226420D01*
X180575500Y-73023465D01*
X180575500Y-72816535D01*
X180535130Y-72613580D01*
X180455941Y-72422402D01*
X180340977Y-72250345D01*
X180340975Y-72250342D01*
X180194657Y-72104024D01*
X180047126Y-72005448D01*
X180022598Y-71989059D01*
X179995805Y-71977961D01*
X179831420Y-71909870D01*
X179831412Y-71909868D01*
X179628469Y-71869500D01*
X179628465Y-71869500D01*
X179421535Y-71869500D01*
X179421530Y-71869500D01*
X179218587Y-71909868D01*
X179218579Y-71909870D01*
X179027403Y-71989058D01*
X178855342Y-72104024D01*
X178709024Y-72250342D01*
X178594058Y-72422403D01*
X178544125Y-72542953D01*
X178500284Y-72597356D01*
X178433990Y-72619421D01*
X178429564Y-72619500D01*
X177345833Y-72619500D01*
X177278794Y-72599815D01*
X177258152Y-72583181D01*
X176936819Y-72261848D01*
X176903334Y-72200525D01*
X176900500Y-72174167D01*
X176900500Y-70374833D01*
X176920185Y-70307794D01*
X176972989Y-70262039D01*
X177042147Y-70252095D01*
X177105703Y-70281120D01*
X177112181Y-70287152D01*
X177389540Y-70564511D01*
X177445489Y-70620460D01*
X177445491Y-70620461D01*
X177445495Y-70620464D01*
X177504538Y-70654552D01*
X177514011Y-70660021D01*
X177590438Y-70680500D01*
X177669562Y-70680500D01*
X178429564Y-70680500D01*
X178496603Y-70700185D01*
X178542358Y-70752989D01*
X178544125Y-70757047D01*
X178593201Y-70875528D01*
X178594059Y-70877598D01*
X178614779Y-70908608D01*
X178709024Y-71049657D01*
X178855342Y-71195975D01*
X178855345Y-71195977D01*
X179027402Y-71310941D01*
X179218580Y-71390130D01*
X179421530Y-71430499D01*
X179421534Y-71430500D01*
X179421535Y-71430500D01*
X179628466Y-71430500D01*
X179628467Y-71430499D01*
X179831420Y-71390130D01*
X180022598Y-71310941D01*
X180194655Y-71195977D01*
X180340977Y-71049655D01*
X180455941Y-70877598D01*
X180535130Y-70686420D01*
X180575500Y-70483465D01*
X180575500Y-70276535D01*
X180535130Y-70073580D01*
X180455941Y-69882402D01*
X180340977Y-69710345D01*
X180340975Y-69710342D01*
X180194657Y-69564024D01*
X180034201Y-69456812D01*
X180022598Y-69449059D01*
X180021574Y-69448635D01*
X179831420Y-69369870D01*
X179831412Y-69369868D01*
X179628469Y-69329500D01*
X179628465Y-69329500D01*
X179421535Y-69329500D01*
X179421530Y-69329500D01*
X179218587Y-69369868D01*
X179218579Y-69369870D01*
X179027403Y-69449058D01*
X178855342Y-69564024D01*
X178709024Y-69710342D01*
X178594058Y-69882403D01*
X178544125Y-70002953D01*
X178500284Y-70057356D01*
X178433990Y-70079421D01*
X178429564Y-70079500D01*
X177805833Y-70079500D01*
X177738794Y-70059815D01*
X177718152Y-70043181D01*
X177536819Y-69861848D01*
X177503334Y-69800525D01*
X177500500Y-69774167D01*
X177500500Y-67753428D01*
X178425000Y-67753428D01*
X178425000Y-67926571D01*
X178452085Y-68097584D01*
X178505591Y-68262257D01*
X178584198Y-68416528D01*
X178648219Y-68504646D01*
X178648220Y-68504647D01*
X179081329Y-68071538D01*
X179124901Y-68147007D01*
X179217993Y-68240099D01*
X179293460Y-68283670D01*
X178860351Y-68716778D01*
X178860352Y-68716780D01*
X178948471Y-68780801D01*
X179102742Y-68859408D01*
X179267415Y-68912914D01*
X179438429Y-68940000D01*
X179611571Y-68940000D01*
X179782584Y-68912914D01*
X179947257Y-68859408D01*
X180101525Y-68780803D01*
X180189646Y-68716778D01*
X180189647Y-68716778D01*
X179756539Y-68283670D01*
X179832007Y-68240099D01*
X179925099Y-68147007D01*
X179968670Y-68071539D01*
X180401778Y-68504647D01*
X180401778Y-68504646D01*
X180465803Y-68416525D01*
X180544408Y-68262257D01*
X180597914Y-68097584D01*
X180625000Y-67926571D01*
X180625000Y-67753428D01*
X180597914Y-67582415D01*
X180544408Y-67417742D01*
X180465801Y-67263471D01*
X180401780Y-67175352D01*
X180401778Y-67175351D01*
X179968670Y-67608460D01*
X179925099Y-67532993D01*
X179832007Y-67439901D01*
X179756538Y-67396329D01*
X180189647Y-66963220D01*
X180189646Y-66963219D01*
X180101528Y-66899198D01*
X179947257Y-66820591D01*
X179782584Y-66767085D01*
X179611571Y-66740000D01*
X179438429Y-66740000D01*
X179267415Y-66767085D01*
X179102742Y-66820591D01*
X178948478Y-66899194D01*
X178860352Y-66963220D01*
X179293461Y-67396329D01*
X179217993Y-67439901D01*
X179124901Y-67532993D01*
X179081329Y-67608461D01*
X178648220Y-67175352D01*
X178584194Y-67263478D01*
X178505591Y-67417742D01*
X178452085Y-67582415D01*
X178425000Y-67753428D01*
X177500500Y-67753428D01*
X177500500Y-63922617D01*
X177520185Y-63855578D01*
X177572989Y-63809823D01*
X177642147Y-63799879D01*
X177686499Y-63815229D01*
X177731814Y-63841392D01*
X177859108Y-63875500D01*
X177859110Y-63875500D01*
X177990890Y-63875500D01*
X177990892Y-63875500D01*
X178118186Y-63841392D01*
X178232314Y-63775500D01*
X178320995Y-63686819D01*
X178347922Y-63672115D01*
X178373741Y-63655523D01*
X178379941Y-63654631D01*
X178382318Y-63653334D01*
X178408676Y-63650500D01*
X178541324Y-63650500D01*
X178608363Y-63670185D01*
X178629005Y-63686819D01*
X178692686Y-63750500D01*
X178806814Y-63816392D01*
X178934108Y-63850500D01*
X178934110Y-63850500D01*
X179065890Y-63850500D01*
X179065892Y-63850500D01*
X179193186Y-63816392D01*
X179307314Y-63750500D01*
X179312819Y-63744995D01*
X179374142Y-63711510D01*
X179443834Y-63716494D01*
X179499767Y-63758366D01*
X179524184Y-63823830D01*
X179524500Y-63832676D01*
X179524500Y-64125500D01*
X179504815Y-64192539D01*
X179452011Y-64238294D01*
X179400500Y-64249500D01*
X178655247Y-64249500D01*
X178596770Y-64261131D01*
X178596769Y-64261132D01*
X178530447Y-64305447D01*
X178486132Y-64371769D01*
X178486131Y-64371770D01*
X178474500Y-64430247D01*
X178474500Y-66169752D01*
X178486131Y-66228229D01*
X178486132Y-66228230D01*
X178530447Y-66294552D01*
X178596769Y-66338867D01*
X178596770Y-66338868D01*
X178655247Y-66350499D01*
X178655250Y-66350500D01*
X178655252Y-66350500D01*
X180394750Y-66350500D01*
X180394751Y-66350499D01*
X180409568Y-66347552D01*
X180453229Y-66338868D01*
X180453229Y-66338867D01*
X180453231Y-66338867D01*
X180519552Y-66294552D01*
X180563867Y-66228231D01*
X180563867Y-66228229D01*
X180563868Y-66228229D01*
X180575499Y-66169752D01*
X180575500Y-66169750D01*
X180575500Y-64430249D01*
X180575499Y-64430247D01*
X180563868Y-64371770D01*
X180563867Y-64371769D01*
X180519551Y-64305446D01*
X180480608Y-64279425D01*
X180435804Y-64225813D01*
X180425500Y-64176324D01*
X180425500Y-63854315D01*
X180445185Y-63787276D01*
X180497989Y-63741521D01*
X180567147Y-63731577D01*
X180611501Y-63746928D01*
X180617683Y-63750497D01*
X180617686Y-63750500D01*
X180731814Y-63816392D01*
X180859108Y-63850500D01*
X180859110Y-63850500D01*
X180990890Y-63850500D01*
X180990892Y-63850500D01*
X181118186Y-63816392D01*
X181232314Y-63750500D01*
X181245995Y-63736819D01*
X181272922Y-63722115D01*
X181298741Y-63705523D01*
X181304941Y-63704631D01*
X181307318Y-63703334D01*
X181333676Y-63700500D01*
X181567324Y-63700500D01*
X181634363Y-63720185D01*
X181680118Y-63772989D01*
X181690062Y-63842147D01*
X181661037Y-63905703D01*
X181655005Y-63912181D01*
X181624502Y-63942683D01*
X181624500Y-63942686D01*
X181558608Y-64056812D01*
X181526586Y-64176324D01*
X181524500Y-64184108D01*
X181524500Y-64315892D01*
X181540472Y-64375500D01*
X181558608Y-64443187D01*
X181591554Y-64500250D01*
X181624500Y-64557314D01*
X181717686Y-64650500D01*
X181831814Y-64716392D01*
X181959108Y-64750500D01*
X181959110Y-64750500D01*
X182049167Y-64750500D01*
X182116206Y-64770185D01*
X182136848Y-64786819D01*
X182509540Y-65159511D01*
X182565489Y-65215460D01*
X182587499Y-65228167D01*
X182635715Y-65278734D01*
X182649500Y-65335555D01*
X182649500Y-65769752D01*
X182661131Y-65828229D01*
X182661132Y-65828230D01*
X182705447Y-65894552D01*
X182771769Y-65938867D01*
X182771770Y-65938868D01*
X182830247Y-65950499D01*
X182830250Y-65950500D01*
X182830252Y-65950500D01*
X183075500Y-65950500D01*
X183142539Y-65970185D01*
X183188294Y-66022989D01*
X183199500Y-66074500D01*
X183199500Y-71825500D01*
X183179815Y-71892539D01*
X183127011Y-71938294D01*
X183075500Y-71949500D01*
X182830247Y-71949500D01*
X182771770Y-71961131D01*
X182771769Y-71961132D01*
X182705447Y-72005447D01*
X182661132Y-72071769D01*
X182661131Y-72071770D01*
X182649500Y-72130247D01*
X182649500Y-73719752D01*
X182661131Y-73778229D01*
X182661132Y-73778230D01*
X182705447Y-73844552D01*
X182771769Y-73888867D01*
X182771770Y-73888868D01*
X182830247Y-73900499D01*
X182830250Y-73900500D01*
X182830252Y-73900500D01*
X184169750Y-73900500D01*
X184169751Y-73900499D01*
X184184568Y-73897552D01*
X184228229Y-73888868D01*
X184228229Y-73888867D01*
X184228231Y-73888867D01*
X184294552Y-73844552D01*
X184338867Y-73778231D01*
X184338867Y-73778229D01*
X184338868Y-73778229D01*
X184349529Y-73724628D01*
X187100000Y-73724628D01*
X187114503Y-73797540D01*
X187114505Y-73797544D01*
X187169760Y-73880239D01*
X187252455Y-73935494D01*
X187252459Y-73935496D01*
X187325371Y-73949999D01*
X187325374Y-73950000D01*
X187850000Y-73950000D01*
X188150000Y-73950000D01*
X188674626Y-73950000D01*
X188674628Y-73949999D01*
X188747540Y-73935496D01*
X188747544Y-73935494D01*
X188830239Y-73880239D01*
X188885494Y-73797544D01*
X188885496Y-73797540D01*
X188899999Y-73724628D01*
X188900000Y-73724626D01*
X188900000Y-73075000D01*
X188150000Y-73075000D01*
X188150000Y-73950000D01*
X187850000Y-73950000D01*
X187850000Y-73075000D01*
X187100000Y-73075000D01*
X187100000Y-73724628D01*
X184349529Y-73724628D01*
X184350499Y-73719752D01*
X184350500Y-73719750D01*
X184350500Y-72130251D01*
X184350499Y-72130245D01*
X184349530Y-72125371D01*
X187100000Y-72125371D01*
X187100000Y-72775000D01*
X187850000Y-72775000D01*
X188150000Y-72775000D01*
X188900000Y-72775000D01*
X188900000Y-72143713D01*
X192874500Y-72143713D01*
X192874500Y-72356287D01*
X192907754Y-72566243D01*
X192934968Y-72650000D01*
X192973444Y-72768414D01*
X193069951Y-72957820D01*
X193194890Y-73129786D01*
X193345213Y-73280109D01*
X193517179Y-73405048D01*
X193517181Y-73405049D01*
X193517184Y-73405051D01*
X193706588Y-73501557D01*
X193908757Y-73567246D01*
X194118713Y-73600500D01*
X194118714Y-73600500D01*
X194331286Y-73600500D01*
X194331287Y-73600500D01*
X194541243Y-73567246D01*
X194743412Y-73501557D01*
X194932816Y-73405051D01*
X195046495Y-73322459D01*
X195104786Y-73280109D01*
X195104788Y-73280106D01*
X195104792Y-73280104D01*
X195255104Y-73129792D01*
X195255106Y-73129788D01*
X195255109Y-73129786D01*
X195380048Y-72957820D01*
X195380047Y-72957820D01*
X195380051Y-72957816D01*
X195476557Y-72768412D01*
X195542246Y-72566243D01*
X195575500Y-72356287D01*
X195575500Y-72143713D01*
X195542246Y-71933757D01*
X195476557Y-71731588D01*
X195380051Y-71542184D01*
X195380049Y-71542181D01*
X195380048Y-71542179D01*
X195255109Y-71370213D01*
X195104786Y-71219890D01*
X194932820Y-71094951D01*
X194743414Y-70998444D01*
X194743413Y-70998443D01*
X194743412Y-70998443D01*
X194541243Y-70932754D01*
X194541241Y-70932753D01*
X194541240Y-70932753D01*
X194379957Y-70907208D01*
X194331287Y-70899500D01*
X194118713Y-70899500D01*
X194070042Y-70907208D01*
X193908760Y-70932753D01*
X193706585Y-70998444D01*
X193517179Y-71094951D01*
X193345213Y-71219890D01*
X193194890Y-71370213D01*
X193069951Y-71542179D01*
X192973444Y-71731585D01*
X192907753Y-71933760D01*
X192876632Y-72130251D01*
X192874500Y-72143713D01*
X188900000Y-72143713D01*
X188900000Y-72125373D01*
X188899999Y-72125371D01*
X188885496Y-72052459D01*
X188885494Y-72052455D01*
X188830239Y-71969760D01*
X188747544Y-71914505D01*
X188747540Y-71914503D01*
X188674627Y-71900000D01*
X188150000Y-71900000D01*
X188150000Y-72775000D01*
X187850000Y-72775000D01*
X187850000Y-71900000D01*
X187325373Y-71900000D01*
X187252459Y-71914503D01*
X187252455Y-71914505D01*
X187169760Y-71969760D01*
X187114505Y-72052455D01*
X187114503Y-72052459D01*
X187100000Y-72125371D01*
X184349530Y-72125371D01*
X184338868Y-72071770D01*
X184338867Y-72071769D01*
X184294552Y-72005447D01*
X184228230Y-71961132D01*
X184228229Y-71961131D01*
X184169752Y-71949500D01*
X184169748Y-71949500D01*
X183924500Y-71949500D01*
X183857461Y-71929815D01*
X183811706Y-71877011D01*
X183800500Y-71825500D01*
X183800500Y-69509108D01*
X184399500Y-69509108D01*
X184399500Y-69640891D01*
X184433608Y-69768187D01*
X184460902Y-69815460D01*
X184499500Y-69882314D01*
X184592686Y-69975500D01*
X184677558Y-70024501D01*
X184703280Y-70039352D01*
X184706814Y-70041392D01*
X184834108Y-70075500D01*
X184834110Y-70075500D01*
X184965890Y-70075500D01*
X184965892Y-70075500D01*
X185093186Y-70041392D01*
X185207314Y-69975500D01*
X185270995Y-69911819D01*
X185332318Y-69878334D01*
X185358676Y-69875500D01*
X190224560Y-69875500D01*
X190224562Y-69875500D01*
X190300989Y-69855021D01*
X190369511Y-69815460D01*
X190425460Y-69759511D01*
X193877896Y-66307073D01*
X193939217Y-66273590D01*
X194008909Y-66278574D01*
X194013007Y-66280186D01*
X194133580Y-66330130D01*
X194336530Y-66370499D01*
X194336534Y-66370500D01*
X194336535Y-66370500D01*
X194543466Y-66370500D01*
X194543467Y-66370499D01*
X194746420Y-66330130D01*
X194937598Y-66250941D01*
X195109655Y-66135977D01*
X195255977Y-65989655D01*
X195370941Y-65817598D01*
X195450130Y-65626420D01*
X195490500Y-65423465D01*
X195490500Y-65216535D01*
X195450130Y-65013580D01*
X195370941Y-64822402D01*
X195255977Y-64650345D01*
X195255975Y-64650342D01*
X195109657Y-64504024D01*
X194999248Y-64430252D01*
X194937598Y-64389059D01*
X194928880Y-64385448D01*
X194746420Y-64309870D01*
X194746412Y-64309868D01*
X194543469Y-64269500D01*
X194543465Y-64269500D01*
X194336535Y-64269500D01*
X194336530Y-64269500D01*
X194133587Y-64309868D01*
X194133579Y-64309870D01*
X193942403Y-64389058D01*
X193770342Y-64504024D01*
X193624024Y-64650342D01*
X193509058Y-64822403D01*
X193429870Y-65013579D01*
X193429868Y-65013587D01*
X193389500Y-65216530D01*
X193389500Y-65423469D01*
X193429868Y-65626412D01*
X193429871Y-65626424D01*
X193479803Y-65746971D01*
X193487272Y-65816440D01*
X193455997Y-65878919D01*
X193452923Y-65882104D01*
X190096848Y-69238181D01*
X190035525Y-69271666D01*
X190009167Y-69274500D01*
X185358676Y-69274500D01*
X185291637Y-69254815D01*
X185270995Y-69238181D01*
X185207316Y-69174502D01*
X185207314Y-69174500D01*
X185150250Y-69141554D01*
X185093187Y-69108608D01*
X185029539Y-69091554D01*
X184965892Y-69074500D01*
X184834108Y-69074500D01*
X184706812Y-69108608D01*
X184592686Y-69174500D01*
X184592683Y-69174502D01*
X184499502Y-69267683D01*
X184499500Y-69267686D01*
X184433608Y-69381812D01*
X184399500Y-69509108D01*
X183800500Y-69509108D01*
X183800500Y-66074500D01*
X183820185Y-66007461D01*
X183872989Y-65961706D01*
X183924500Y-65950500D01*
X184169750Y-65950500D01*
X184169751Y-65950499D01*
X184184568Y-65947552D01*
X184228229Y-65938868D01*
X184228229Y-65938867D01*
X184228231Y-65938867D01*
X184294552Y-65894552D01*
X184338867Y-65828231D01*
X184338867Y-65828229D01*
X184338868Y-65828229D01*
X184349529Y-65774628D01*
X187100000Y-65774628D01*
X187114503Y-65847540D01*
X187114505Y-65847544D01*
X187169760Y-65930239D01*
X187252455Y-65985494D01*
X187252459Y-65985496D01*
X187325371Y-65999999D01*
X187325374Y-66000000D01*
X187850000Y-66000000D01*
X188150000Y-66000000D01*
X188674626Y-66000000D01*
X188674628Y-65999999D01*
X188747540Y-65985496D01*
X188747544Y-65985494D01*
X188830239Y-65930239D01*
X188885494Y-65847544D01*
X188885496Y-65847540D01*
X188899999Y-65774628D01*
X188900000Y-65774626D01*
X188900000Y-65234108D01*
X189299500Y-65234108D01*
X189299500Y-65365892D01*
X189314927Y-65423466D01*
X189333608Y-65493187D01*
X189358569Y-65536420D01*
X189399500Y-65607314D01*
X189492686Y-65700500D01*
X189606814Y-65766392D01*
X189734108Y-65800500D01*
X189734110Y-65800500D01*
X189865890Y-65800500D01*
X189865892Y-65800500D01*
X189993186Y-65766392D01*
X190107314Y-65700500D01*
X190150995Y-65656819D01*
X190212318Y-65623334D01*
X190238676Y-65620500D01*
X190804564Y-65620500D01*
X190871603Y-65640185D01*
X190917358Y-65692989D01*
X190919125Y-65697047D01*
X190964652Y-65806960D01*
X190969059Y-65817598D01*
X190989068Y-65847544D01*
X191084024Y-65989657D01*
X191230342Y-66135975D01*
X191230345Y-66135977D01*
X191402402Y-66250941D01*
X191593580Y-66330130D01*
X191796530Y-66370499D01*
X191796534Y-66370500D01*
X191796535Y-66370500D01*
X192003466Y-66370500D01*
X192003467Y-66370499D01*
X192206420Y-66330130D01*
X192397598Y-66250941D01*
X192569655Y-66135977D01*
X192715977Y-65989655D01*
X192830941Y-65817598D01*
X192910130Y-65626420D01*
X192950500Y-65423465D01*
X192950500Y-65216535D01*
X192910130Y-65013580D01*
X192830941Y-64822402D01*
X192715977Y-64650345D01*
X192715975Y-64650342D01*
X192569657Y-64504024D01*
X192459248Y-64430252D01*
X192397598Y-64389059D01*
X192388880Y-64385448D01*
X192206420Y-64309870D01*
X192206412Y-64309868D01*
X192003469Y-64269500D01*
X192003465Y-64269500D01*
X191796535Y-64269500D01*
X191796530Y-64269500D01*
X191593587Y-64309868D01*
X191593579Y-64309870D01*
X191402403Y-64389058D01*
X191230342Y-64504024D01*
X191084024Y-64650342D01*
X190969058Y-64822403D01*
X190919125Y-64942953D01*
X190875284Y-64997356D01*
X190808990Y-65019421D01*
X190804564Y-65019500D01*
X190278676Y-65019500D01*
X190211637Y-64999815D01*
X190190995Y-64983181D01*
X190107316Y-64899502D01*
X190107314Y-64899500D01*
X190050250Y-64866554D01*
X189993187Y-64833608D01*
X189929539Y-64816554D01*
X189865892Y-64799500D01*
X189734108Y-64799500D01*
X189606812Y-64833608D01*
X189492686Y-64899500D01*
X189492683Y-64899502D01*
X189399502Y-64992683D01*
X189399500Y-64992686D01*
X189333608Y-65106812D01*
X189319488Y-65159511D01*
X189299500Y-65234108D01*
X188900000Y-65234108D01*
X188900000Y-65125000D01*
X188150000Y-65125000D01*
X188150000Y-66000000D01*
X187850000Y-66000000D01*
X187850000Y-65125000D01*
X187100000Y-65125000D01*
X187100000Y-65774628D01*
X184349529Y-65774628D01*
X184350499Y-65769752D01*
X184350500Y-65769750D01*
X184350500Y-64180251D01*
X184350499Y-64180245D01*
X184349530Y-64175371D01*
X187100000Y-64175371D01*
X187100000Y-64825000D01*
X187850000Y-64825000D01*
X188150000Y-64825000D01*
X188900000Y-64825000D01*
X188900000Y-64175373D01*
X188899999Y-64175371D01*
X188885496Y-64102459D01*
X188885494Y-64102455D01*
X188830239Y-64019760D01*
X188747544Y-63964505D01*
X188747540Y-63964503D01*
X188674627Y-63950000D01*
X188150000Y-63950000D01*
X188150000Y-64825000D01*
X187850000Y-64825000D01*
X187850000Y-63950000D01*
X187325373Y-63950000D01*
X187252459Y-63964503D01*
X187252455Y-63964505D01*
X187169760Y-64019760D01*
X187114505Y-64102455D01*
X187114503Y-64102459D01*
X187100000Y-64175371D01*
X184349530Y-64175371D01*
X184338868Y-64121770D01*
X184338867Y-64121769D01*
X184294552Y-64055447D01*
X184228230Y-64011132D01*
X184228229Y-64011131D01*
X184169752Y-63999500D01*
X184169748Y-63999500D01*
X183082676Y-63999500D01*
X183015637Y-63979815D01*
X182969882Y-63927011D01*
X182959938Y-63857853D01*
X182988963Y-63794297D01*
X182994995Y-63787819D01*
X183033810Y-63749004D01*
X183075500Y-63707314D01*
X183141392Y-63593186D01*
X183175500Y-63465892D01*
X183175500Y-63334108D01*
X183141392Y-63206814D01*
X183075500Y-63092686D01*
X182982314Y-62999500D01*
X182925969Y-62966969D01*
X182901946Y-62953099D01*
X182853731Y-62902531D01*
X182840509Y-62833924D01*
X182866477Y-62769059D01*
X182876250Y-62758047D01*
X182956425Y-62677873D01*
X183022317Y-62563745D01*
X183056425Y-62436451D01*
X183056425Y-62304667D01*
X183022317Y-62177373D01*
X182956425Y-62063245D01*
X182863239Y-61970059D01*
X182784329Y-61924500D01*
X182749112Y-61904167D01*
X182673887Y-61884011D01*
X182621817Y-61870059D01*
X182490033Y-61870059D01*
X182362737Y-61904167D01*
X182248611Y-61970059D01*
X182248608Y-61970061D01*
X182184930Y-62033740D01*
X182123607Y-62067225D01*
X182097249Y-62070059D01*
X181354235Y-62070059D01*
X181287196Y-62050374D01*
X181266554Y-62033740D01*
X181257316Y-62024502D01*
X181257314Y-62024500D01*
X181200250Y-61991554D01*
X181143187Y-61958608D01*
X181078677Y-61941323D01*
X181015892Y-61924500D01*
X180884108Y-61924500D01*
X180756812Y-61958608D01*
X180642686Y-62024500D01*
X180642683Y-62024502D01*
X180637181Y-62030005D01*
X180575858Y-62063490D01*
X180506166Y-62058506D01*
X180450233Y-62016634D01*
X180425816Y-61951170D01*
X180425500Y-61942324D01*
X180425500Y-61197551D01*
X180445185Y-61130512D01*
X180497989Y-61084757D01*
X180567147Y-61074813D01*
X180630703Y-61103838D01*
X180648767Y-61123241D01*
X180735668Y-61239328D01*
X180845015Y-61321184D01*
X180845016Y-61321185D01*
X180972991Y-61368917D01*
X180972994Y-61368918D01*
X181029555Y-61374999D01*
X181149999Y-61374999D01*
X181150000Y-61374998D01*
X181150000Y-59925000D01*
X181029566Y-59925000D01*
X181029559Y-59925001D01*
X180972992Y-59931081D01*
X180845018Y-59978813D01*
X180845015Y-59978815D01*
X180735670Y-60060670D01*
X180648767Y-60176759D01*
X180592833Y-60218630D01*
X180523142Y-60223614D01*
X180461818Y-60190129D01*
X180428334Y-60128806D01*
X180425500Y-60102448D01*
X180425500Y-59690693D01*
X180425500Y-59690691D01*
X180402966Y-59606593D01*
X180404629Y-59536743D01*
X180443792Y-59478881D01*
X180508020Y-59451377D01*
X180522741Y-59450500D01*
X182275500Y-59450500D01*
X182342539Y-59470185D01*
X182388294Y-59522989D01*
X182399500Y-59574500D01*
X182399500Y-59972389D01*
X182379815Y-60039428D01*
X182363181Y-60060070D01*
X182276476Y-60146774D01*
X182276473Y-60146778D01*
X182276472Y-60146780D01*
X182215281Y-60266874D01*
X182215280Y-60266876D01*
X182210851Y-60275570D01*
X182208579Y-60274412D01*
X182177233Y-60320241D01*
X182112871Y-60347431D01*
X182044026Y-60335507D01*
X181992557Y-60288256D01*
X181982571Y-60267570D01*
X181946186Y-60170018D01*
X181946184Y-60170015D01*
X181864329Y-60060670D01*
X181754984Y-59978815D01*
X181754983Y-59978814D01*
X181627010Y-59931083D01*
X181570428Y-59925000D01*
X181450000Y-59925000D01*
X181450000Y-61374999D01*
X181570433Y-61374999D01*
X181570439Y-61374998D01*
X181627007Y-61368918D01*
X181754981Y-61321186D01*
X181754984Y-61321184D01*
X181864329Y-61239329D01*
X181946184Y-61129984D01*
X181946186Y-61129981D01*
X181982571Y-61032429D01*
X182024442Y-60976495D01*
X182089906Y-60952078D01*
X182158179Y-60966930D01*
X182207585Y-61016335D01*
X182212304Y-61027281D01*
X182215280Y-61033122D01*
X182215281Y-61033126D01*
X182276472Y-61153220D01*
X182276473Y-61153221D01*
X182276476Y-61153225D01*
X182371774Y-61248523D01*
X182371778Y-61248526D01*
X182371780Y-61248528D01*
X182491874Y-61309719D01*
X182491876Y-61309719D01*
X182491878Y-61309720D01*
X182591507Y-61325500D01*
X182591512Y-61325500D01*
X183108493Y-61325500D01*
X183208121Y-61309720D01*
X183208121Y-61309719D01*
X183208126Y-61309719D01*
X183328220Y-61248528D01*
X183423528Y-61153220D01*
X183423531Y-61153213D01*
X183424689Y-61151621D01*
X183426607Y-61150141D01*
X183429489Y-61147259D01*
X183431299Y-61143297D01*
X183456398Y-61127166D01*
X183480017Y-61108952D01*
X183486692Y-61107698D01*
X183490077Y-61105523D01*
X183525012Y-61100500D01*
X183674988Y-61100500D01*
X183742027Y-61120185D01*
X183775311Y-61151621D01*
X183776476Y-61153225D01*
X183871774Y-61248523D01*
X183871778Y-61248526D01*
X183871780Y-61248528D01*
X183991874Y-61309719D01*
X183991876Y-61309719D01*
X183991878Y-61309720D01*
X184091507Y-61325500D01*
X184091512Y-61325500D01*
X184608493Y-61325500D01*
X184708121Y-61309720D01*
X184708121Y-61309719D01*
X184708126Y-61309719D01*
X184828220Y-61248528D01*
X184923528Y-61153220D01*
X184984719Y-61033126D01*
X184984719Y-61033123D01*
X184989149Y-61024430D01*
X184991423Y-61025588D01*
X185022742Y-60979777D01*
X185087098Y-60952572D01*
X185155946Y-60964479D01*
X185207427Y-61011718D01*
X185217428Y-61032428D01*
X185253814Y-61129982D01*
X185253815Y-61129984D01*
X185335670Y-61239329D01*
X185445015Y-61321184D01*
X185445016Y-61321185D01*
X185572991Y-61368917D01*
X185572994Y-61368918D01*
X185629555Y-61374999D01*
X185749999Y-61374999D01*
X186050000Y-61374999D01*
X186170433Y-61374999D01*
X186170439Y-61374998D01*
X186227007Y-61368918D01*
X186354981Y-61321186D01*
X186354984Y-61321184D01*
X186464329Y-61239329D01*
X186546184Y-61129984D01*
X186546185Y-61129983D01*
X186593916Y-61002010D01*
X186599999Y-60945428D01*
X186600000Y-60945427D01*
X186600000Y-60800000D01*
X186050000Y-60800000D01*
X186050000Y-61374999D01*
X185749999Y-61374999D01*
X185750000Y-61374998D01*
X185750000Y-60500000D01*
X186050000Y-60500000D01*
X186599999Y-60500000D01*
X186599999Y-60354566D01*
X186599998Y-60354560D01*
X186593918Y-60297992D01*
X186546186Y-60170018D01*
X186546184Y-60170015D01*
X186464329Y-60060670D01*
X186354984Y-59978815D01*
X186354983Y-59978814D01*
X186227010Y-59931083D01*
X186170428Y-59925000D01*
X186050000Y-59925000D01*
X186050000Y-60500000D01*
X185750000Y-60500000D01*
X185750000Y-59925000D01*
X185629566Y-59925000D01*
X185629559Y-59925001D01*
X185572992Y-59931081D01*
X185445018Y-59978813D01*
X185445015Y-59978815D01*
X185335670Y-60060670D01*
X185253815Y-60170015D01*
X185253811Y-60170022D01*
X185217427Y-60267571D01*
X185175556Y-60323505D01*
X185110091Y-60347921D01*
X185041818Y-60333069D01*
X184992413Y-60283663D01*
X184987693Y-60272714D01*
X184984719Y-60266878D01*
X184984719Y-60266874D01*
X184923528Y-60146780D01*
X184923526Y-60146778D01*
X184923523Y-60146774D01*
X184828225Y-60051476D01*
X184828221Y-60051473D01*
X184828220Y-60051472D01*
X184708126Y-59990281D01*
X184708124Y-59990280D01*
X184708121Y-59990279D01*
X184608493Y-59974500D01*
X184608488Y-59974500D01*
X184362965Y-59974500D01*
X184295926Y-59954815D01*
X184275284Y-59938181D01*
X184086819Y-59749716D01*
X184053334Y-59688393D01*
X184050500Y-59662035D01*
X184050500Y-59074500D01*
X184070185Y-59007461D01*
X184122989Y-58961706D01*
X184174500Y-58950500D01*
X185056613Y-58950500D01*
X185056616Y-58950500D01*
X185127196Y-58944086D01*
X185289606Y-58893478D01*
X185435185Y-58805472D01*
X185555472Y-58685185D01*
X185643478Y-58539606D01*
X185694086Y-58377196D01*
X185700500Y-58306616D01*
X185700500Y-57193384D01*
X185694086Y-57122804D01*
X185643478Y-56960394D01*
X185555472Y-56814815D01*
X185555470Y-56814813D01*
X185555469Y-56814811D01*
X185435188Y-56694530D01*
X185427479Y-56689870D01*
X185289606Y-56606522D01*
X185127196Y-56555914D01*
X185127194Y-56555913D01*
X185127192Y-56555913D01*
X185077778Y-56551423D01*
X185056616Y-56549500D01*
X185056613Y-56549500D01*
X184174500Y-56549500D01*
X184107461Y-56529815D01*
X184061706Y-56477011D01*
X184050500Y-56425500D01*
X184050500Y-54850740D01*
X184070185Y-54783701D01*
X184122989Y-54737946D01*
X184192147Y-54728002D01*
X184255703Y-54757027D01*
X184262181Y-54763059D01*
X184322728Y-54823606D01*
X184436856Y-54889498D01*
X184564150Y-54923606D01*
X184564152Y-54923606D01*
X184695932Y-54923606D01*
X184695934Y-54923606D01*
X184823228Y-54889498D01*
X184937356Y-54823606D01*
X185001037Y-54759925D01*
X185062360Y-54726440D01*
X185088718Y-54723606D01*
X189147273Y-54723606D01*
X189214312Y-54743291D01*
X189234954Y-54759925D01*
X189913181Y-55438152D01*
X189946666Y-55499475D01*
X189949500Y-55525833D01*
X189949500Y-56266323D01*
X189929815Y-56333362D01*
X189913182Y-56354004D01*
X189849500Y-56417686D01*
X189783608Y-56531812D01*
X189763590Y-56606522D01*
X189749500Y-56659108D01*
X189749500Y-56790892D01*
X189760453Y-56831769D01*
X189783608Y-56918187D01*
X189798522Y-56944018D01*
X189849500Y-57032314D01*
X189942686Y-57125500D01*
X189994705Y-57155533D01*
X190016494Y-57168113D01*
X190064709Y-57218680D01*
X190077931Y-57287288D01*
X190051963Y-57352152D01*
X189995049Y-57392680D01*
X189954493Y-57399500D01*
X189210438Y-57399500D01*
X189159486Y-57413152D01*
X189134010Y-57419979D01*
X189098139Y-57440690D01*
X189098137Y-57440691D01*
X189065490Y-57459539D01*
X189065487Y-57459541D01*
X188284541Y-58240487D01*
X188284535Y-58240495D01*
X188244982Y-58309004D01*
X188244979Y-58309009D01*
X188234519Y-58348046D01*
X188226709Y-58377196D01*
X188224500Y-58385439D01*
X188224500Y-61941323D01*
X188204815Y-62008362D01*
X188188182Y-62029004D01*
X188124500Y-62092686D01*
X188058608Y-62206812D01*
X188032388Y-62304669D01*
X188024500Y-62334108D01*
X188024500Y-62465892D01*
X188027709Y-62477868D01*
X188058608Y-62593187D01*
X188073815Y-62619525D01*
X188124500Y-62707314D01*
X188217686Y-62800500D01*
X188331814Y-62866392D01*
X188459108Y-62900500D01*
X188459110Y-62900500D01*
X188590890Y-62900500D01*
X188590892Y-62900500D01*
X188718186Y-62866392D01*
X188832314Y-62800500D01*
X188837819Y-62794995D01*
X188857255Y-62784382D01*
X188873989Y-62769882D01*
X188887320Y-62767965D01*
X188899142Y-62761510D01*
X188921228Y-62763089D01*
X188943147Y-62759938D01*
X188955398Y-62765533D01*
X188968834Y-62766494D01*
X188986560Y-62779764D01*
X189006703Y-62788963D01*
X189013985Y-62800294D01*
X189024767Y-62808366D01*
X189032504Y-62829111D01*
X189044477Y-62847741D01*
X189047628Y-62869659D01*
X189049184Y-62873830D01*
X189049500Y-62882676D01*
X189049500Y-62916323D01*
X189029815Y-62983362D01*
X189013182Y-63004004D01*
X188949500Y-63067686D01*
X188883608Y-63181812D01*
X188857943Y-63277598D01*
X188849500Y-63309108D01*
X188849500Y-63440892D01*
X188856199Y-63465892D01*
X188883608Y-63568187D01*
X188898042Y-63593187D01*
X188949500Y-63682314D01*
X189042686Y-63775500D01*
X189156814Y-63841392D01*
X189284108Y-63875500D01*
X189284110Y-63875500D01*
X189415890Y-63875500D01*
X189415892Y-63875500D01*
X189543186Y-63841392D01*
X189657314Y-63775500D01*
X189750500Y-63682314D01*
X189816392Y-63568186D01*
X189850500Y-63440892D01*
X189850500Y-63309108D01*
X189816392Y-63181814D01*
X189816365Y-63181768D01*
X189799750Y-63152989D01*
X189750500Y-63067686D01*
X189686818Y-63004004D01*
X189653334Y-62942680D01*
X189650500Y-62916323D01*
X189650500Y-60532676D01*
X189656738Y-60511430D01*
X189658318Y-60489342D01*
X189666390Y-60478558D01*
X189670185Y-60465637D01*
X189686918Y-60451137D01*
X189700190Y-60433409D01*
X189712810Y-60428701D01*
X189722989Y-60419882D01*
X189744906Y-60416730D01*
X189765654Y-60408992D01*
X189778814Y-60411854D01*
X189792147Y-60409938D01*
X189812290Y-60419137D01*
X189833927Y-60423844D01*
X189851652Y-60437112D01*
X189855703Y-60438963D01*
X189862181Y-60444995D01*
X189888181Y-60470995D01*
X189921666Y-60532318D01*
X189924500Y-60558676D01*
X189924500Y-62539562D01*
X189938152Y-62590513D01*
X189944979Y-62615990D01*
X189958842Y-62640000D01*
X189972705Y-62664012D01*
X189972706Y-62664013D01*
X189980707Y-62677873D01*
X189984540Y-62684511D01*
X190264540Y-62964511D01*
X190320489Y-63020460D01*
X190320491Y-63020461D01*
X190320495Y-63020464D01*
X190365879Y-63046666D01*
X190389011Y-63060021D01*
X190465438Y-63080500D01*
X190804564Y-63080500D01*
X190871603Y-63100185D01*
X190917358Y-63152989D01*
X190919125Y-63157047D01*
X190964473Y-63266528D01*
X190969059Y-63277598D01*
X191006818Y-63334108D01*
X191084024Y-63449657D01*
X191230342Y-63595975D01*
X191230345Y-63595977D01*
X191402402Y-63710941D01*
X191593580Y-63790130D01*
X191796530Y-63830499D01*
X191796534Y-63830500D01*
X191796535Y-63830500D01*
X192003466Y-63830500D01*
X192003467Y-63830499D01*
X192206420Y-63790130D01*
X192397598Y-63710941D01*
X192569655Y-63595977D01*
X192715977Y-63449655D01*
X192830941Y-63277598D01*
X192910130Y-63086420D01*
X192950500Y-62883465D01*
X192950500Y-62676535D01*
X192910130Y-62473580D01*
X192830941Y-62282402D01*
X192715977Y-62110345D01*
X192715975Y-62110342D01*
X192569657Y-61964024D01*
X192429450Y-61870342D01*
X192397598Y-61849059D01*
X192388880Y-61845448D01*
X192206420Y-61769870D01*
X192206412Y-61769868D01*
X192003469Y-61729500D01*
X192003465Y-61729500D01*
X191796535Y-61729500D01*
X191796530Y-61729500D01*
X191593587Y-61769868D01*
X191593579Y-61769870D01*
X191402403Y-61849058D01*
X191230342Y-61964024D01*
X191084024Y-62110342D01*
X190969058Y-62282403D01*
X190919125Y-62402953D01*
X190906581Y-62418518D01*
X190898277Y-62436703D01*
X190885106Y-62445167D01*
X190875284Y-62457356D01*
X190856316Y-62463668D01*
X190839499Y-62474477D01*
X190811938Y-62478439D01*
X190808990Y-62479421D01*
X190804564Y-62479500D01*
X190680833Y-62479500D01*
X190613794Y-62459815D01*
X190593152Y-62443181D01*
X190561819Y-62411848D01*
X190528334Y-62350525D01*
X190525500Y-62324167D01*
X190525500Y-60558676D01*
X190545185Y-60491637D01*
X190561819Y-60470995D01*
X190587819Y-60444995D01*
X190625500Y-60407314D01*
X190634104Y-60392410D01*
X190636817Y-60387713D01*
X190687383Y-60339497D01*
X190755990Y-60326273D01*
X190820855Y-60352241D01*
X190861384Y-60409155D01*
X190865821Y-60425521D01*
X190889868Y-60546412D01*
X190889870Y-60546420D01*
X190969058Y-60737596D01*
X191084024Y-60909657D01*
X191230342Y-61055975D01*
X191230345Y-61055977D01*
X191402402Y-61170941D01*
X191593580Y-61250130D01*
X191796530Y-61290499D01*
X191796534Y-61290500D01*
X191796535Y-61290500D01*
X192003466Y-61290500D01*
X192003467Y-61290499D01*
X192206420Y-61250130D01*
X192397598Y-61170941D01*
X192569655Y-61055977D01*
X192715977Y-60909655D01*
X192830941Y-60737598D01*
X192902705Y-60564344D01*
X192946546Y-60509942D01*
X192955255Y-60504417D01*
X192996751Y-60480460D01*
X193052700Y-60424511D01*
X193183029Y-60294181D01*
X193244349Y-60260698D01*
X193314041Y-60265682D01*
X193369975Y-60307553D01*
X193392325Y-60357673D01*
X193429868Y-60546412D01*
X193429870Y-60546420D01*
X193509058Y-60737596D01*
X193624024Y-60909657D01*
X193770342Y-61055975D01*
X193770345Y-61055977D01*
X193942402Y-61170941D01*
X194133580Y-61250130D01*
X194336530Y-61290499D01*
X194336534Y-61290500D01*
X194336535Y-61290500D01*
X194543466Y-61290500D01*
X194543467Y-61290499D01*
X194746420Y-61250130D01*
X194937598Y-61170941D01*
X195109655Y-61055977D01*
X195255977Y-60909655D01*
X195370941Y-60737598D01*
X195420875Y-60617046D01*
X195464716Y-60562644D01*
X195531010Y-60540579D01*
X195535436Y-60540500D01*
X195724560Y-60540500D01*
X195724562Y-60540500D01*
X195800989Y-60520021D01*
X195869511Y-60480460D01*
X195916735Y-60433235D01*
X195978056Y-60399751D01*
X196009307Y-60397014D01*
X196023135Y-60397559D01*
X196034108Y-60400500D01*
X196097602Y-60400500D01*
X196100059Y-60400597D01*
X196130937Y-60411003D01*
X196162206Y-60420185D01*
X196163866Y-60422100D01*
X196166270Y-60422911D01*
X196186635Y-60448377D01*
X196207961Y-60472989D01*
X196208321Y-60475496D01*
X196209906Y-60477478D01*
X196213268Y-60509898D01*
X196217905Y-60542147D01*
X196216851Y-60544453D01*
X196217113Y-60546975D01*
X196202417Y-60576060D01*
X196188880Y-60605703D01*
X196185731Y-60609083D01*
X196185604Y-60609337D01*
X196185365Y-60609477D01*
X196182848Y-60612181D01*
X195002104Y-61792923D01*
X194940781Y-61826408D01*
X194871089Y-61821424D01*
X194866971Y-61819803D01*
X194746424Y-61769871D01*
X194746412Y-61769868D01*
X194543469Y-61729500D01*
X194543465Y-61729500D01*
X194336535Y-61729500D01*
X194336530Y-61729500D01*
X194133587Y-61769868D01*
X194133579Y-61769870D01*
X193942403Y-61849058D01*
X193770342Y-61964024D01*
X193624024Y-62110342D01*
X193509058Y-62282403D01*
X193429870Y-62473579D01*
X193429868Y-62473587D01*
X193389500Y-62676530D01*
X193389500Y-62883469D01*
X193429868Y-63086412D01*
X193429870Y-63086420D01*
X193504473Y-63266528D01*
X193509059Y-63277598D01*
X193546818Y-63334108D01*
X193624024Y-63449657D01*
X193770342Y-63595975D01*
X193770345Y-63595977D01*
X193942402Y-63710941D01*
X194133580Y-63790130D01*
X194336530Y-63830499D01*
X194336534Y-63830500D01*
X194336535Y-63830500D01*
X194543466Y-63830500D01*
X194543467Y-63830499D01*
X194746420Y-63790130D01*
X194937598Y-63710941D01*
X195109655Y-63595977D01*
X195255977Y-63449655D01*
X195370941Y-63277598D01*
X195450130Y-63086420D01*
X195490500Y-62883465D01*
X195490500Y-62676535D01*
X195450130Y-62473580D01*
X195400194Y-62353026D01*
X195392726Y-62283559D01*
X195424001Y-62221080D01*
X195427046Y-62217923D01*
X196812820Y-60832149D01*
X196874142Y-60798666D01*
X196943834Y-60803650D01*
X196999767Y-60845522D01*
X197024184Y-60910986D01*
X197024500Y-60919832D01*
X197024500Y-74325500D01*
X197004815Y-74392539D01*
X196952011Y-74438294D01*
X196900500Y-74449500D01*
X175224000Y-74449500D01*
X175156961Y-74429815D01*
X175111206Y-74377011D01*
X175100000Y-74325500D01*
X175100000Y-74020000D01*
X173100000Y-74020000D01*
X173100000Y-74325500D01*
X173080315Y-74392539D01*
X173027511Y-74438294D01*
X172976000Y-74449500D01*
X157724000Y-74449500D01*
X157656961Y-74429815D01*
X157611206Y-74377011D01*
X157600000Y-74325500D01*
X157600000Y-74020000D01*
X155600000Y-74020000D01*
X155600000Y-74325500D01*
X155580315Y-74392539D01*
X155527511Y-74438294D01*
X155476000Y-74449500D01*
X154936965Y-74449500D01*
X154869926Y-74429815D01*
X154824171Y-74377011D01*
X154814227Y-74307853D01*
X154843252Y-74244297D01*
X154849284Y-74237819D01*
X155060490Y-74026614D01*
X155119799Y-73923887D01*
X155129182Y-73888867D01*
X155150500Y-73809309D01*
X155150500Y-73177611D01*
X155158930Y-73148901D01*
X155164918Y-73119578D01*
X155169270Y-73113685D01*
X155170185Y-73110572D01*
X155185707Y-73091056D01*
X155186287Y-73090460D01*
X155273528Y-73003220D01*
X155275936Y-72998493D01*
X155286219Y-72987945D01*
X155309166Y-72975031D01*
X155330017Y-72958952D01*
X155341611Y-72956774D01*
X155347110Y-72953680D01*
X155355470Y-72954170D01*
X155375012Y-72950500D01*
X155525500Y-72950500D01*
X155592539Y-72970185D01*
X155638294Y-73022989D01*
X155647184Y-73063857D01*
X155648903Y-73063688D01*
X155649500Y-73069752D01*
X155661131Y-73128229D01*
X155665806Y-73139513D01*
X155662700Y-73140799D01*
X155677553Y-73188244D01*
X155659065Y-73255623D01*
X155656676Y-73259341D01*
X155614504Y-73322456D01*
X155614503Y-73322459D01*
X155600000Y-73395371D01*
X155600000Y-73720000D01*
X157600000Y-73720000D01*
X157600000Y-73395373D01*
X157599999Y-73395371D01*
X157585496Y-73322459D01*
X157585494Y-73322455D01*
X157543324Y-73259342D01*
X157522446Y-73192664D01*
X157536738Y-73140566D01*
X157534194Y-73139513D01*
X157538868Y-73128229D01*
X157550499Y-73069752D01*
X157550500Y-73069750D01*
X157550500Y-72130249D01*
X157550499Y-72130247D01*
X157538868Y-72071770D01*
X157538867Y-72071768D01*
X157513558Y-72033892D01*
X157492679Y-71967215D01*
X157511163Y-71899835D01*
X157513558Y-71896108D01*
X157538867Y-71858231D01*
X157538868Y-71858229D01*
X157550499Y-71799752D01*
X157550500Y-71799750D01*
X157550500Y-70860249D01*
X157550499Y-70860247D01*
X157538868Y-70801770D01*
X157538867Y-70801768D01*
X157513558Y-70763892D01*
X157492679Y-70697215D01*
X157511163Y-70629835D01*
X157513558Y-70626108D01*
X157538867Y-70588231D01*
X157538868Y-70588229D01*
X157550499Y-70529752D01*
X157550500Y-70529750D01*
X157550500Y-69590249D01*
X157550499Y-69590247D01*
X157538868Y-69531770D01*
X157538867Y-69531768D01*
X157513558Y-69493892D01*
X157492679Y-69427215D01*
X157511163Y-69359835D01*
X157513558Y-69356108D01*
X157538867Y-69318231D01*
X157538868Y-69318229D01*
X157550499Y-69259752D01*
X157550500Y-69259750D01*
X157550500Y-68320249D01*
X157550499Y-68320247D01*
X157538868Y-68261770D01*
X157538867Y-68261768D01*
X157513558Y-68223892D01*
X157492679Y-68157215D01*
X157511163Y-68089835D01*
X157513558Y-68086108D01*
X157538867Y-68048231D01*
X157538868Y-68048229D01*
X157550499Y-67989752D01*
X157550500Y-67989750D01*
X157550500Y-67050249D01*
X157550499Y-67050247D01*
X157538868Y-66991770D01*
X157538867Y-66991768D01*
X157513558Y-66953892D01*
X157492679Y-66887215D01*
X157511163Y-66819835D01*
X157513558Y-66816108D01*
X157538867Y-66778231D01*
X157538868Y-66778229D01*
X157550499Y-66719752D01*
X157550500Y-66719750D01*
X157550500Y-65780249D01*
X157550499Y-65780247D01*
X157538868Y-65721770D01*
X157538867Y-65721768D01*
X157513558Y-65683892D01*
X157492679Y-65617215D01*
X157511163Y-65549835D01*
X157513558Y-65546108D01*
X157538867Y-65508231D01*
X157538868Y-65508229D01*
X157550499Y-65449752D01*
X157550500Y-65449750D01*
X157550500Y-64510249D01*
X157550499Y-64510247D01*
X157538868Y-64451770D01*
X157538867Y-64451768D01*
X157513558Y-64413892D01*
X157492679Y-64347215D01*
X157511163Y-64279835D01*
X157513558Y-64276108D01*
X157538867Y-64238231D01*
X157538868Y-64238229D01*
X157550499Y-64179752D01*
X157550500Y-64179750D01*
X157550500Y-63240249D01*
X157550499Y-63240247D01*
X157538868Y-63181770D01*
X157538867Y-63181768D01*
X157513558Y-63143892D01*
X157492679Y-63077215D01*
X157511163Y-63009835D01*
X157513558Y-63006108D01*
X157538867Y-62968231D01*
X157538868Y-62968229D01*
X157550499Y-62909752D01*
X157550500Y-62909750D01*
X157550500Y-61970249D01*
X157550499Y-61970247D01*
X157538868Y-61911770D01*
X157538867Y-61911768D01*
X157513558Y-61873892D01*
X157492679Y-61807215D01*
X157511163Y-61739835D01*
X157513558Y-61736108D01*
X157538867Y-61698231D01*
X157538868Y-61698229D01*
X157550499Y-61639752D01*
X157550500Y-61639750D01*
X157550500Y-60700249D01*
X157550499Y-60700247D01*
X157538868Y-60641770D01*
X157538867Y-60641768D01*
X157513558Y-60603892D01*
X157492679Y-60537215D01*
X157511163Y-60469835D01*
X157513558Y-60466108D01*
X157538867Y-60428231D01*
X157538868Y-60428229D01*
X157550499Y-60369752D01*
X157550500Y-60369750D01*
X157550500Y-59430249D01*
X157550499Y-59430247D01*
X157538868Y-59371770D01*
X157538867Y-59371768D01*
X157513558Y-59333892D01*
X157492679Y-59267215D01*
X157511163Y-59199835D01*
X157513558Y-59196108D01*
X157538867Y-59158231D01*
X157538868Y-59158229D01*
X157550499Y-59099752D01*
X157550500Y-59099750D01*
X157550500Y-58160249D01*
X157550499Y-58160247D01*
X157538868Y-58101770D01*
X157538867Y-58101768D01*
X157513558Y-58063892D01*
X157492679Y-57997215D01*
X157511163Y-57929835D01*
X157513558Y-57926108D01*
X157538867Y-57888231D01*
X157538868Y-57888229D01*
X157550499Y-57829752D01*
X157550500Y-57829750D01*
X157550500Y-56890249D01*
X157550499Y-56890247D01*
X157549381Y-56884628D01*
X158935000Y-56884628D01*
X158949503Y-56957540D01*
X158949505Y-56957544D01*
X159004760Y-57040239D01*
X159087455Y-57095494D01*
X159087459Y-57095496D01*
X159160371Y-57109999D01*
X159160374Y-57110000D01*
X159485000Y-57110000D01*
X159485000Y-56260000D01*
X158935000Y-56260000D01*
X158935000Y-56884628D01*
X157549381Y-56884628D01*
X157538868Y-56831770D01*
X157538867Y-56831769D01*
X157494552Y-56765447D01*
X157428230Y-56721132D01*
X157428229Y-56721131D01*
X157369752Y-56709500D01*
X157369748Y-56709500D01*
X155830252Y-56709500D01*
X155830247Y-56709500D01*
X155771770Y-56721131D01*
X155771770Y-56721132D01*
X155743390Y-56740095D01*
X155676713Y-56760972D01*
X155609333Y-56742487D01*
X155562643Y-56690508D01*
X155550500Y-56636992D01*
X155550500Y-55335371D01*
X158935000Y-55335371D01*
X158935000Y-55960000D01*
X159485000Y-55960000D01*
X159485000Y-55110000D01*
X159160373Y-55110000D01*
X159087459Y-55124503D01*
X159087455Y-55124505D01*
X159004760Y-55179760D01*
X158949505Y-55262455D01*
X158949503Y-55262459D01*
X158935000Y-55335371D01*
X155550500Y-55335371D01*
X155550500Y-55150832D01*
X155570185Y-55083793D01*
X155586815Y-55063155D01*
X155938151Y-54711818D01*
X155999474Y-54678334D01*
X156025832Y-54675500D01*
X156115890Y-54675500D01*
X156115892Y-54675500D01*
X156243186Y-54641392D01*
X156357314Y-54575500D01*
X156450500Y-54482314D01*
X156516392Y-54368186D01*
X156550500Y-54240892D01*
X156550500Y-54109108D01*
X156516392Y-53981814D01*
X156515898Y-53980959D01*
X156483879Y-53925500D01*
X156450500Y-53867686D01*
X156445493Y-53862679D01*
X156412008Y-53801356D01*
X156416992Y-53731664D01*
X156445499Y-53687311D01*
X156450500Y-53682311D01*
X156516392Y-53568183D01*
X156550500Y-53440889D01*
X156550500Y-53309105D01*
X156516392Y-53181811D01*
X156450500Y-53067683D01*
X156357314Y-52974497D01*
X156289068Y-52935095D01*
X156243187Y-52908605D01*
X156179539Y-52891551D01*
X156115892Y-52874497D01*
X155984108Y-52874497D01*
X155856812Y-52908605D01*
X155742686Y-52974497D01*
X155742682Y-52974500D01*
X155648975Y-53068206D01*
X155621824Y-53088747D01*
X155612225Y-53094115D01*
X155609014Y-53094976D01*
X155557877Y-53124500D01*
X155557192Y-53124894D01*
X155557166Y-53124910D01*
X155540493Y-53134536D01*
X155540490Y-53134538D01*
X155361848Y-53313181D01*
X155300525Y-53346666D01*
X155274167Y-53349500D01*
X154874500Y-53349500D01*
X154807461Y-53329815D01*
X154761706Y-53277011D01*
X154750500Y-53225500D01*
X154750500Y-51510249D01*
X154750499Y-51510247D01*
X154738868Y-51451770D01*
X154738867Y-51451769D01*
X154694552Y-51385447D01*
X154628230Y-51341132D01*
X154628229Y-51341131D01*
X154569752Y-51329500D01*
X154569748Y-51329500D01*
X152830252Y-51329500D01*
X152830247Y-51329500D01*
X152771770Y-51341131D01*
X152771769Y-51341132D01*
X152705447Y-51385447D01*
X152661132Y-51451769D01*
X152661131Y-51451770D01*
X152649500Y-51510247D01*
X152649500Y-53030399D01*
X152629815Y-53097438D01*
X152577011Y-53143193D01*
X152507853Y-53153137D01*
X152493414Y-53150176D01*
X152490892Y-53149500D01*
X152359108Y-53149500D01*
X152231812Y-53183608D01*
X152117686Y-53249500D01*
X152117683Y-53249502D01*
X152024502Y-53342683D01*
X152024500Y-53342686D01*
X151958608Y-53456812D01*
X151924500Y-53584108D01*
X151924500Y-53715891D01*
X151958608Y-53843187D01*
X151971468Y-53865460D01*
X152024500Y-53957314D01*
X152117686Y-54050500D01*
X152231814Y-54116392D01*
X152359108Y-54150500D01*
X152359110Y-54150500D01*
X152490890Y-54150500D01*
X152490892Y-54150500D01*
X152618186Y-54116392D01*
X152732314Y-54050500D01*
X152795995Y-53986819D01*
X152822922Y-53972115D01*
X152848741Y-53955523D01*
X152854941Y-53954631D01*
X152857318Y-53953334D01*
X152883676Y-53950500D01*
X152884505Y-53950500D01*
X152951544Y-53970185D01*
X152997299Y-54022989D01*
X153007243Y-54092147D01*
X152978218Y-54155703D01*
X152972186Y-54162181D01*
X152884025Y-54250341D01*
X152884024Y-54250342D01*
X152769058Y-54422403D01*
X152689870Y-54613579D01*
X152689868Y-54613587D01*
X152649500Y-54816530D01*
X152649500Y-55023469D01*
X152689868Y-55226412D01*
X152689870Y-55226420D01*
X152769058Y-55417596D01*
X152884024Y-55589657D01*
X153030342Y-55735975D01*
X153030345Y-55735977D01*
X153202402Y-55850941D01*
X153393580Y-55930130D01*
X153543748Y-55960000D01*
X153596530Y-55970499D01*
X153596534Y-55970500D01*
X153596535Y-55970500D01*
X153803466Y-55970500D01*
X153803467Y-55970499D01*
X154006420Y-55930130D01*
X154197598Y-55850941D01*
X154369655Y-55735977D01*
X154515977Y-55589655D01*
X154630941Y-55417598D01*
X154710130Y-55226420D01*
X154710130Y-55226418D01*
X154710939Y-55224466D01*
X154754780Y-55170063D01*
X154821074Y-55147998D01*
X154888773Y-55165277D01*
X154936384Y-55216414D01*
X154949500Y-55271919D01*
X154949500Y-57108080D01*
X154929815Y-57175119D01*
X154877011Y-57220874D01*
X154807853Y-57230818D01*
X154744297Y-57201793D01*
X154710939Y-57155533D01*
X154630942Y-56962403D01*
X154515975Y-56790342D01*
X154369657Y-56644024D01*
X154243156Y-56559500D01*
X154197598Y-56529059D01*
X154109431Y-56492539D01*
X154006420Y-56449870D01*
X154006412Y-56449868D01*
X153803469Y-56409500D01*
X153803465Y-56409500D01*
X153596535Y-56409500D01*
X153596530Y-56409500D01*
X153393587Y-56449868D01*
X153393579Y-56449870D01*
X153202403Y-56529058D01*
X153030342Y-56644024D01*
X152884024Y-56790342D01*
X152769058Y-56962403D01*
X152689870Y-57153579D01*
X152689868Y-57153587D01*
X152649500Y-57356530D01*
X152649500Y-57563469D01*
X152689868Y-57766412D01*
X152689870Y-57766420D01*
X152766767Y-57952066D01*
X152769059Y-57957598D01*
X152794050Y-57995000D01*
X152884024Y-58129657D01*
X153030342Y-58275975D01*
X153030345Y-58275977D01*
X153202402Y-58390941D01*
X153393580Y-58470130D01*
X153549489Y-58501142D01*
X153596530Y-58510499D01*
X153596534Y-58510500D01*
X153596535Y-58510500D01*
X153803466Y-58510500D01*
X153803467Y-58510499D01*
X154006420Y-58470130D01*
X154197598Y-58390941D01*
X154369655Y-58275977D01*
X154515977Y-58129655D01*
X154630941Y-57957598D01*
X154710130Y-57766420D01*
X154710130Y-57766418D01*
X154710939Y-57764466D01*
X154754780Y-57710063D01*
X154821074Y-57687998D01*
X154888773Y-57705277D01*
X154936384Y-57756414D01*
X154949500Y-57811919D01*
X154949500Y-59574167D01*
X154940855Y-59603607D01*
X154934332Y-59633594D01*
X154930577Y-59638609D01*
X154929815Y-59641206D01*
X154913181Y-59661848D01*
X154911848Y-59663181D01*
X154850525Y-59696666D01*
X154824167Y-59699500D01*
X154795436Y-59699500D01*
X154728397Y-59679815D01*
X154682642Y-59627011D01*
X154680875Y-59622953D01*
X154678901Y-59618187D01*
X154630941Y-59502402D01*
X154515977Y-59330345D01*
X154515975Y-59330342D01*
X154369657Y-59184024D01*
X154270369Y-59117683D01*
X154197598Y-59069059D01*
X154116606Y-59035511D01*
X154006420Y-58989870D01*
X154006412Y-58989868D01*
X153803469Y-58949500D01*
X153803465Y-58949500D01*
X153596535Y-58949500D01*
X153596530Y-58949500D01*
X153393587Y-58989868D01*
X153393579Y-58989870D01*
X153202403Y-59069058D01*
X153030342Y-59184024D01*
X152884024Y-59330342D01*
X152769058Y-59502403D01*
X152689870Y-59693579D01*
X152689868Y-59693587D01*
X152649500Y-59896530D01*
X152649500Y-60103469D01*
X152689868Y-60306412D01*
X152689870Y-60306420D01*
X152763821Y-60484954D01*
X152769059Y-60497598D01*
X152805527Y-60552177D01*
X152884024Y-60669657D01*
X153030342Y-60815975D01*
X153030345Y-60815977D01*
X153202402Y-60930941D01*
X153393580Y-61010130D01*
X153596530Y-61050499D01*
X153596534Y-61050500D01*
X153596535Y-61050500D01*
X153803466Y-61050500D01*
X153803467Y-61050499D01*
X154006420Y-61010130D01*
X154197598Y-60930941D01*
X154369655Y-60815977D01*
X154515977Y-60669655D01*
X154630941Y-60497598D01*
X154680875Y-60377046D01*
X154724716Y-60322644D01*
X154791010Y-60300579D01*
X154795436Y-60300500D01*
X155039560Y-60300500D01*
X155039562Y-60300500D01*
X155115989Y-60280021D01*
X155184511Y-60240460D01*
X155240460Y-60184511D01*
X155437819Y-59987152D01*
X155499142Y-59953667D01*
X155568834Y-59958651D01*
X155624767Y-60000523D01*
X155649184Y-60065987D01*
X155649500Y-60074833D01*
X155649500Y-60369752D01*
X155661131Y-60428229D01*
X155661132Y-60428230D01*
X155686442Y-60466109D01*
X155707320Y-60532787D01*
X155688835Y-60600167D01*
X155686442Y-60603891D01*
X155661132Y-60641769D01*
X155661131Y-60641770D01*
X155649500Y-60700247D01*
X155649500Y-61639752D01*
X155661131Y-61698229D01*
X155661132Y-61698230D01*
X155686442Y-61736109D01*
X155707320Y-61802787D01*
X155688835Y-61870167D01*
X155686442Y-61873891D01*
X155661132Y-61911769D01*
X155661131Y-61911770D01*
X155649500Y-61970247D01*
X155649500Y-62909752D01*
X155661131Y-62968229D01*
X155661132Y-62968230D01*
X155686442Y-63006109D01*
X155707320Y-63072787D01*
X155688835Y-63140167D01*
X155686442Y-63143891D01*
X155661132Y-63181769D01*
X155661131Y-63181770D01*
X155649500Y-63240247D01*
X155649500Y-64179752D01*
X155661131Y-64238229D01*
X155661132Y-64238230D01*
X155686442Y-64276109D01*
X155707320Y-64342787D01*
X155688835Y-64410167D01*
X155686442Y-64413891D01*
X155661132Y-64451769D01*
X155661131Y-64451770D01*
X155649500Y-64510247D01*
X155649500Y-65449752D01*
X155661131Y-65508229D01*
X155661132Y-65508230D01*
X155686442Y-65546109D01*
X155707320Y-65612787D01*
X155688835Y-65680167D01*
X155686442Y-65683891D01*
X155661132Y-65721769D01*
X155661131Y-65721770D01*
X155649500Y-65780247D01*
X155649500Y-66719752D01*
X155661131Y-66778229D01*
X155661132Y-66778230D01*
X155686442Y-66816109D01*
X155707320Y-66882787D01*
X155688835Y-66950167D01*
X155686442Y-66953891D01*
X155661132Y-66991769D01*
X155661131Y-66991770D01*
X155649500Y-67050247D01*
X155649500Y-67989752D01*
X155661131Y-68048229D01*
X155661132Y-68048230D01*
X155686442Y-68086109D01*
X155707320Y-68152787D01*
X155688835Y-68220167D01*
X155686442Y-68223891D01*
X155661132Y-68261769D01*
X155661131Y-68261770D01*
X155649500Y-68320247D01*
X155649500Y-68794316D01*
X155643041Y-68816309D01*
X155641111Y-68839149D01*
X155633385Y-68849195D01*
X155629815Y-68861355D01*
X155612493Y-68876363D01*
X155598520Y-68894536D01*
X155586588Y-68898811D01*
X155577011Y-68907110D01*
X155554323Y-68910372D01*
X155532745Y-68918104D01*
X155520397Y-68915250D01*
X155507853Y-68917054D01*
X155487001Y-68907531D01*
X155464670Y-68902370D01*
X155452405Y-68891731D01*
X155444297Y-68888029D01*
X155436691Y-68880855D01*
X155427886Y-68871819D01*
X155425500Y-68867686D01*
X155361263Y-68803449D01*
X155360691Y-68802862D01*
X155344700Y-68772654D01*
X155328334Y-68742680D01*
X155328206Y-68741495D01*
X155328003Y-68741111D01*
X155328074Y-68740266D01*
X155325500Y-68716323D01*
X155325500Y-63825439D01*
X155323076Y-63816391D01*
X155305021Y-63749011D01*
X155289493Y-63722115D01*
X155265464Y-63680495D01*
X155265458Y-63680487D01*
X154687075Y-63102104D01*
X154653590Y-63040781D01*
X154658574Y-62971089D01*
X154660163Y-62967049D01*
X154710130Y-62846420D01*
X154750500Y-62643465D01*
X154750500Y-62436535D01*
X154710130Y-62233580D01*
X154630941Y-62042402D01*
X154515977Y-61870345D01*
X154515975Y-61870342D01*
X154369657Y-61724024D01*
X154258712Y-61649894D01*
X154197598Y-61609059D01*
X154006420Y-61529870D01*
X154006412Y-61529868D01*
X153803469Y-61489500D01*
X153803465Y-61489500D01*
X153596535Y-61489500D01*
X153596530Y-61489500D01*
X153393587Y-61529868D01*
X153393579Y-61529870D01*
X153202403Y-61609058D01*
X153030342Y-61724024D01*
X152884024Y-61870342D01*
X152769058Y-62042403D01*
X152689870Y-62233579D01*
X152689868Y-62233587D01*
X152649500Y-62436530D01*
X152649500Y-62643469D01*
X152689868Y-62846412D01*
X152689870Y-62846420D01*
X152752245Y-62997007D01*
X152769059Y-63037598D01*
X152794050Y-63075000D01*
X152884024Y-63209657D01*
X153030342Y-63355975D01*
X153030345Y-63355977D01*
X153202402Y-63470941D01*
X153393580Y-63550130D01*
X153596530Y-63590499D01*
X153596534Y-63590500D01*
X153596535Y-63590500D01*
X153803466Y-63590500D01*
X153803467Y-63590499D01*
X154006420Y-63550130D01*
X154126974Y-63500194D01*
X154196438Y-63492726D01*
X154258918Y-63524000D01*
X154262104Y-63527075D01*
X154688181Y-63953152D01*
X154721666Y-64014475D01*
X154724500Y-64040833D01*
X154724500Y-64292835D01*
X154704815Y-64359874D01*
X154652011Y-64405629D01*
X154590772Y-64416453D01*
X154576778Y-64415351D01*
X154143670Y-64848460D01*
X154100099Y-64772993D01*
X154007007Y-64679901D01*
X153931538Y-64636329D01*
X154364647Y-64203220D01*
X154364646Y-64203219D01*
X154276528Y-64139198D01*
X154122257Y-64060591D01*
X153957584Y-64007085D01*
X153786571Y-63980000D01*
X153613429Y-63980000D01*
X153442415Y-64007085D01*
X153277742Y-64060591D01*
X153123478Y-64139194D01*
X153035352Y-64203220D01*
X153468461Y-64636329D01*
X153392993Y-64679901D01*
X153299901Y-64772993D01*
X153256329Y-64848461D01*
X152823220Y-64415352D01*
X152759194Y-64503478D01*
X152680591Y-64657742D01*
X152627085Y-64822415D01*
X152600000Y-64993428D01*
X152600000Y-65166571D01*
X152627085Y-65337584D01*
X152680591Y-65502257D01*
X152759198Y-65656528D01*
X152823219Y-65744646D01*
X152823220Y-65744647D01*
X153256329Y-65311538D01*
X153299901Y-65387007D01*
X153392993Y-65480099D01*
X153468460Y-65523670D01*
X153035351Y-65956778D01*
X153035352Y-65956780D01*
X153123471Y-66020801D01*
X153277742Y-66099408D01*
X153442415Y-66152914D01*
X153613429Y-66180000D01*
X153786571Y-66180000D01*
X153957584Y-66152914D01*
X154122257Y-66099408D01*
X154276525Y-66020803D01*
X154364646Y-65956778D01*
X154364647Y-65956778D01*
X153931539Y-65523670D01*
X154007007Y-65480099D01*
X154100099Y-65387007D01*
X154143670Y-65311539D01*
X154576777Y-65744646D01*
X154590770Y-65743545D01*
X154659147Y-65757909D01*
X154708905Y-65806960D01*
X154724500Y-65867163D01*
X154724500Y-66859505D01*
X154704815Y-66926544D01*
X154652011Y-66972299D01*
X154582853Y-66982243D01*
X154519297Y-66953218D01*
X154512819Y-66947186D01*
X154369657Y-66804024D01*
X154273837Y-66740000D01*
X154197598Y-66689059D01*
X154006420Y-66609870D01*
X154006412Y-66609868D01*
X153803469Y-66569500D01*
X153803465Y-66569500D01*
X153596535Y-66569500D01*
X153596530Y-66569500D01*
X153393587Y-66609868D01*
X153393579Y-66609870D01*
X153202403Y-66689058D01*
X153030342Y-66804024D01*
X152884022Y-66950344D01*
X152774411Y-67114391D01*
X152720799Y-67159196D01*
X152671309Y-67169500D01*
X151707965Y-67169500D01*
X151678524Y-67160855D01*
X151648538Y-67154332D01*
X151643522Y-67150577D01*
X151640926Y-67149815D01*
X151620284Y-67133181D01*
X151556819Y-67069716D01*
X151523334Y-67008393D01*
X151520500Y-66982035D01*
X151520500Y-65442500D01*
X151537114Y-65380499D01*
X151569796Y-65323892D01*
X151569797Y-65323891D01*
X151569797Y-65323889D01*
X151569799Y-65323887D01*
X151582764Y-65275500D01*
X151600500Y-65209309D01*
X151600500Y-51087966D01*
X151609145Y-51058523D01*
X151615670Y-51028535D01*
X151619422Y-51023522D01*
X151620185Y-51020927D01*
X151636822Y-51000282D01*
X151650289Y-50986816D01*
X151711613Y-50953333D01*
X151737967Y-50950500D01*
X177712035Y-50950500D01*
X177779074Y-50970185D01*
G37*
%TD.AperFunction*%
%TA.AperFunction,Conductor*%
G36*
X195139206Y-52093185D02*
G01*
X195159848Y-52109819D01*
X195763181Y-52713152D01*
X195796666Y-52774475D01*
X195799500Y-52800833D01*
X195799500Y-58224167D01*
X195779815Y-58291206D01*
X195763181Y-58311848D01*
X195560848Y-58514181D01*
X195533920Y-58528884D01*
X195508102Y-58545477D01*
X195501901Y-58546368D01*
X195499525Y-58547666D01*
X195473167Y-58550500D01*
X195367128Y-58550500D01*
X195300089Y-58530815D01*
X195254334Y-58478011D01*
X195244390Y-58408853D01*
X195264026Y-58357610D01*
X195370940Y-58197600D01*
X195370940Y-58197599D01*
X195370941Y-58197598D01*
X195450130Y-58006420D01*
X195490500Y-57803465D01*
X195490500Y-57596535D01*
X195450130Y-57393580D01*
X195370941Y-57202402D01*
X195255977Y-57030345D01*
X195255975Y-57030342D01*
X195109657Y-56884024D01*
X194974961Y-56794024D01*
X194937598Y-56769059D01*
X194928880Y-56765448D01*
X194746420Y-56689870D01*
X194746412Y-56689868D01*
X194543469Y-56649500D01*
X194543465Y-56649500D01*
X194336535Y-56649500D01*
X194336530Y-56649500D01*
X194133587Y-56689868D01*
X194133579Y-56689870D01*
X193942403Y-56769058D01*
X193770342Y-56884024D01*
X193624024Y-57030342D01*
X193509058Y-57202403D01*
X193429870Y-57393579D01*
X193429868Y-57393587D01*
X193389500Y-57596530D01*
X193389500Y-57803469D01*
X193429868Y-58006412D01*
X193429871Y-58006424D01*
X193479803Y-58126971D01*
X193487272Y-58196440D01*
X193455997Y-58258919D01*
X193452923Y-58262104D01*
X192962848Y-58752181D01*
X192901525Y-58785666D01*
X192875167Y-58788500D01*
X192570568Y-58788500D01*
X192503529Y-58768815D01*
X192457774Y-58716011D01*
X192447830Y-58646853D01*
X192476855Y-58583297D01*
X192501675Y-58561398D01*
X192569655Y-58515977D01*
X192715977Y-58369655D01*
X192830941Y-58197598D01*
X192910130Y-58006420D01*
X192950500Y-57803465D01*
X192950500Y-57596535D01*
X192910130Y-57393580D01*
X192830941Y-57202402D01*
X192715977Y-57030345D01*
X192715975Y-57030342D01*
X192569657Y-56884024D01*
X192434961Y-56794024D01*
X192397598Y-56769059D01*
X192388880Y-56765448D01*
X192206420Y-56689870D01*
X192206412Y-56689868D01*
X192003469Y-56649500D01*
X192003465Y-56649500D01*
X191796535Y-56649500D01*
X191796530Y-56649500D01*
X191593587Y-56689868D01*
X191593579Y-56689870D01*
X191402403Y-56769058D01*
X191230342Y-56884024D01*
X191084024Y-57030342D01*
X190969058Y-57202403D01*
X190919125Y-57322953D01*
X190875284Y-57377356D01*
X190808990Y-57399421D01*
X190804564Y-57399500D01*
X190545507Y-57399500D01*
X190478468Y-57379815D01*
X190432713Y-57327011D01*
X190422769Y-57257853D01*
X190451794Y-57194297D01*
X190483506Y-57168113D01*
X190500958Y-57158037D01*
X190557314Y-57125500D01*
X190650500Y-57032314D01*
X190716392Y-56918186D01*
X190750500Y-56790892D01*
X190750500Y-56659108D01*
X190716392Y-56531814D01*
X190714801Y-56529059D01*
X190707563Y-56516521D01*
X190650500Y-56417686D01*
X190586818Y-56354004D01*
X190553334Y-56292680D01*
X190550500Y-56266323D01*
X190550500Y-55310439D01*
X190541267Y-55275981D01*
X190530021Y-55234011D01*
X190525634Y-55226412D01*
X190490464Y-55165495D01*
X190490458Y-55165487D01*
X190398399Y-55073428D01*
X190800000Y-55073428D01*
X190800000Y-55246571D01*
X190827085Y-55417584D01*
X190880591Y-55582257D01*
X190959198Y-55736528D01*
X191023219Y-55824646D01*
X191023220Y-55824647D01*
X191456329Y-55391538D01*
X191499901Y-55467007D01*
X191592993Y-55560099D01*
X191668460Y-55603670D01*
X191235351Y-56036778D01*
X191235352Y-56036780D01*
X191323471Y-56100801D01*
X191477742Y-56179408D01*
X191642415Y-56232914D01*
X191813429Y-56260000D01*
X191986571Y-56260000D01*
X192157584Y-56232914D01*
X192322257Y-56179408D01*
X192476525Y-56100803D01*
X192564646Y-56036778D01*
X192564647Y-56036778D01*
X192131539Y-55603670D01*
X192207007Y-55560099D01*
X192300099Y-55467007D01*
X192343670Y-55391538D01*
X192776778Y-55824647D01*
X192776778Y-55824646D01*
X192840803Y-55736525D01*
X192919408Y-55582257D01*
X192972914Y-55417584D01*
X193000000Y-55246571D01*
X193000000Y-55073428D01*
X192972914Y-54902415D01*
X192919408Y-54737742D01*
X192840801Y-54583471D01*
X192776780Y-54495352D01*
X192776778Y-54495351D01*
X192343670Y-54928460D01*
X192300099Y-54852993D01*
X192207007Y-54759901D01*
X192131538Y-54716329D01*
X192564647Y-54283220D01*
X192564646Y-54283219D01*
X192476528Y-54219198D01*
X192322257Y-54140591D01*
X192157584Y-54087085D01*
X191986571Y-54060000D01*
X191813429Y-54060000D01*
X191642415Y-54087085D01*
X191477742Y-54140591D01*
X191323478Y-54219194D01*
X191235352Y-54283220D01*
X191668461Y-54716329D01*
X191592993Y-54759901D01*
X191499901Y-54852993D01*
X191456329Y-54928461D01*
X191023220Y-54495352D01*
X190959194Y-54583478D01*
X190880591Y-54737742D01*
X190827085Y-54902415D01*
X190800000Y-55073428D01*
X190398399Y-55073428D01*
X189507616Y-54182645D01*
X189492723Y-54174047D01*
X189477829Y-54165448D01*
X189451938Y-54150500D01*
X189439097Y-54143086D01*
X189439096Y-54143085D01*
X189413619Y-54136258D01*
X189362668Y-54122606D01*
X189362666Y-54122606D01*
X187751895Y-54122606D01*
X187684856Y-54102921D01*
X187639101Y-54050117D01*
X187629157Y-53980959D01*
X187658182Y-53917403D01*
X187689894Y-53891219D01*
X187734511Y-53865460D01*
X187790460Y-53809511D01*
X188188152Y-53411819D01*
X188249475Y-53378334D01*
X188275833Y-53375500D01*
X192916324Y-53375500D01*
X192983363Y-53395185D01*
X193004005Y-53411819D01*
X193067686Y-53475500D01*
X193181814Y-53541392D01*
X193309108Y-53575500D01*
X193309110Y-53575500D01*
X193440890Y-53575500D01*
X193440892Y-53575500D01*
X193568186Y-53541392D01*
X193682314Y-53475500D01*
X193775500Y-53382314D01*
X193775500Y-53382313D01*
X193777819Y-53379995D01*
X193839142Y-53346510D01*
X193908834Y-53351494D01*
X193964767Y-53393366D01*
X193989184Y-53458830D01*
X193989500Y-53467676D01*
X193989500Y-53985500D01*
X193969815Y-54052539D01*
X193917011Y-54098294D01*
X193865500Y-54109500D01*
X193570247Y-54109500D01*
X193511770Y-54121131D01*
X193511769Y-54121132D01*
X193445447Y-54165447D01*
X193401132Y-54231769D01*
X193401131Y-54231770D01*
X193389500Y-54290247D01*
X193389500Y-56029752D01*
X193401131Y-56088229D01*
X193401132Y-56088230D01*
X193445447Y-56154552D01*
X193511769Y-56198867D01*
X193511770Y-56198868D01*
X193570247Y-56210499D01*
X193570250Y-56210500D01*
X193570252Y-56210500D01*
X195309750Y-56210500D01*
X195309751Y-56210499D01*
X195324568Y-56207552D01*
X195368229Y-56198868D01*
X195368229Y-56198867D01*
X195368231Y-56198867D01*
X195434552Y-56154552D01*
X195478867Y-56088231D01*
X195478867Y-56088229D01*
X195478868Y-56088229D01*
X195490499Y-56029752D01*
X195490500Y-56029750D01*
X195490500Y-54290249D01*
X195490499Y-54290247D01*
X195478868Y-54231770D01*
X195478867Y-54231769D01*
X195434552Y-54165447D01*
X195368230Y-54121132D01*
X195368229Y-54121131D01*
X195309752Y-54109500D01*
X195309748Y-54109500D01*
X195014500Y-54109500D01*
X194947461Y-54089815D01*
X194901706Y-54037011D01*
X194890500Y-53985500D01*
X194890500Y-52480693D01*
X194890500Y-52480691D01*
X194859799Y-52366114D01*
X194859799Y-52366113D01*
X194800489Y-52263386D01*
X194800486Y-52263383D01*
X194798245Y-52259501D01*
X194796812Y-52253598D01*
X194792838Y-52249011D01*
X194788673Y-52220048D01*
X194781772Y-52191601D01*
X194783758Y-52185862D01*
X194782894Y-52179853D01*
X194795052Y-52153230D01*
X194804624Y-52125574D01*
X194809396Y-52121820D01*
X194811919Y-52116297D01*
X194836542Y-52100472D01*
X194859545Y-52082383D01*
X194866895Y-52080966D01*
X194870697Y-52078523D01*
X194905632Y-52073500D01*
X195072167Y-52073500D01*
X195139206Y-52093185D01*
G37*
%TD.AperFunction*%
%TA.AperFunction,Conductor*%
G36*
X196366206Y-46595185D02*
G01*
X196386848Y-46611819D01*
X196563181Y-46788152D01*
X196596666Y-46849475D01*
X196599500Y-46875833D01*
X196599500Y-52426385D01*
X196579815Y-52493424D01*
X196527011Y-52539179D01*
X196457853Y-52549123D01*
X196394297Y-52520098D01*
X196368113Y-52488385D01*
X196340462Y-52440492D01*
X196340458Y-52440487D01*
X195432512Y-51532541D01*
X195432504Y-51532535D01*
X195363995Y-51492982D01*
X195363990Y-51492979D01*
X195338513Y-51486152D01*
X195287562Y-51472500D01*
X195287560Y-51472500D01*
X187923833Y-51472500D01*
X187894392Y-51463855D01*
X187864406Y-51457332D01*
X187859390Y-51453577D01*
X187856794Y-51452815D01*
X187836152Y-51436181D01*
X187811819Y-51411848D01*
X187778334Y-51350525D01*
X187775500Y-51324167D01*
X187775500Y-51234110D01*
X187775500Y-51234108D01*
X187741392Y-51106814D01*
X187675500Y-50992686D01*
X187582314Y-50899500D01*
X187505723Y-50855280D01*
X187468187Y-50833608D01*
X187401318Y-50815691D01*
X187340892Y-50799500D01*
X187209108Y-50799500D01*
X187081811Y-50833608D01*
X187033223Y-50861661D01*
X186965322Y-50878132D01*
X186899296Y-50855280D01*
X186856106Y-50800358D01*
X186848285Y-50770458D01*
X186835864Y-50676113D01*
X186835687Y-50674764D01*
X186777698Y-50534767D01*
X186685451Y-50414549D01*
X186565233Y-50322302D01*
X186537605Y-50310858D01*
X186477046Y-50285773D01*
X186461480Y-50273229D01*
X186443297Y-50264925D01*
X186434832Y-50251754D01*
X186422643Y-50241931D01*
X186416330Y-50222963D01*
X186405523Y-50206147D01*
X186401560Y-50178584D01*
X186400579Y-50175637D01*
X186400500Y-50171212D01*
X186400500Y-50027611D01*
X186420185Y-49960572D01*
X186436819Y-49939930D01*
X186523523Y-49853225D01*
X186523528Y-49853220D01*
X186584719Y-49733126D01*
X186584719Y-49733123D01*
X186589149Y-49724430D01*
X186591423Y-49725588D01*
X186622742Y-49679777D01*
X186687098Y-49652572D01*
X186755946Y-49664479D01*
X186807427Y-49711718D01*
X186817428Y-49732428D01*
X186853814Y-49829982D01*
X186853815Y-49829984D01*
X186935670Y-49939329D01*
X187045015Y-50021184D01*
X187045016Y-50021185D01*
X187172991Y-50068917D01*
X187172994Y-50068918D01*
X187229555Y-50074999D01*
X187349999Y-50074999D01*
X187650000Y-50074999D01*
X187770433Y-50074999D01*
X187770439Y-50074998D01*
X187827007Y-50068918D01*
X187954981Y-50021186D01*
X187954984Y-50021184D01*
X188064329Y-49939329D01*
X188146184Y-49829984D01*
X188146185Y-49829983D01*
X188193916Y-49702010D01*
X188199999Y-49645428D01*
X188200000Y-49645427D01*
X188200000Y-49500000D01*
X187650000Y-49500000D01*
X187650000Y-50074999D01*
X187349999Y-50074999D01*
X187350000Y-50074998D01*
X187350000Y-49200000D01*
X187650000Y-49200000D01*
X188199999Y-49200000D01*
X188199999Y-49054566D01*
X188199998Y-49054560D01*
X188193918Y-48997992D01*
X188146186Y-48870018D01*
X188146184Y-48870015D01*
X188064329Y-48760670D01*
X187954984Y-48678815D01*
X187954983Y-48678814D01*
X187827010Y-48631083D01*
X187770428Y-48625000D01*
X187650000Y-48625000D01*
X187650000Y-49200000D01*
X187350000Y-49200000D01*
X187350000Y-48625000D01*
X187229566Y-48625000D01*
X187229559Y-48625001D01*
X187172992Y-48631081D01*
X187045018Y-48678813D01*
X187045015Y-48678815D01*
X186935670Y-48760670D01*
X186853815Y-48870015D01*
X186853811Y-48870022D01*
X186817427Y-48967571D01*
X186775556Y-49023505D01*
X186710091Y-49047921D01*
X186641818Y-49033069D01*
X186592413Y-48983663D01*
X186587693Y-48972714D01*
X186584719Y-48966878D01*
X186584719Y-48966874D01*
X186523528Y-48846780D01*
X186523526Y-48846778D01*
X186523523Y-48846774D01*
X186428225Y-48751476D01*
X186428221Y-48751473D01*
X186428220Y-48751472D01*
X186308126Y-48690281D01*
X186308124Y-48690280D01*
X186308121Y-48690279D01*
X186208493Y-48674500D01*
X186208488Y-48674500D01*
X185691512Y-48674500D01*
X185691507Y-48674500D01*
X185591878Y-48690279D01*
X185471778Y-48751473D01*
X185471774Y-48751476D01*
X185376476Y-48846774D01*
X185375311Y-48848379D01*
X185373392Y-48849858D01*
X185369571Y-48853680D01*
X185369077Y-48853186D01*
X185319983Y-48891048D01*
X185274988Y-48899500D01*
X181495434Y-48899500D01*
X181428395Y-48879815D01*
X181382640Y-48827011D01*
X181372696Y-48757853D01*
X181395664Y-48701866D01*
X181450359Y-48627755D01*
X181497031Y-48494379D01*
X181500000Y-48462722D01*
X181500000Y-48368713D01*
X192724500Y-48368713D01*
X192724500Y-48581286D01*
X192756988Y-48786410D01*
X192757754Y-48791243D01*
X192820275Y-48983663D01*
X192823444Y-48993414D01*
X192919951Y-49182820D01*
X193044890Y-49354786D01*
X193195213Y-49505109D01*
X193367179Y-49630048D01*
X193367181Y-49630049D01*
X193367184Y-49630051D01*
X193556588Y-49726557D01*
X193758757Y-49792246D01*
X193968713Y-49825500D01*
X193968714Y-49825500D01*
X194181286Y-49825500D01*
X194181287Y-49825500D01*
X194391243Y-49792246D01*
X194593412Y-49726557D01*
X194782816Y-49630051D01*
X194898257Y-49546179D01*
X194954786Y-49505109D01*
X194954788Y-49505106D01*
X194954792Y-49505104D01*
X195105104Y-49354792D01*
X195105106Y-49354788D01*
X195105109Y-49354786D01*
X195230048Y-49182820D01*
X195230047Y-49182820D01*
X195230051Y-49182816D01*
X195326557Y-48993412D01*
X195392246Y-48791243D01*
X195425500Y-48581287D01*
X195425500Y-48368713D01*
X195392246Y-48158757D01*
X195326557Y-47956588D01*
X195230051Y-47767184D01*
X195230049Y-47767181D01*
X195230048Y-47767179D01*
X195105109Y-47595213D01*
X194954786Y-47444890D01*
X194782820Y-47319951D01*
X194593414Y-47223444D01*
X194593413Y-47223443D01*
X194593412Y-47223443D01*
X194391243Y-47157754D01*
X194391241Y-47157753D01*
X194391240Y-47157753D01*
X194229957Y-47132208D01*
X194181287Y-47124500D01*
X193968713Y-47124500D01*
X193920042Y-47132208D01*
X193758760Y-47157753D01*
X193556585Y-47223444D01*
X193367179Y-47319951D01*
X193195213Y-47444890D01*
X193044890Y-47595213D01*
X192919951Y-47767179D01*
X192823444Y-47956585D01*
X192823443Y-47956587D01*
X192823443Y-47956588D01*
X192812428Y-47990489D01*
X192757753Y-48158760D01*
X192724500Y-48368713D01*
X181500000Y-48368713D01*
X181500000Y-48300000D01*
X180125000Y-48300000D01*
X180125000Y-48462722D01*
X180127968Y-48494379D01*
X180174640Y-48627755D01*
X180229336Y-48701866D01*
X180253307Y-48767495D01*
X180237992Y-48835666D01*
X180188251Y-48884734D01*
X180129566Y-48899500D01*
X179855272Y-48899500D01*
X179788233Y-48879815D01*
X179742478Y-48827011D01*
X179732534Y-48757853D01*
X179761559Y-48694297D01*
X179767591Y-48687819D01*
X179799653Y-48655756D01*
X179799658Y-48655751D01*
X179859951Y-48537420D01*
X179859951Y-48537418D01*
X179859952Y-48537417D01*
X179875500Y-48439251D01*
X179875500Y-47860748D01*
X179859952Y-47762582D01*
X179836820Y-47717184D01*
X179799658Y-47644249D01*
X179799654Y-47644245D01*
X179799653Y-47644243D01*
X179742591Y-47587181D01*
X179709106Y-47525858D01*
X179714090Y-47456166D01*
X179755962Y-47400233D01*
X179821426Y-47375816D01*
X179830272Y-47375500D01*
X180148017Y-47375500D01*
X180215056Y-47395185D01*
X180260811Y-47447989D01*
X180270755Y-47517147D01*
X180247787Y-47573134D01*
X180174640Y-47672244D01*
X180127968Y-47805620D01*
X180125000Y-47837277D01*
X180125000Y-48000000D01*
X181500000Y-48000000D01*
X181500000Y-47837277D01*
X181497031Y-47805620D01*
X181450359Y-47672244D01*
X181377213Y-47573134D01*
X181353242Y-47507505D01*
X181368557Y-47439335D01*
X181418297Y-47390266D01*
X181476983Y-47375500D01*
X186816324Y-47375500D01*
X186883363Y-47395185D01*
X186904005Y-47411819D01*
X186967686Y-47475500D01*
X187081814Y-47541392D01*
X187209108Y-47575500D01*
X187209110Y-47575500D01*
X187340890Y-47575500D01*
X187340892Y-47575500D01*
X187468186Y-47541392D01*
X187582314Y-47475500D01*
X187675500Y-47382314D01*
X187741392Y-47268186D01*
X187775500Y-47140892D01*
X187775500Y-47009108D01*
X187741392Y-46881814D01*
X187675500Y-46767686D01*
X187675497Y-46767683D01*
X187671928Y-46761501D01*
X187655455Y-46693601D01*
X187678307Y-46627574D01*
X187733228Y-46584383D01*
X187779315Y-46575500D01*
X196299167Y-46575500D01*
X196366206Y-46595185D01*
G37*
%TD.AperFunction*%
%TD*%
M02*
