%TF.GenerationSoftware,KiCad,Pcbnew,9.0.6*%
%TF.CreationDate,2025-12-21T22:24:18+01:00*%
%TF.ProjectId,drone_v2,64726f6e-655f-4763-922e-6b696361645f,rev?*%
%TF.SameCoordinates,Original*%
%TF.FileFunction,Copper,L1,Top*%
%TF.FilePolarity,Positive*%
%FSLAX46Y46*%
G04 Gerber Fmt 4.6, Leading zero omitted, Abs format (unit mm)*
G04 Created by KiCad (PCBNEW 9.0.6) date 2025-12-21 22:24:18*
%MOMM*%
%LPD*%
G01*
G04 APERTURE LIST*
%TA.AperFunction,NonConductor*%
%ADD10C,0.200000*%
%TD*%
%TA.AperFunction,ComponentPad*%
%ADD11R,1.700000X1.700000*%
%TD*%
%TA.AperFunction,ComponentPad*%
%ADD12C,1.700000*%
%TD*%
%TA.AperFunction,HeatsinkPad*%
%ADD13C,0.600000*%
%TD*%
%TA.AperFunction,ComponentPad*%
%ADD14R,1.000000X1.000000*%
%TD*%
%TA.AperFunction,ComponentPad*%
%ADD15C,1.000000*%
%TD*%
%TA.AperFunction,ViaPad*%
%ADD16C,0.600000*%
%TD*%
%TA.AperFunction,Conductor*%
%ADD17C,0.200000*%
%TD*%
%TA.AperFunction,Conductor*%
%ADD18C,0.500000*%
%TD*%
G04 APERTURE END LIST*
D10*
X212750000Y-34250000D02*
X213000000Y-34250000D01*
X213000000Y-74250000D01*
X212750000Y-74250000D01*
X212750000Y-34250000D01*
D11*
%TO.P,J1,1,Pin_1*%
%TO.N,unconnected-(J1-Pin_1-Pad1)*%
X153700000Y-52380000D03*
D12*
%TO.P,J1,2,Pin_2*%
%TO.N,unconnected-(J1-Pin_2-Pad2)*%
X153700000Y-54920000D03*
%TO.P,J1,3,Pin_3*%
%TO.N,unconnected-(J1-Pin_3-Pad3)*%
X153700000Y-57460000D03*
%TO.P,J1,4,Pin_4*%
%TO.N,/R*%
X153700000Y-60000000D03*
%TO.P,J1,5,Pin_5*%
%TO.N,/T*%
X153700000Y-62540000D03*
%TO.P,J1,6,Pin_6*%
%TO.N,/G*%
X153700000Y-65080000D03*
%TO.P,J1,7,Pin_7*%
%TO.N,/3v3*%
X153700000Y-67620000D03*
%TD*%
D11*
%TO.P,J4,1,Pin_1*%
%TO.N,unconnected-(J4-Pin_1-Pad1)*%
X137800000Y-55070000D03*
D12*
%TO.P,J4,2,Pin_2*%
%TO.N,/SDA*%
X137800000Y-57610000D03*
%TO.P,J4,3,Pin_3*%
%TO.N,/SCL*%
X137800000Y-60150000D03*
%TO.P,J4,4,Pin_4*%
%TO.N,/G*%
X137800000Y-62690000D03*
%TO.P,J4,5,Pin_5*%
%TO.N,/3v3*%
X137800000Y-65230000D03*
%TD*%
D11*
%TO.P,J6,1,Pin_1*%
%TO.N,/5V*%
X194440000Y-55160000D03*
D12*
%TO.P,J6,2,Pin_2*%
%TO.N,/G*%
X191900000Y-55160000D03*
%TO.P,J6,3,Pin_3*%
%TO.N,/GPIO16*%
X194440000Y-57700000D03*
%TO.P,J6,4,Pin_4*%
%TO.N,/GPIO17*%
X191900000Y-57700000D03*
%TO.P,J6,5,Pin_5*%
%TO.N,/SCL*%
X194440000Y-60240000D03*
%TO.P,J6,6,Pin_6*%
%TO.N,/RX*%
X191900000Y-60240000D03*
%TO.P,J6,7,Pin_7*%
%TO.N,/TX*%
X194440000Y-62780000D03*
%TO.P,J6,8,Pin_8*%
%TO.N,/R*%
X191900000Y-62780000D03*
%TO.P,J6,9,Pin_9*%
%TO.N,/T*%
X194440000Y-65320000D03*
%TO.P,J6,10,Pin_10*%
%TO.N,/SDA*%
X191900000Y-65320000D03*
%TD*%
D13*
%TO.P,U1,39,GND*%
%TO.N,/G*%
X162450000Y-65450000D03*
X162450000Y-66850000D03*
X163150000Y-64750000D03*
X163150000Y-66150000D03*
X163150000Y-67550000D03*
X163850000Y-65450000D03*
X163850000Y-66850000D03*
X164550000Y-64750000D03*
X164550000Y-66150000D03*
X164550000Y-67550000D03*
X165250000Y-65450000D03*
X165250000Y-66850000D03*
%TD*%
D14*
%TO.P,J3,1,Pin_1*%
%TO.N,/TX*%
X143250000Y-48825000D03*
D15*
%TO.P,J3,2,Pin_2*%
%TO.N,/RX*%
X144520000Y-48825000D03*
%TO.P,J3,3,Pin_3*%
%TO.N,/5V*%
X145790000Y-48825000D03*
%TO.P,J3,4,Pin_4*%
%TO.N,/G*%
X147060000Y-48825000D03*
%TD*%
D11*
%TO.P,J5,1,Pin_1*%
%TO.N,/3v3*%
X179525000Y-65300000D03*
D12*
%TO.P,J5,2,Pin_2*%
%TO.N,/G*%
X179525000Y-67840000D03*
%TO.P,J5,3,Pin_3*%
%TO.N,/GPIO17*%
X179525000Y-70380000D03*
%TO.P,J5,4,Pin_4*%
%TO.N,/GPIO16*%
X179525000Y-72920000D03*
%TD*%
D16*
%TO.N,Net-(U1-IO2)*%
X172000000Y-48200000D03*
%TO.N,/RX*%
X187275000Y-51300000D03*
%TO.N,/3v3*%
X151400000Y-73950000D03*
X151070000Y-69420000D03*
%TO.N,/GPIO16*%
X177925000Y-63375000D03*
X176575735Y-60125735D03*
X176075000Y-63350000D03*
X182675000Y-63400000D03*
X176575735Y-62224265D03*
X180925000Y-63350000D03*
X179000000Y-63350000D03*
X189350000Y-63375000D03*
%TO.N,/GPIO17*%
X182555925Y-62370559D03*
X180950000Y-62425000D03*
X178950000Y-62425000D03*
X188525000Y-62400000D03*
%TO.N,/R*%
X184630042Y-54423106D03*
X190250000Y-56725000D03*
X156050000Y-54175000D03*
X190225000Y-60100000D03*
X177225000Y-54450000D03*
X164548640Y-54225000D03*
%TO.N,/SCL*%
X164418862Y-53435595D03*
X196100000Y-59900000D03*
X152425000Y-53650000D03*
X184575000Y-53625000D03*
X149650000Y-53600000D03*
X156050000Y-53374997D03*
X193375000Y-53075000D03*
X177200000Y-53625000D03*
%TO.N,/SDA*%
X189800000Y-65300000D03*
X145300000Y-59425000D03*
X143450000Y-57650000D03*
X149825000Y-63975000D03*
%TO.N,/T*%
X155025000Y-69175000D03*
X184900000Y-69575000D03*
%TO.N,Net-(U1-EN)*%
X150100000Y-71375000D03*
X153200000Y-69650000D03*
%TO.N,Net-(U1-IO0)*%
X182025000Y-64250000D03*
X179225000Y-60067831D03*
%TO.N,Net-(U1-IO2)*%
X171075000Y-55050000D03*
%TO.N,/5V*%
X151075000Y-49400000D03*
%TO.N,/RX*%
X187275000Y-47075000D03*
%TD*%
D17*
%TO.N,Net-(U1-IO2)*%
X172000000Y-52100000D02*
X171075000Y-53025000D01*
X172000000Y-48200000D02*
X172000000Y-52100000D01*
%TO.N,/RX*%
X187275000Y-47075000D02*
X187275000Y-51300000D01*
D18*
%TO.N,/3v3*%
X151070000Y-69420000D02*
X151070000Y-73620000D01*
X151070000Y-73620000D02*
X151400000Y-73950000D01*
D17*
%TO.N,/GPIO16*%
X180925000Y-63350000D02*
X179000000Y-63350000D01*
X182700000Y-63375000D02*
X182675000Y-63400000D01*
X177925000Y-63375000D02*
X177900000Y-63350000D01*
X176575735Y-62224265D02*
X176575735Y-60125735D01*
X189350000Y-63375000D02*
X182700000Y-63375000D01*
X177900000Y-63350000D02*
X176075000Y-63350000D01*
%TO.N,/GPIO17*%
X188525000Y-62400000D02*
X182585366Y-62400000D01*
X182585366Y-62400000D02*
X182555925Y-62370559D01*
X180950000Y-62425000D02*
X178950000Y-62425000D01*
%TO.N,/R*%
X182601894Y-54423106D02*
X182575000Y-54450000D01*
X156298943Y-53975997D02*
X156249003Y-53975997D01*
X159712500Y-51879600D02*
X157755505Y-53836595D01*
X164169919Y-54036595D02*
X163969919Y-53836595D01*
X161669495Y-53836595D02*
X159712500Y-51879600D01*
X190225000Y-56750000D02*
X190250000Y-56725000D01*
X164360235Y-54036595D02*
X164169919Y-54036595D01*
X184630042Y-54423106D02*
X182601894Y-54423106D01*
X156438345Y-53836595D02*
X156298943Y-53975997D01*
X177225000Y-54450000D02*
X182575000Y-54450000D01*
X164548640Y-54225000D02*
X164360235Y-54036595D01*
X163969919Y-53836595D02*
X161669495Y-53836595D01*
X157755505Y-53836595D02*
X156438345Y-53836595D01*
X156249003Y-53975997D02*
X156050000Y-54175000D01*
X190225000Y-60100000D02*
X190225000Y-56750000D01*
%TO.N,/SCL*%
X156110598Y-53435595D02*
X156050000Y-53374997D01*
X196100000Y-53525000D02*
X196100000Y-59900000D01*
X164418862Y-53435595D02*
X161835595Y-53435595D01*
X184575000Y-53625000D02*
X177200000Y-53625000D01*
X195650000Y-53075000D02*
X196100000Y-53525000D01*
X193375000Y-53075000D02*
X195650000Y-53075000D01*
X159712500Y-51312500D02*
X157589405Y-53435595D01*
X157589405Y-53435595D02*
X156110598Y-53435595D01*
X152375000Y-53600000D02*
X149650000Y-53600000D01*
X152425000Y-53650000D02*
X152375000Y-53600000D01*
X161835595Y-53435595D02*
X159712500Y-51312500D01*
%TO.N,/SDA*%
X173875000Y-62325000D02*
X157925000Y-62325000D01*
X145300000Y-59425000D02*
X143525000Y-57650000D01*
X149871000Y-63929000D02*
X149825000Y-63975000D01*
X143525000Y-57650000D02*
X143450000Y-57650000D01*
X181827000Y-65302000D02*
X181827000Y-65300000D01*
X175526000Y-63976000D02*
X173875000Y-62325000D01*
X188250000Y-66850000D02*
X183375000Y-66850000D01*
X183375000Y-66850000D02*
X181827000Y-65302000D01*
X189800000Y-65300000D02*
X188250000Y-66850000D01*
X157925000Y-62325000D02*
X156321000Y-63929000D01*
X149871000Y-63929000D02*
X156321000Y-63929000D01*
X181827000Y-65300000D02*
X180503000Y-63976000D01*
X180503000Y-63976000D02*
X175526000Y-63976000D01*
%TO.N,/T*%
X184900000Y-69575000D02*
X184500000Y-69175000D01*
X184500000Y-69175000D02*
X155025000Y-69175000D01*
%TO.N,Net-(U1-EN)*%
X150100000Y-69540057D02*
X150821057Y-68819000D01*
X151544000Y-68819000D02*
X152375000Y-69650000D01*
X150821057Y-68819000D02*
X151544000Y-68819000D01*
X150100000Y-71375000D02*
X150100000Y-69540057D01*
X152375000Y-69650000D02*
X153200000Y-69650000D01*
%TO.N,Net-(U1-IO0)*%
X179442774Y-60067831D02*
X179225000Y-60067831D01*
X182025000Y-64250000D02*
X182025000Y-62650057D01*
X182025000Y-62650057D02*
X179442774Y-60067831D01*
%TO.N,Net-(U1-IO2)*%
X171075000Y-53025000D02*
X171075000Y-55050000D01*
D18*
%TO.N,/5V*%
X145790000Y-50640000D02*
X145790000Y-48825000D01*
X145790000Y-50640000D02*
X146075000Y-50925000D01*
X151075000Y-49400000D02*
X151075000Y-49600000D01*
X149750000Y-50925000D02*
X146075000Y-50925000D01*
X151075000Y-49600000D02*
X149750000Y-50925000D01*
%TD*%
%TA.AperFunction,Conductor*%
%TO.N,/G*%
G36*
X196967539Y-46045185D02*
G01*
X197013294Y-46097989D01*
X197024500Y-46149500D01*
X197024500Y-74325500D01*
X197004815Y-74392539D01*
X196952011Y-74438294D01*
X196900500Y-74449500D01*
X151904315Y-74449500D01*
X151837276Y-74429815D01*
X151791521Y-74377011D01*
X151781577Y-74307853D01*
X151796928Y-74263499D01*
X151800497Y-74257316D01*
X151800500Y-74257314D01*
X151866392Y-74143186D01*
X151900500Y-74015892D01*
X151900500Y-73884108D01*
X151866392Y-73756814D01*
X151866372Y-73756780D01*
X151821643Y-73679307D01*
X151800500Y-73642686D01*
X151707314Y-73549500D01*
X151593186Y-73483608D01*
X151593185Y-73483607D01*
X151586147Y-73479544D01*
X151587376Y-73477413D01*
X151542645Y-73441367D01*
X151520579Y-73375073D01*
X151520500Y-73370646D01*
X151520500Y-72816530D01*
X178474500Y-72816530D01*
X178474500Y-73023469D01*
X178514868Y-73226412D01*
X178514870Y-73226420D01*
X178588860Y-73405048D01*
X178594059Y-73417598D01*
X178609941Y-73441367D01*
X178709024Y-73589657D01*
X178855342Y-73735975D01*
X178855345Y-73735977D01*
X179027402Y-73850941D01*
X179218580Y-73930130D01*
X179421530Y-73970499D01*
X179421534Y-73970500D01*
X179421535Y-73970500D01*
X179628466Y-73970500D01*
X179628467Y-73970499D01*
X179831420Y-73930130D01*
X180022598Y-73850941D01*
X180194655Y-73735977D01*
X180340977Y-73589655D01*
X180455941Y-73417598D01*
X180535130Y-73226420D01*
X180575500Y-73023465D01*
X180575500Y-72816535D01*
X180535130Y-72613580D01*
X180455941Y-72422402D01*
X180340977Y-72250345D01*
X180340975Y-72250342D01*
X180234346Y-72143713D01*
X192874500Y-72143713D01*
X192874500Y-72356287D01*
X192907754Y-72566243D01*
X192923134Y-72613579D01*
X192973444Y-72768414D01*
X193069951Y-72957820D01*
X193194890Y-73129786D01*
X193345213Y-73280109D01*
X193517179Y-73405048D01*
X193517181Y-73405049D01*
X193517184Y-73405051D01*
X193706588Y-73501557D01*
X193908757Y-73567246D01*
X194118713Y-73600500D01*
X194118714Y-73600500D01*
X194331286Y-73600500D01*
X194331287Y-73600500D01*
X194541243Y-73567246D01*
X194743412Y-73501557D01*
X194932816Y-73405051D01*
X194954789Y-73389086D01*
X195104786Y-73280109D01*
X195104788Y-73280106D01*
X195104792Y-73280104D01*
X195255104Y-73129792D01*
X195255106Y-73129788D01*
X195255109Y-73129786D01*
X195380048Y-72957820D01*
X195380047Y-72957820D01*
X195380051Y-72957816D01*
X195476557Y-72768412D01*
X195542246Y-72566243D01*
X195575500Y-72356287D01*
X195575500Y-72143713D01*
X195542246Y-71933757D01*
X195476557Y-71731588D01*
X195380051Y-71542184D01*
X195380049Y-71542181D01*
X195380048Y-71542179D01*
X195255109Y-71370213D01*
X195104786Y-71219890D01*
X194932820Y-71094951D01*
X194743414Y-70998444D01*
X194743413Y-70998443D01*
X194743412Y-70998443D01*
X194541243Y-70932754D01*
X194541241Y-70932753D01*
X194541240Y-70932753D01*
X194379957Y-70907208D01*
X194331287Y-70899500D01*
X194118713Y-70899500D01*
X194070042Y-70907208D01*
X193908760Y-70932753D01*
X193706585Y-70998444D01*
X193517179Y-71094951D01*
X193345213Y-71219890D01*
X193194890Y-71370213D01*
X193069951Y-71542179D01*
X192973444Y-71731585D01*
X192907753Y-71933760D01*
X192898995Y-71989058D01*
X192874500Y-72143713D01*
X180234346Y-72143713D01*
X180194657Y-72104024D01*
X180108626Y-72046541D01*
X180022598Y-71989059D01*
X179831420Y-71909870D01*
X179831412Y-71909868D01*
X179628469Y-71869500D01*
X179628465Y-71869500D01*
X179421535Y-71869500D01*
X179421530Y-71869500D01*
X179218587Y-71909868D01*
X179218579Y-71909870D01*
X179027403Y-71989058D01*
X178855342Y-72104024D01*
X178709024Y-72250342D01*
X178594058Y-72422403D01*
X178514870Y-72613579D01*
X178514868Y-72613587D01*
X178474500Y-72816530D01*
X151520500Y-72816530D01*
X151520500Y-69673936D01*
X151525783Y-69638128D01*
X151529930Y-69624377D01*
X151536392Y-69613186D01*
X151560945Y-69521549D01*
X151561493Y-69519735D01*
X151579581Y-69492038D01*
X151596799Y-69463790D01*
X151598602Y-69462914D01*
X151599698Y-69461236D01*
X151629881Y-69447718D01*
X151659645Y-69433260D01*
X151661636Y-69433498D01*
X151663465Y-69432679D01*
X151696170Y-69437626D01*
X151729021Y-69441554D01*
X151731004Y-69442896D01*
X151732549Y-69443130D01*
X151736555Y-69446653D01*
X151767891Y-69467862D01*
X152134540Y-69834511D01*
X152190489Y-69890460D01*
X152190491Y-69890461D01*
X152190495Y-69890464D01*
X152259004Y-69930017D01*
X152259011Y-69930021D01*
X152335438Y-69950500D01*
X152741324Y-69950500D01*
X152808363Y-69970185D01*
X152829005Y-69986819D01*
X152892686Y-70050500D01*
X153006814Y-70116392D01*
X153134108Y-70150500D01*
X153134110Y-70150500D01*
X153265890Y-70150500D01*
X153265892Y-70150500D01*
X153393186Y-70116392D01*
X153507314Y-70050500D01*
X153600500Y-69957314D01*
X153666392Y-69843186D01*
X153700500Y-69715892D01*
X153700500Y-69584108D01*
X153666392Y-69456814D01*
X153600500Y-69342686D01*
X153507314Y-69249500D01*
X153507312Y-69249499D01*
X153507310Y-69249497D01*
X153436072Y-69208368D01*
X153436071Y-69208368D01*
X153393187Y-69183608D01*
X153329539Y-69166554D01*
X153265892Y-69149500D01*
X153134108Y-69149500D01*
X153006812Y-69183608D01*
X152892686Y-69249500D01*
X152892683Y-69249502D01*
X152829005Y-69313181D01*
X152802077Y-69327884D01*
X152776259Y-69344477D01*
X152770058Y-69345368D01*
X152767682Y-69346666D01*
X152741324Y-69349500D01*
X152550833Y-69349500D01*
X152483794Y-69329815D01*
X152463152Y-69313181D01*
X152259079Y-69109108D01*
X154524500Y-69109108D01*
X154524500Y-69240892D01*
X154540230Y-69299597D01*
X154558608Y-69368187D01*
X154566475Y-69381812D01*
X154624500Y-69482314D01*
X154717686Y-69575500D01*
X154816521Y-69632563D01*
X154830944Y-69640890D01*
X154831814Y-69641392D01*
X154959108Y-69675500D01*
X154959110Y-69675500D01*
X155090890Y-69675500D01*
X155090892Y-69675500D01*
X155218186Y-69641392D01*
X155332314Y-69575500D01*
X155395995Y-69511819D01*
X155457318Y-69478334D01*
X155483676Y-69475500D01*
X178644505Y-69475500D01*
X178711544Y-69495185D01*
X178757299Y-69547989D01*
X178767243Y-69617147D01*
X178738218Y-69680703D01*
X178732186Y-69687181D01*
X178709025Y-69710341D01*
X178709024Y-69710342D01*
X178594058Y-69882403D01*
X178514870Y-70073579D01*
X178514868Y-70073587D01*
X178474500Y-70276530D01*
X178474500Y-70483469D01*
X178514868Y-70686412D01*
X178514870Y-70686420D01*
X178594059Y-70877598D01*
X178619934Y-70916323D01*
X178709024Y-71049657D01*
X178855342Y-71195975D01*
X178855345Y-71195977D01*
X179027402Y-71310941D01*
X179218580Y-71390130D01*
X179421530Y-71430499D01*
X179421534Y-71430500D01*
X179421535Y-71430500D01*
X179628466Y-71430500D01*
X179628467Y-71430499D01*
X179831420Y-71390130D01*
X180022598Y-71310941D01*
X180194655Y-71195977D01*
X180340977Y-71049655D01*
X180455941Y-70877598D01*
X180535130Y-70686420D01*
X180575500Y-70483465D01*
X180575500Y-70276535D01*
X180535130Y-70073580D01*
X180455941Y-69882402D01*
X180340977Y-69710345D01*
X180340975Y-69710342D01*
X180317814Y-69687181D01*
X180284329Y-69625858D01*
X180289313Y-69556166D01*
X180331185Y-69500233D01*
X180396649Y-69475816D01*
X180405495Y-69475500D01*
X184275500Y-69475500D01*
X184342539Y-69495185D01*
X184388294Y-69547989D01*
X184399500Y-69599500D01*
X184399500Y-69640891D01*
X184433608Y-69768187D01*
X184466554Y-69825250D01*
X184499500Y-69882314D01*
X184592686Y-69975500D01*
X184706814Y-70041392D01*
X184834108Y-70075500D01*
X184834110Y-70075500D01*
X184965890Y-70075500D01*
X184965892Y-70075500D01*
X185093186Y-70041392D01*
X185207314Y-69975500D01*
X185300500Y-69882314D01*
X185366392Y-69768186D01*
X185400500Y-69640892D01*
X185400500Y-69509108D01*
X185366392Y-69381814D01*
X185300500Y-69267686D01*
X185207314Y-69174500D01*
X185150250Y-69141554D01*
X185093187Y-69108608D01*
X185029539Y-69091554D01*
X184965892Y-69074500D01*
X184875833Y-69074500D01*
X184848521Y-69066480D01*
X184820499Y-69061469D01*
X184812952Y-69056036D01*
X184808794Y-69054815D01*
X184791477Y-69041385D01*
X184789792Y-69039821D01*
X184684511Y-68934540D01*
X184675066Y-68929087D01*
X184615991Y-68894980D01*
X184615990Y-68894979D01*
X184590513Y-68888152D01*
X184539562Y-68874500D01*
X184539560Y-68874500D01*
X180311377Y-68874500D01*
X180244338Y-68854815D01*
X180198583Y-68802011D01*
X180187759Y-68740772D01*
X180189647Y-68716778D01*
X179756539Y-68283670D01*
X179832007Y-68240099D01*
X179925099Y-68147007D01*
X179968670Y-68071539D01*
X180401778Y-68504647D01*
X180401778Y-68504646D01*
X180465803Y-68416525D01*
X180544408Y-68262257D01*
X180597914Y-68097584D01*
X180625000Y-67926571D01*
X180625000Y-67753428D01*
X180597914Y-67582415D01*
X180544408Y-67417742D01*
X180465801Y-67263471D01*
X180401780Y-67175352D01*
X180401778Y-67175351D01*
X179968670Y-67608460D01*
X179925099Y-67532993D01*
X179832007Y-67439901D01*
X179756538Y-67396329D01*
X180189647Y-66963220D01*
X180189646Y-66963219D01*
X180101528Y-66899198D01*
X179947257Y-66820591D01*
X179782584Y-66767085D01*
X179611571Y-66740000D01*
X179438429Y-66740000D01*
X179267415Y-66767085D01*
X179102742Y-66820591D01*
X178948478Y-66899194D01*
X178860352Y-66963220D01*
X179293461Y-67396329D01*
X179217993Y-67439901D01*
X179124901Y-67532993D01*
X179081329Y-67608461D01*
X178648220Y-67175352D01*
X178584194Y-67263478D01*
X178505591Y-67417742D01*
X178452085Y-67582415D01*
X178425000Y-67753428D01*
X178425000Y-67926571D01*
X178452085Y-68097584D01*
X178505591Y-68262257D01*
X178584198Y-68416528D01*
X178648219Y-68504646D01*
X178648220Y-68504647D01*
X179081329Y-68071538D01*
X179124901Y-68147007D01*
X179217993Y-68240099D01*
X179293460Y-68283670D01*
X178860351Y-68716778D01*
X178862240Y-68740772D01*
X178847875Y-68809149D01*
X178798824Y-68858905D01*
X178738622Y-68874500D01*
X155483676Y-68874500D01*
X155416637Y-68854815D01*
X155395995Y-68838181D01*
X155332316Y-68774502D01*
X155332314Y-68774500D01*
X155273896Y-68740772D01*
X155218187Y-68708608D01*
X155154539Y-68691554D01*
X155090892Y-68674500D01*
X154959108Y-68674500D01*
X154831812Y-68708608D01*
X154717686Y-68774500D01*
X154717683Y-68774502D01*
X154624502Y-68867683D01*
X154624500Y-68867686D01*
X154558608Y-68981812D01*
X154524634Y-69108608D01*
X154524500Y-69109108D01*
X152259079Y-69109108D01*
X151728512Y-68578541D01*
X151728504Y-68578535D01*
X151659995Y-68538982D01*
X151659990Y-68538979D01*
X151634513Y-68532152D01*
X151583562Y-68518500D01*
X150860619Y-68518500D01*
X150781495Y-68518500D01*
X150705067Y-68538978D01*
X150636546Y-68578540D01*
X150636543Y-68578542D01*
X149859541Y-69355544D01*
X149859535Y-69355552D01*
X149819982Y-69424061D01*
X149819979Y-69424066D01*
X149799500Y-69500496D01*
X149799500Y-70916323D01*
X149779815Y-70983362D01*
X149763182Y-71004004D01*
X149699500Y-71067686D01*
X149633608Y-71181812D01*
X149599500Y-71309108D01*
X149599500Y-71440891D01*
X149633608Y-71568187D01*
X149666554Y-71625250D01*
X149699500Y-71682314D01*
X149792686Y-71775500D01*
X149906814Y-71841392D01*
X150034108Y-71875500D01*
X150034110Y-71875500D01*
X150165890Y-71875500D01*
X150165892Y-71875500D01*
X150293186Y-71841392D01*
X150407314Y-71775500D01*
X150407819Y-71774995D01*
X150408346Y-71774706D01*
X150413760Y-71770553D01*
X150414407Y-71771397D01*
X150469142Y-71741510D01*
X150538834Y-71746494D01*
X150594767Y-71788366D01*
X150619184Y-71853830D01*
X150619500Y-71862676D01*
X150619500Y-73679309D01*
X150627304Y-73708435D01*
X150640258Y-73756780D01*
X150640265Y-73756803D01*
X150640268Y-73756814D01*
X150650201Y-73793887D01*
X150709511Y-73896614D01*
X150709513Y-73896616D01*
X150901887Y-74088990D01*
X150922973Y-74117125D01*
X150930125Y-74130189D01*
X150933608Y-74143186D01*
X150999500Y-74257314D01*
X150999990Y-74257804D01*
X151004452Y-74265954D01*
X151011624Y-74298752D01*
X151019545Y-74331399D01*
X151019066Y-74332781D01*
X151019379Y-74334210D01*
X151007675Y-74365692D01*
X150996693Y-74397426D01*
X150995543Y-74398329D01*
X150995034Y-74399701D01*
X150968167Y-74419859D01*
X150941772Y-74440617D01*
X150940062Y-74440946D01*
X150939146Y-74441634D01*
X150934893Y-74441942D01*
X150895685Y-74449500D01*
X135974500Y-74449500D01*
X135907461Y-74429815D01*
X135861706Y-74377011D01*
X135850500Y-74325500D01*
X135850500Y-72143713D01*
X136774500Y-72143713D01*
X136774500Y-72356287D01*
X136807754Y-72566243D01*
X136823134Y-72613579D01*
X136873444Y-72768414D01*
X136969951Y-72957820D01*
X137094890Y-73129786D01*
X137245213Y-73280109D01*
X137417179Y-73405048D01*
X137417181Y-73405049D01*
X137417184Y-73405051D01*
X137606588Y-73501557D01*
X137808757Y-73567246D01*
X138018713Y-73600500D01*
X138018714Y-73600500D01*
X138231286Y-73600500D01*
X138231287Y-73600500D01*
X138441243Y-73567246D01*
X138643412Y-73501557D01*
X138832816Y-73405051D01*
X138854789Y-73389086D01*
X139004786Y-73280109D01*
X139004788Y-73280106D01*
X139004792Y-73280104D01*
X139155104Y-73129792D01*
X139155106Y-73129788D01*
X139155109Y-73129786D01*
X139280048Y-72957820D01*
X139280047Y-72957820D01*
X139280051Y-72957816D01*
X139376557Y-72768412D01*
X139442246Y-72566243D01*
X139475500Y-72356287D01*
X139475500Y-72143713D01*
X139442246Y-71933757D01*
X139376557Y-71731588D01*
X139280051Y-71542184D01*
X139280049Y-71542181D01*
X139280048Y-71542179D01*
X139155109Y-71370213D01*
X139004786Y-71219890D01*
X138832820Y-71094951D01*
X138643414Y-70998444D01*
X138643413Y-70998443D01*
X138643412Y-70998443D01*
X138441243Y-70932754D01*
X138441241Y-70932753D01*
X138441240Y-70932753D01*
X138279957Y-70907208D01*
X138231287Y-70899500D01*
X138018713Y-70899500D01*
X137970042Y-70907208D01*
X137808760Y-70932753D01*
X137606585Y-70998444D01*
X137417179Y-71094951D01*
X137245213Y-71219890D01*
X137094890Y-71370213D01*
X136969951Y-71542179D01*
X136873444Y-71731585D01*
X136807753Y-71933760D01*
X136798995Y-71989058D01*
X136774500Y-72143713D01*
X135850500Y-72143713D01*
X135850500Y-67516530D01*
X152649500Y-67516530D01*
X152649500Y-67723469D01*
X152689868Y-67926412D01*
X152689870Y-67926420D01*
X152769059Y-68117598D01*
X152826541Y-68203626D01*
X152884024Y-68289657D01*
X153030342Y-68435975D01*
X153030345Y-68435977D01*
X153202402Y-68550941D01*
X153393580Y-68630130D01*
X153596530Y-68670499D01*
X153596534Y-68670500D01*
X153596535Y-68670500D01*
X153803466Y-68670500D01*
X153803467Y-68670499D01*
X154006420Y-68630130D01*
X154197598Y-68550941D01*
X154369655Y-68435977D01*
X154515977Y-68289655D01*
X154630941Y-68117598D01*
X154710130Y-67926420D01*
X154750500Y-67723465D01*
X154750500Y-67516535D01*
X154710130Y-67313580D01*
X154630941Y-67122402D01*
X154515977Y-66950345D01*
X154515975Y-66950342D01*
X154369657Y-66804024D01*
X154273837Y-66740000D01*
X154197598Y-66689059D01*
X154006420Y-66609870D01*
X154006412Y-66609868D01*
X153803469Y-66569500D01*
X153803465Y-66569500D01*
X153596535Y-66569500D01*
X153596530Y-66569500D01*
X153393587Y-66609868D01*
X153393579Y-66609870D01*
X153202403Y-66689058D01*
X153030342Y-66804024D01*
X152884024Y-66950342D01*
X152769058Y-67122403D01*
X152689870Y-67313579D01*
X152689868Y-67313587D01*
X152649500Y-67516530D01*
X135850500Y-67516530D01*
X135850500Y-65126530D01*
X136749500Y-65126530D01*
X136749500Y-65333469D01*
X136789868Y-65536412D01*
X136789870Y-65536420D01*
X136857834Y-65700500D01*
X136869059Y-65727598D01*
X136894980Y-65766392D01*
X136984024Y-65899657D01*
X137130342Y-66045975D01*
X137130345Y-66045977D01*
X137302402Y-66160941D01*
X137493580Y-66240130D01*
X137696530Y-66280499D01*
X137696534Y-66280500D01*
X137696535Y-66280500D01*
X137903466Y-66280500D01*
X137903467Y-66280499D01*
X138106420Y-66240130D01*
X138297598Y-66160941D01*
X138469655Y-66045977D01*
X138615977Y-65899655D01*
X138730941Y-65727598D01*
X138810130Y-65536420D01*
X138850500Y-65333465D01*
X138850500Y-65126535D01*
X138810130Y-64923580D01*
X138730941Y-64732402D01*
X138615977Y-64560345D01*
X138615975Y-64560342D01*
X138469657Y-64414024D01*
X138359179Y-64340206D01*
X138297598Y-64299059D01*
X138257172Y-64282314D01*
X138106420Y-64219870D01*
X138106412Y-64219868D01*
X137903469Y-64179500D01*
X137903465Y-64179500D01*
X137696535Y-64179500D01*
X137696530Y-64179500D01*
X137493587Y-64219868D01*
X137493579Y-64219870D01*
X137302403Y-64299058D01*
X137130342Y-64414024D01*
X136984024Y-64560342D01*
X136869058Y-64732403D01*
X136789870Y-64923579D01*
X136789868Y-64923587D01*
X136749500Y-65126530D01*
X135850500Y-65126530D01*
X135850500Y-63909108D01*
X149324500Y-63909108D01*
X149324500Y-64040892D01*
X149328766Y-64056812D01*
X149358608Y-64168187D01*
X149386479Y-64216460D01*
X149424500Y-64282314D01*
X149517686Y-64375500D01*
X149631814Y-64441392D01*
X149759108Y-64475500D01*
X149759110Y-64475500D01*
X149890890Y-64475500D01*
X149890892Y-64475500D01*
X150018186Y-64441392D01*
X150132314Y-64375500D01*
X150225500Y-64282314D01*
X150225501Y-64282311D01*
X150228804Y-64278009D01*
X150285233Y-64236809D01*
X150327176Y-64229500D01*
X152714886Y-64229500D01*
X152781925Y-64249185D01*
X152827680Y-64301989D01*
X152837624Y-64371147D01*
X152815204Y-64426385D01*
X152759198Y-64503471D01*
X152680591Y-64657742D01*
X152627085Y-64822415D01*
X152600000Y-64993428D01*
X152600000Y-65166571D01*
X152627085Y-65337584D01*
X152680591Y-65502257D01*
X152759198Y-65656528D01*
X152823219Y-65744646D01*
X152823219Y-65744647D01*
X153256328Y-65311537D01*
X153299901Y-65387007D01*
X153392993Y-65480099D01*
X153468459Y-65523669D01*
X153035351Y-65956778D01*
X153035352Y-65956780D01*
X153123471Y-66020801D01*
X153277742Y-66099408D01*
X153442415Y-66152914D01*
X153613429Y-66180000D01*
X153786571Y-66180000D01*
X153957584Y-66152914D01*
X154122257Y-66099408D01*
X154276525Y-66020803D01*
X154364646Y-65956778D01*
X154364647Y-65956778D01*
X153931539Y-65523670D01*
X154007007Y-65480099D01*
X154100099Y-65387007D01*
X154143670Y-65311539D01*
X154576778Y-65744647D01*
X154576778Y-65744646D01*
X154640803Y-65656525D01*
X154719408Y-65502257D01*
X154772914Y-65337584D01*
X154800000Y-65166571D01*
X154800000Y-64993428D01*
X154772914Y-64822415D01*
X154719408Y-64657742D01*
X154640801Y-64503471D01*
X154584796Y-64426385D01*
X154561316Y-64360579D01*
X154577142Y-64292525D01*
X154627248Y-64243830D01*
X154685114Y-64229500D01*
X156360560Y-64229500D01*
X156360562Y-64229500D01*
X156436989Y-64209021D01*
X156505511Y-64169460D01*
X156561460Y-64113511D01*
X158013152Y-62661819D01*
X158074475Y-62628334D01*
X158100833Y-62625500D01*
X173699167Y-62625500D01*
X173766206Y-62645185D01*
X173786848Y-62661819D01*
X175341489Y-64216460D01*
X175410012Y-64256022D01*
X175486438Y-64276500D01*
X178353988Y-64276500D01*
X178421027Y-64296185D01*
X178466782Y-64348989D01*
X178476726Y-64418147D01*
X178475606Y-64424687D01*
X178474500Y-64430247D01*
X178474500Y-66169752D01*
X178486131Y-66228229D01*
X178486132Y-66228230D01*
X178530447Y-66294552D01*
X178596769Y-66338867D01*
X178596770Y-66338868D01*
X178655247Y-66350499D01*
X178655250Y-66350500D01*
X178655252Y-66350500D01*
X180394750Y-66350500D01*
X180394751Y-66350499D01*
X180409568Y-66347552D01*
X180453229Y-66338868D01*
X180453229Y-66338867D01*
X180453231Y-66338867D01*
X180519552Y-66294552D01*
X180563867Y-66228231D01*
X180563867Y-66228229D01*
X180563868Y-66228229D01*
X180575499Y-66169752D01*
X180575500Y-66169750D01*
X180575500Y-64772833D01*
X180595185Y-64705794D01*
X180647989Y-64660039D01*
X180717147Y-64650095D01*
X180780703Y-64679120D01*
X180787181Y-64685152D01*
X181574195Y-65472166D01*
X181584887Y-65484357D01*
X181586539Y-65486510D01*
X181586540Y-65486511D01*
X183190489Y-67090460D01*
X183245814Y-67122402D01*
X183259008Y-67130020D01*
X183259012Y-67130022D01*
X183335438Y-67150500D01*
X183335440Y-67150500D01*
X188289560Y-67150500D01*
X188289562Y-67150500D01*
X188365989Y-67130021D01*
X188434511Y-67090460D01*
X188490460Y-67034511D01*
X189688151Y-65836818D01*
X189749474Y-65803334D01*
X189775832Y-65800500D01*
X189865890Y-65800500D01*
X189865892Y-65800500D01*
X189993186Y-65766392D01*
X190107314Y-65700500D01*
X190200500Y-65607314D01*
X190266392Y-65493186D01*
X190300500Y-65365892D01*
X190300500Y-65234108D01*
X190295790Y-65216530D01*
X190849500Y-65216530D01*
X190849500Y-65423469D01*
X190889868Y-65626412D01*
X190889870Y-65626420D01*
X190969058Y-65817596D01*
X191084024Y-65989657D01*
X191230342Y-66135975D01*
X191230345Y-66135977D01*
X191402402Y-66250941D01*
X191593580Y-66330130D01*
X191796530Y-66370499D01*
X191796534Y-66370500D01*
X191796535Y-66370500D01*
X192003466Y-66370500D01*
X192003467Y-66370499D01*
X192206420Y-66330130D01*
X192397598Y-66250941D01*
X192569655Y-66135977D01*
X192715977Y-65989655D01*
X192830941Y-65817598D01*
X192910130Y-65626420D01*
X192950500Y-65423465D01*
X192950500Y-65216535D01*
X192950499Y-65216530D01*
X193389500Y-65216530D01*
X193389500Y-65423469D01*
X193429868Y-65626412D01*
X193429870Y-65626420D01*
X193509058Y-65817596D01*
X193624024Y-65989657D01*
X193770342Y-66135975D01*
X193770345Y-66135977D01*
X193942402Y-66250941D01*
X194133580Y-66330130D01*
X194336530Y-66370499D01*
X194336534Y-66370500D01*
X194336535Y-66370500D01*
X194543466Y-66370500D01*
X194543467Y-66370499D01*
X194746420Y-66330130D01*
X194937598Y-66250941D01*
X195109655Y-66135977D01*
X195255977Y-65989655D01*
X195370941Y-65817598D01*
X195450130Y-65626420D01*
X195490500Y-65423465D01*
X195490500Y-65216535D01*
X195450130Y-65013580D01*
X195370941Y-64822402D01*
X195255977Y-64650345D01*
X195255975Y-64650342D01*
X195109657Y-64504024D01*
X194999248Y-64430252D01*
X194937598Y-64389059D01*
X194904861Y-64375499D01*
X194746420Y-64309870D01*
X194746412Y-64309868D01*
X194543469Y-64269500D01*
X194543465Y-64269500D01*
X194336535Y-64269500D01*
X194336530Y-64269500D01*
X194133587Y-64309868D01*
X194133579Y-64309870D01*
X193942403Y-64389058D01*
X193770342Y-64504024D01*
X193624024Y-64650342D01*
X193509058Y-64822403D01*
X193429870Y-65013579D01*
X193429868Y-65013587D01*
X193389500Y-65216530D01*
X192950499Y-65216530D01*
X192910130Y-65013580D01*
X192830941Y-64822402D01*
X192715977Y-64650345D01*
X192715975Y-64650342D01*
X192569657Y-64504024D01*
X192459248Y-64430252D01*
X192397598Y-64389059D01*
X192364861Y-64375499D01*
X192206420Y-64309870D01*
X192206412Y-64309868D01*
X192003469Y-64269500D01*
X192003465Y-64269500D01*
X191796535Y-64269500D01*
X191796530Y-64269500D01*
X191593587Y-64309868D01*
X191593579Y-64309870D01*
X191402403Y-64389058D01*
X191230342Y-64504024D01*
X191084024Y-64650342D01*
X190969058Y-64822403D01*
X190889870Y-65013579D01*
X190889868Y-65013587D01*
X190849500Y-65216530D01*
X190295790Y-65216530D01*
X190266392Y-65106814D01*
X190200500Y-64992686D01*
X190107314Y-64899500D01*
X190048686Y-64865651D01*
X189993187Y-64833608D01*
X189929539Y-64816554D01*
X189865892Y-64799500D01*
X189734108Y-64799500D01*
X189606812Y-64833608D01*
X189492686Y-64899500D01*
X189492683Y-64899502D01*
X189399502Y-64992683D01*
X189399500Y-64992686D01*
X189333608Y-65106812D01*
X189299500Y-65234108D01*
X189299500Y-65324166D01*
X189279815Y-65391205D01*
X189263181Y-65411847D01*
X188161848Y-66513181D01*
X188100525Y-66546666D01*
X188074167Y-66549500D01*
X183550833Y-66549500D01*
X183483794Y-66529815D01*
X183463152Y-66513181D01*
X182079804Y-65129833D01*
X182079279Y-65129306D01*
X182070036Y-65119952D01*
X182067460Y-65115489D01*
X181913792Y-64961821D01*
X181913627Y-64961654D01*
X181897198Y-64931132D01*
X181880667Y-64900858D01*
X181880694Y-64900472D01*
X181880511Y-64900131D01*
X181883184Y-64865651D01*
X181885651Y-64831166D01*
X181885883Y-64830856D01*
X181885913Y-64830470D01*
X181906791Y-64802926D01*
X181927523Y-64775233D01*
X181927886Y-64775097D01*
X181928120Y-64774789D01*
X181960599Y-64762895D01*
X181992987Y-64750816D01*
X181993654Y-64750792D01*
X181993729Y-64750765D01*
X181993823Y-64750786D01*
X182001833Y-64750500D01*
X182090890Y-64750500D01*
X182090892Y-64750500D01*
X182218186Y-64716392D01*
X182332314Y-64650500D01*
X182425500Y-64557314D01*
X182491392Y-64443186D01*
X182525500Y-64315892D01*
X182525500Y-64184108D01*
X182491392Y-64056814D01*
X182491390Y-64056810D01*
X182491332Y-64056594D01*
X182492995Y-63986744D01*
X182532157Y-63928881D01*
X182596386Y-63901377D01*
X182611107Y-63900500D01*
X182740890Y-63900500D01*
X182740892Y-63900500D01*
X182868186Y-63866392D01*
X182982314Y-63800500D01*
X183070995Y-63711819D01*
X183132318Y-63678334D01*
X183158676Y-63675500D01*
X188891324Y-63675500D01*
X188958363Y-63695185D01*
X188979005Y-63711819D01*
X189042686Y-63775500D01*
X189156814Y-63841392D01*
X189284108Y-63875500D01*
X189284110Y-63875500D01*
X189415890Y-63875500D01*
X189415892Y-63875500D01*
X189543186Y-63841392D01*
X189657314Y-63775500D01*
X189750500Y-63682314D01*
X189816392Y-63568186D01*
X189850500Y-63440892D01*
X189850500Y-63309108D01*
X189816392Y-63181814D01*
X189750500Y-63067686D01*
X189657314Y-62974500D01*
X189586487Y-62933608D01*
X189543187Y-62908608D01*
X189459341Y-62886142D01*
X189415892Y-62874500D01*
X189284108Y-62874500D01*
X189156812Y-62908608D01*
X189042686Y-62974500D01*
X189042683Y-62974502D01*
X188979005Y-63038181D01*
X188952077Y-63052884D01*
X188926259Y-63069477D01*
X188920058Y-63070368D01*
X188917682Y-63071666D01*
X188891324Y-63074500D01*
X188820507Y-63074500D01*
X188753468Y-63054815D01*
X188707713Y-63002011D01*
X188697769Y-62932853D01*
X188726794Y-62869297D01*
X188758506Y-62843113D01*
X188832314Y-62800500D01*
X188925500Y-62707314D01*
X188943273Y-62676530D01*
X190849500Y-62676530D01*
X190849500Y-62883469D01*
X190889868Y-63086412D01*
X190889870Y-63086420D01*
X190964473Y-63266528D01*
X190969059Y-63277598D01*
X191020540Y-63354646D01*
X191084024Y-63449657D01*
X191230342Y-63595975D01*
X191230345Y-63595977D01*
X191402402Y-63710941D01*
X191593580Y-63790130D01*
X191792860Y-63829769D01*
X191796530Y-63830499D01*
X191796534Y-63830500D01*
X191796535Y-63830500D01*
X192003466Y-63830500D01*
X192003467Y-63830499D01*
X192206420Y-63790130D01*
X192397598Y-63710941D01*
X192569655Y-63595977D01*
X192715977Y-63449655D01*
X192830941Y-63277598D01*
X192910130Y-63086420D01*
X192950500Y-62883465D01*
X192950500Y-62676535D01*
X192950499Y-62676530D01*
X193389500Y-62676530D01*
X193389500Y-62883469D01*
X193429868Y-63086412D01*
X193429870Y-63086420D01*
X193504473Y-63266528D01*
X193509059Y-63277598D01*
X193560540Y-63354646D01*
X193624024Y-63449657D01*
X193770342Y-63595975D01*
X193770345Y-63595977D01*
X193942402Y-63710941D01*
X194133580Y-63790130D01*
X194332860Y-63829769D01*
X194336530Y-63830499D01*
X194336534Y-63830500D01*
X194336535Y-63830500D01*
X194543466Y-63830500D01*
X194543467Y-63830499D01*
X194746420Y-63790130D01*
X194937598Y-63710941D01*
X195109655Y-63595977D01*
X195255977Y-63449655D01*
X195370941Y-63277598D01*
X195450130Y-63086420D01*
X195490500Y-62883465D01*
X195490500Y-62676535D01*
X195450130Y-62473580D01*
X195370941Y-62282402D01*
X195255977Y-62110345D01*
X195255975Y-62110342D01*
X195109657Y-61964024D01*
X194964194Y-61866830D01*
X194937598Y-61849059D01*
X194876533Y-61823765D01*
X194746420Y-61769870D01*
X194746412Y-61769868D01*
X194543469Y-61729500D01*
X194543465Y-61729500D01*
X194336535Y-61729500D01*
X194336530Y-61729500D01*
X194133587Y-61769868D01*
X194133579Y-61769870D01*
X193942403Y-61849058D01*
X193770342Y-61964024D01*
X193624024Y-62110342D01*
X193509058Y-62282403D01*
X193429870Y-62473579D01*
X193429868Y-62473587D01*
X193389500Y-62676530D01*
X192950499Y-62676530D01*
X192910130Y-62473580D01*
X192830941Y-62282402D01*
X192715977Y-62110345D01*
X192715975Y-62110342D01*
X192569657Y-61964024D01*
X192424194Y-61866830D01*
X192397598Y-61849059D01*
X192336533Y-61823765D01*
X192206420Y-61769870D01*
X192206412Y-61769868D01*
X192003469Y-61729500D01*
X192003465Y-61729500D01*
X191796535Y-61729500D01*
X191796530Y-61729500D01*
X191593587Y-61769868D01*
X191593579Y-61769870D01*
X191402403Y-61849058D01*
X191230342Y-61964024D01*
X191084024Y-62110342D01*
X190969058Y-62282403D01*
X190889870Y-62473579D01*
X190889868Y-62473587D01*
X190849500Y-62676530D01*
X188943273Y-62676530D01*
X188991392Y-62593186D01*
X189025500Y-62465892D01*
X189025500Y-62334108D01*
X188991392Y-62206814D01*
X188925500Y-62092686D01*
X188832314Y-61999500D01*
X188744889Y-61949025D01*
X188718187Y-61933608D01*
X188654539Y-61916554D01*
X188590892Y-61899500D01*
X188459108Y-61899500D01*
X188331812Y-61933608D01*
X188217686Y-61999500D01*
X188217683Y-61999502D01*
X188154005Y-62063181D01*
X188092682Y-62096666D01*
X188066324Y-62099500D01*
X183044042Y-62099500D01*
X182977003Y-62079815D01*
X182956361Y-62063181D01*
X182863241Y-61970061D01*
X182863239Y-61970059D01*
X182784329Y-61924500D01*
X182749112Y-61904167D01*
X182670644Y-61883142D01*
X182621817Y-61870059D01*
X182490033Y-61870059D01*
X182362737Y-61904167D01*
X182248611Y-61970059D01*
X182248608Y-61970061D01*
X182155427Y-62063242D01*
X182155422Y-62063248D01*
X182129246Y-62108586D01*
X182078678Y-62156801D01*
X182010070Y-62170022D01*
X181945206Y-62144053D01*
X181934179Y-62134265D01*
X179834022Y-60034108D01*
X189724500Y-60034108D01*
X189724500Y-60165892D01*
X189736317Y-60209995D01*
X189758608Y-60293187D01*
X189777711Y-60326273D01*
X189824500Y-60407314D01*
X189917686Y-60500500D01*
X190031814Y-60566392D01*
X190159108Y-60600500D01*
X190159110Y-60600500D01*
X190290890Y-60600500D01*
X190290892Y-60600500D01*
X190418186Y-60566392D01*
X190532314Y-60500500D01*
X190625500Y-60407314D01*
X190636817Y-60387713D01*
X190687383Y-60339497D01*
X190755990Y-60326273D01*
X190820855Y-60352241D01*
X190861384Y-60409155D01*
X190865821Y-60425521D01*
X190889868Y-60546412D01*
X190889870Y-60546420D01*
X190969058Y-60737596D01*
X191084024Y-60909657D01*
X191230342Y-61055975D01*
X191230345Y-61055977D01*
X191402402Y-61170941D01*
X191593580Y-61250130D01*
X191796530Y-61290499D01*
X191796534Y-61290500D01*
X191796535Y-61290500D01*
X192003466Y-61290500D01*
X192003467Y-61290499D01*
X192206420Y-61250130D01*
X192397598Y-61170941D01*
X192569655Y-61055977D01*
X192715977Y-60909655D01*
X192830941Y-60737598D01*
X192910130Y-60546420D01*
X192950500Y-60343465D01*
X192950500Y-60136535D01*
X192910130Y-59933580D01*
X192830941Y-59742402D01*
X192715977Y-59570345D01*
X192715975Y-59570342D01*
X192569657Y-59424024D01*
X192434961Y-59334024D01*
X192397598Y-59309059D01*
X192206420Y-59229870D01*
X192206412Y-59229868D01*
X192003469Y-59189500D01*
X192003465Y-59189500D01*
X191796535Y-59189500D01*
X191796530Y-59189500D01*
X191593587Y-59229868D01*
X191593579Y-59229870D01*
X191402403Y-59309058D01*
X191230342Y-59424024D01*
X191084024Y-59570342D01*
X190969057Y-59742404D01*
X190909638Y-59885855D01*
X190905106Y-59891477D01*
X190903527Y-59898523D01*
X190883477Y-59918318D01*
X190865797Y-59940258D01*
X190858945Y-59942538D01*
X190853808Y-59947611D01*
X190826237Y-59953424D01*
X190799502Y-59962323D01*
X190792505Y-59960537D01*
X190785441Y-59962027D01*
X190759105Y-59952012D01*
X190731803Y-59945044D01*
X190725285Y-59939151D01*
X190720134Y-59937193D01*
X190708398Y-59923885D01*
X190695337Y-59912077D01*
X190691186Y-59906458D01*
X190625500Y-59792686D01*
X190555266Y-59722452D01*
X190549760Y-59714998D01*
X190540813Y-59690536D01*
X190528334Y-59667680D01*
X190526617Y-59651719D01*
X190525762Y-59649379D01*
X190526170Y-59647557D01*
X190525500Y-59641323D01*
X190525500Y-57596530D01*
X190849500Y-57596530D01*
X190849500Y-57803469D01*
X190889868Y-58006412D01*
X190889870Y-58006420D01*
X190969058Y-58197596D01*
X191084024Y-58369657D01*
X191230342Y-58515975D01*
X191230345Y-58515977D01*
X191402402Y-58630941D01*
X191593580Y-58710130D01*
X191796530Y-58750499D01*
X191796534Y-58750500D01*
X191796535Y-58750500D01*
X192003466Y-58750500D01*
X192003467Y-58750499D01*
X192206420Y-58710130D01*
X192397598Y-58630941D01*
X192569655Y-58515977D01*
X192715977Y-58369655D01*
X192830941Y-58197598D01*
X192910130Y-58006420D01*
X192950500Y-57803465D01*
X192950500Y-57596535D01*
X192950499Y-57596530D01*
X193389500Y-57596530D01*
X193389500Y-57803469D01*
X193429868Y-58006412D01*
X193429870Y-58006420D01*
X193509058Y-58197596D01*
X193624024Y-58369657D01*
X193770342Y-58515975D01*
X193770345Y-58515977D01*
X193942402Y-58630941D01*
X194133580Y-58710130D01*
X194336530Y-58750499D01*
X194336534Y-58750500D01*
X194336535Y-58750500D01*
X194543466Y-58750500D01*
X194543467Y-58750499D01*
X194746420Y-58710130D01*
X194937598Y-58630941D01*
X195109655Y-58515977D01*
X195255977Y-58369655D01*
X195370941Y-58197598D01*
X195450130Y-58006420D01*
X195490500Y-57803465D01*
X195490500Y-57596535D01*
X195450130Y-57393580D01*
X195370941Y-57202402D01*
X195255977Y-57030345D01*
X195255975Y-57030342D01*
X195109657Y-56884024D01*
X194974961Y-56794024D01*
X194937598Y-56769059D01*
X194746420Y-56689870D01*
X194746412Y-56689868D01*
X194543469Y-56649500D01*
X194543465Y-56649500D01*
X194336535Y-56649500D01*
X194336530Y-56649500D01*
X194133587Y-56689868D01*
X194133579Y-56689870D01*
X193942403Y-56769058D01*
X193770342Y-56884024D01*
X193624024Y-57030342D01*
X193509058Y-57202403D01*
X193429870Y-57393579D01*
X193429868Y-57393587D01*
X193389500Y-57596530D01*
X192950499Y-57596530D01*
X192910130Y-57393580D01*
X192830941Y-57202402D01*
X192715977Y-57030345D01*
X192715975Y-57030342D01*
X192569657Y-56884024D01*
X192434961Y-56794024D01*
X192397598Y-56769059D01*
X192206420Y-56689870D01*
X192206412Y-56689868D01*
X192003469Y-56649500D01*
X192003465Y-56649500D01*
X191796535Y-56649500D01*
X191796530Y-56649500D01*
X191593587Y-56689868D01*
X191593579Y-56689870D01*
X191402403Y-56769058D01*
X191230342Y-56884024D01*
X191084024Y-57030342D01*
X190969058Y-57202403D01*
X190889870Y-57393579D01*
X190889868Y-57393587D01*
X190849500Y-57596530D01*
X190525500Y-57596530D01*
X190525500Y-57208676D01*
X190545185Y-57141637D01*
X190561819Y-57120995D01*
X190575500Y-57107314D01*
X190650500Y-57032314D01*
X190716392Y-56918186D01*
X190750500Y-56790892D01*
X190750500Y-56659108D01*
X190716392Y-56531814D01*
X190714801Y-56529059D01*
X190669080Y-56449868D01*
X190650500Y-56417686D01*
X190557314Y-56324500D01*
X190500250Y-56291554D01*
X190443187Y-56258608D01*
X190379539Y-56241554D01*
X190315892Y-56224500D01*
X190184108Y-56224500D01*
X190056812Y-56258608D01*
X189942686Y-56324500D01*
X189942683Y-56324502D01*
X189849502Y-56417683D01*
X189849500Y-56417686D01*
X189783608Y-56531812D01*
X189749500Y-56659108D01*
X189749500Y-56790891D01*
X189783608Y-56918187D01*
X189809136Y-56962402D01*
X189849500Y-57032314D01*
X189849502Y-57032316D01*
X189888181Y-57070995D01*
X189921666Y-57132318D01*
X189924500Y-57158676D01*
X189924500Y-59641323D01*
X189904815Y-59708362D01*
X189888182Y-59729004D01*
X189824500Y-59792686D01*
X189758608Y-59906812D01*
X189724500Y-60034108D01*
X179834022Y-60034108D01*
X179720736Y-59920822D01*
X179693856Y-59880593D01*
X179691392Y-59874646D01*
X179691392Y-59874645D01*
X179625500Y-59760517D01*
X179532314Y-59667331D01*
X179459402Y-59625235D01*
X179418187Y-59601439D01*
X179354539Y-59584385D01*
X179290892Y-59567331D01*
X179159108Y-59567331D01*
X179031812Y-59601439D01*
X178917686Y-59667331D01*
X178917683Y-59667333D01*
X178824502Y-59760514D01*
X178824500Y-59760517D01*
X178758608Y-59874643D01*
X178735194Y-59962027D01*
X178724500Y-60001939D01*
X178724500Y-60133723D01*
X178738208Y-60184882D01*
X178758608Y-60261018D01*
X178791554Y-60318081D01*
X178824500Y-60375145D01*
X178917686Y-60468331D01*
X179031814Y-60534223D01*
X179159108Y-60568331D01*
X179159110Y-60568331D01*
X179290889Y-60568331D01*
X179290892Y-60568331D01*
X179401096Y-60538802D01*
X179470943Y-60540465D01*
X179520868Y-60570896D01*
X180738761Y-61788789D01*
X180746792Y-61803498D01*
X180758851Y-61815140D01*
X180763190Y-61833528D01*
X180772246Y-61850112D01*
X180771050Y-61866830D01*
X180774900Y-61883142D01*
X180768609Y-61900956D01*
X180767262Y-61919804D01*
X180757047Y-61933701D01*
X180751637Y-61949025D01*
X180734220Y-61964759D01*
X180727123Y-61974416D01*
X180720419Y-61979620D01*
X180642686Y-62024500D01*
X180573506Y-62093679D01*
X180567367Y-62098446D01*
X180541795Y-62108499D01*
X180517682Y-62121666D01*
X180504772Y-62123053D01*
X180502341Y-62124010D01*
X180500076Y-62123558D01*
X180491324Y-62124500D01*
X179408676Y-62124500D01*
X179341637Y-62104815D01*
X179320995Y-62088181D01*
X179257316Y-62024502D01*
X179257314Y-62024500D01*
X179200250Y-61991554D01*
X179143187Y-61958608D01*
X179079539Y-61941554D01*
X179015892Y-61924500D01*
X178884108Y-61924500D01*
X178756812Y-61958608D01*
X178642686Y-62024500D01*
X178642683Y-62024502D01*
X178549502Y-62117683D01*
X178549500Y-62117686D01*
X178483608Y-62231812D01*
X178467975Y-62290156D01*
X178449500Y-62359108D01*
X178449500Y-62490892D01*
X178466554Y-62554539D01*
X178483608Y-62618187D01*
X178516554Y-62675250D01*
X178549500Y-62732314D01*
X178549502Y-62732316D01*
X178642005Y-62824819D01*
X178675490Y-62886142D01*
X178670506Y-62955834D01*
X178653503Y-62986928D01*
X178648225Y-62993960D01*
X178599500Y-63042686D01*
X178558942Y-63112933D01*
X178554462Y-63118904D01*
X178532207Y-63135522D01*
X178512102Y-63154692D01*
X178504599Y-63156137D01*
X178498478Y-63160709D01*
X178470767Y-63162657D01*
X178443495Y-63167914D01*
X178436403Y-63165074D01*
X178428781Y-63165611D01*
X178404417Y-63152269D01*
X178378630Y-63141946D01*
X178372368Y-63134720D01*
X178367498Y-63132053D01*
X178363169Y-63124103D01*
X178347896Y-63106477D01*
X178336311Y-63086412D01*
X178325500Y-63067686D01*
X178232314Y-62974500D01*
X178161487Y-62933608D01*
X178118187Y-62908608D01*
X178034341Y-62886142D01*
X177990892Y-62874500D01*
X177859108Y-62874500D01*
X177731812Y-62908608D01*
X177617686Y-62974500D01*
X177617683Y-62974502D01*
X177579005Y-63013181D01*
X177517682Y-63046666D01*
X177491324Y-63049500D01*
X176533676Y-63049500D01*
X176508365Y-63042067D01*
X176482252Y-63038334D01*
X176472419Y-63031513D01*
X176466637Y-63029815D01*
X176452546Y-63019276D01*
X176449164Y-63016350D01*
X176382314Y-62949500D01*
X176350989Y-62931414D01*
X176342071Y-62923699D01*
X176329284Y-62903836D01*
X176312985Y-62886742D01*
X176310722Y-62875002D01*
X176304251Y-62864950D01*
X176304232Y-62841327D01*
X176303293Y-62836452D01*
X176268089Y-62861521D01*
X176198299Y-62864846D01*
X176195440Y-62864116D01*
X176167636Y-62856666D01*
X176140892Y-62849500D01*
X176009108Y-62849500D01*
X175881812Y-62883608D01*
X175767686Y-62949500D01*
X175767683Y-62949502D01*
X175674502Y-63042683D01*
X175674500Y-63042686D01*
X175608608Y-63156812D01*
X175574500Y-63284108D01*
X175574500Y-63300167D01*
X175554815Y-63367206D01*
X175502011Y-63412961D01*
X175432853Y-63422905D01*
X175369297Y-63393880D01*
X175362819Y-63387848D01*
X174059510Y-62084539D01*
X174046640Y-62077109D01*
X174033769Y-62069678D01*
X174012379Y-62057328D01*
X173990990Y-62044979D01*
X173965513Y-62038152D01*
X173914562Y-62024500D01*
X157964562Y-62024500D01*
X157885438Y-62024500D01*
X157809010Y-62044978D01*
X157740489Y-62084540D01*
X157740486Y-62084542D01*
X156232848Y-63592181D01*
X156171525Y-63625666D01*
X156145167Y-63628500D01*
X154370568Y-63628500D01*
X154303529Y-63608815D01*
X154257774Y-63556011D01*
X154247830Y-63486853D01*
X154276855Y-63423297D01*
X154301675Y-63401398D01*
X154369655Y-63355977D01*
X154515977Y-63209655D01*
X154630941Y-63037598D01*
X154710130Y-62846420D01*
X154750500Y-62643465D01*
X154750500Y-62436535D01*
X154710130Y-62233580D01*
X154630941Y-62042402D01*
X154515977Y-61870345D01*
X154515975Y-61870342D01*
X154369657Y-61724024D01*
X154283626Y-61666541D01*
X154197598Y-61609059D01*
X154006420Y-61529870D01*
X154006412Y-61529868D01*
X153803469Y-61489500D01*
X153803465Y-61489500D01*
X153596535Y-61489500D01*
X153596530Y-61489500D01*
X153393587Y-61529868D01*
X153393579Y-61529870D01*
X153202403Y-61609058D01*
X153030342Y-61724024D01*
X152884024Y-61870342D01*
X152769058Y-62042403D01*
X152689870Y-62233579D01*
X152689868Y-62233587D01*
X152649500Y-62436530D01*
X152649500Y-62643469D01*
X152689868Y-62846412D01*
X152689870Y-62846420D01*
X152766774Y-63032083D01*
X152769059Y-63037598D01*
X152792077Y-63072047D01*
X152884024Y-63209657D01*
X153030342Y-63355975D01*
X153030345Y-63355977D01*
X153098322Y-63401398D01*
X153143127Y-63455009D01*
X153151835Y-63524334D01*
X153121681Y-63587362D01*
X153062239Y-63624081D01*
X153029432Y-63628500D01*
X150237676Y-63628500D01*
X150170637Y-63608815D01*
X150149995Y-63592181D01*
X150132316Y-63574502D01*
X150132314Y-63574500D01*
X150075250Y-63541554D01*
X150018187Y-63508608D01*
X149936994Y-63486853D01*
X149890892Y-63474500D01*
X149759108Y-63474500D01*
X149631812Y-63508608D01*
X149517686Y-63574500D01*
X149517683Y-63574502D01*
X149424502Y-63667683D01*
X149424500Y-63667686D01*
X149358608Y-63781812D01*
X149333505Y-63875499D01*
X149324500Y-63909108D01*
X135850500Y-63909108D01*
X135850500Y-62603428D01*
X136700000Y-62603428D01*
X136700000Y-62776571D01*
X136727085Y-62947584D01*
X136780591Y-63112257D01*
X136859198Y-63266528D01*
X136923219Y-63354646D01*
X136923220Y-63354647D01*
X137356329Y-62921538D01*
X137399901Y-62997007D01*
X137492993Y-63090099D01*
X137568460Y-63133670D01*
X137135351Y-63566778D01*
X137135352Y-63566780D01*
X137223471Y-63630801D01*
X137377742Y-63709408D01*
X137542415Y-63762914D01*
X137713429Y-63790000D01*
X137886571Y-63790000D01*
X137959129Y-63778508D01*
X138057584Y-63762914D01*
X138222257Y-63709408D01*
X138376525Y-63630803D01*
X138464646Y-63566778D01*
X138464647Y-63566778D01*
X138031539Y-63133670D01*
X138107007Y-63090099D01*
X138200099Y-62997007D01*
X138243670Y-62921538D01*
X138676778Y-63354647D01*
X138676778Y-63354646D01*
X138740803Y-63266525D01*
X138819408Y-63112257D01*
X138872914Y-62947584D01*
X138900000Y-62776571D01*
X138900000Y-62603428D01*
X138872914Y-62432415D01*
X138819408Y-62267742D01*
X138740801Y-62113471D01*
X138676780Y-62025352D01*
X138676778Y-62025351D01*
X138243670Y-62458460D01*
X138200099Y-62382993D01*
X138107007Y-62289901D01*
X138031538Y-62246329D01*
X138464647Y-61813220D01*
X138464646Y-61813219D01*
X138376528Y-61749198D01*
X138222257Y-61670591D01*
X138057584Y-61617085D01*
X137886571Y-61590000D01*
X137713429Y-61590000D01*
X137542415Y-61617085D01*
X137377742Y-61670591D01*
X137223478Y-61749194D01*
X137135352Y-61813220D01*
X137568461Y-62246329D01*
X137492993Y-62289901D01*
X137399901Y-62382993D01*
X137356329Y-62458461D01*
X136923220Y-62025352D01*
X136859194Y-62113478D01*
X136780591Y-62267742D01*
X136727085Y-62432415D01*
X136700000Y-62603428D01*
X135850500Y-62603428D01*
X135850500Y-60046530D01*
X136749500Y-60046530D01*
X136749500Y-60253469D01*
X136789868Y-60456412D01*
X136789870Y-60456420D01*
X136869058Y-60647596D01*
X136984024Y-60819657D01*
X137130342Y-60965975D01*
X137130345Y-60965977D01*
X137302402Y-61080941D01*
X137493580Y-61160130D01*
X137696530Y-61200499D01*
X137696534Y-61200500D01*
X137696535Y-61200500D01*
X137903466Y-61200500D01*
X137903467Y-61200499D01*
X138106420Y-61160130D01*
X138297598Y-61080941D01*
X138469655Y-60965977D01*
X138615977Y-60819655D01*
X138730941Y-60647598D01*
X138810130Y-60456420D01*
X138850500Y-60253465D01*
X138850500Y-60046535D01*
X138810130Y-59843580D01*
X138730941Y-59652402D01*
X138615977Y-59480345D01*
X138615975Y-59480342D01*
X138469657Y-59334024D01*
X138313775Y-59229868D01*
X138297598Y-59219059D01*
X138106420Y-59139870D01*
X138106412Y-59139868D01*
X137903469Y-59099500D01*
X137903465Y-59099500D01*
X137696535Y-59099500D01*
X137696530Y-59099500D01*
X137493587Y-59139868D01*
X137493579Y-59139870D01*
X137302403Y-59219058D01*
X137130342Y-59334024D01*
X136984024Y-59480342D01*
X136869058Y-59652403D01*
X136789870Y-59843579D01*
X136789868Y-59843587D01*
X136749500Y-60046530D01*
X135850500Y-60046530D01*
X135850500Y-57506530D01*
X136749500Y-57506530D01*
X136749500Y-57713469D01*
X136775303Y-57843187D01*
X136789870Y-57916420D01*
X136869059Y-58107598D01*
X136899261Y-58152799D01*
X136984024Y-58279657D01*
X137130342Y-58425975D01*
X137130345Y-58425977D01*
X137302402Y-58540941D01*
X137493580Y-58620130D01*
X137696530Y-58660499D01*
X137696534Y-58660500D01*
X137696535Y-58660500D01*
X137903466Y-58660500D01*
X137903467Y-58660499D01*
X138106420Y-58620130D01*
X138297598Y-58540941D01*
X138469655Y-58425977D01*
X138615977Y-58279655D01*
X138730941Y-58107598D01*
X138810130Y-57916420D01*
X138850500Y-57713465D01*
X138850500Y-57584108D01*
X142949500Y-57584108D01*
X142949500Y-57715891D01*
X142983608Y-57843187D01*
X143016554Y-57900250D01*
X143049500Y-57957314D01*
X143142686Y-58050500D01*
X143256814Y-58116392D01*
X143384108Y-58150500D01*
X143384110Y-58150500D01*
X143515890Y-58150500D01*
X143515892Y-58150500D01*
X143515893Y-58150499D01*
X143523948Y-58149439D01*
X143524206Y-58151400D01*
X143583321Y-58152799D01*
X143633265Y-58183236D01*
X144763181Y-59313152D01*
X144796666Y-59374475D01*
X144799500Y-59400833D01*
X144799500Y-59490892D01*
X144804181Y-59508362D01*
X144833608Y-59618187D01*
X144853363Y-59652403D01*
X144899500Y-59732314D01*
X144992686Y-59825500D01*
X145106814Y-59891392D01*
X145234108Y-59925500D01*
X145234110Y-59925500D01*
X145365890Y-59925500D01*
X145365892Y-59925500D01*
X145474011Y-59896530D01*
X152649500Y-59896530D01*
X152649500Y-60103469D01*
X152689868Y-60306412D01*
X152689870Y-60306420D01*
X152742322Y-60433051D01*
X152769059Y-60497598D01*
X152815025Y-60566391D01*
X152884024Y-60669657D01*
X153030342Y-60815975D01*
X153030345Y-60815977D01*
X153202402Y-60930941D01*
X153393580Y-61010130D01*
X153596530Y-61050499D01*
X153596534Y-61050500D01*
X153596535Y-61050500D01*
X153803466Y-61050500D01*
X153803467Y-61050499D01*
X154006420Y-61010130D01*
X154197598Y-60930941D01*
X154369655Y-60815977D01*
X154515977Y-60669655D01*
X154630941Y-60497598D01*
X154710130Y-60306420D01*
X154750500Y-60103465D01*
X154750500Y-60059843D01*
X176075235Y-60059843D01*
X176075235Y-60191627D01*
X176079438Y-60207313D01*
X176109343Y-60318922D01*
X176123514Y-60343466D01*
X176175235Y-60433049D01*
X176175237Y-60433051D01*
X176238916Y-60496730D01*
X176272401Y-60558053D01*
X176275235Y-60584411D01*
X176275235Y-61765588D01*
X176255550Y-61832627D01*
X176238917Y-61853269D01*
X176175235Y-61916951D01*
X176109343Y-62031077D01*
X176075235Y-62158373D01*
X176075235Y-62290156D01*
X176109343Y-62417452D01*
X176120361Y-62436535D01*
X176175235Y-62531579D01*
X176268421Y-62624765D01*
X176280376Y-62631667D01*
X176289533Y-62636954D01*
X176337749Y-62687521D01*
X176346722Y-62734078D01*
X176363402Y-62726444D01*
X176382646Y-62712742D01*
X176394588Y-62712173D01*
X176405459Y-62707199D01*
X176428841Y-62710542D01*
X176452437Y-62709419D01*
X176455213Y-62710127D01*
X176509843Y-62724765D01*
X176509846Y-62724765D01*
X176641625Y-62724765D01*
X176641627Y-62724765D01*
X176768921Y-62690657D01*
X176883049Y-62624765D01*
X176976235Y-62531579D01*
X177042127Y-62417451D01*
X177076235Y-62290157D01*
X177076235Y-62158373D01*
X177042127Y-62031079D01*
X176976235Y-61916951D01*
X176912553Y-61853269D01*
X176879069Y-61791945D01*
X176876235Y-61765588D01*
X176876235Y-60584411D01*
X176895920Y-60517372D01*
X176912554Y-60496730D01*
X176940956Y-60468328D01*
X176976235Y-60433049D01*
X177042127Y-60318921D01*
X177076235Y-60191627D01*
X177076235Y-60059843D01*
X177042127Y-59932549D01*
X176976235Y-59818421D01*
X176883049Y-59725235D01*
X176822949Y-59690536D01*
X176768922Y-59659343D01*
X176701669Y-59641323D01*
X176641627Y-59625235D01*
X176509843Y-59625235D01*
X176382547Y-59659343D01*
X176268421Y-59725235D01*
X176268418Y-59725237D01*
X176175237Y-59818418D01*
X176175235Y-59818421D01*
X176109343Y-59932547D01*
X176078802Y-60046530D01*
X176075235Y-60059843D01*
X154750500Y-60059843D01*
X154750500Y-59896535D01*
X154710130Y-59693580D01*
X154630941Y-59502402D01*
X154515977Y-59330345D01*
X154515975Y-59330342D01*
X154369657Y-59184024D01*
X154243156Y-59099500D01*
X154197598Y-59069059D01*
X154006420Y-58989870D01*
X154006412Y-58989868D01*
X153803469Y-58949500D01*
X153803465Y-58949500D01*
X153596535Y-58949500D01*
X153596530Y-58949500D01*
X153393587Y-58989868D01*
X153393579Y-58989870D01*
X153202403Y-59069058D01*
X153030342Y-59184024D01*
X152884024Y-59330342D01*
X152769058Y-59502403D01*
X152689870Y-59693579D01*
X152689868Y-59693587D01*
X152649500Y-59896530D01*
X145474011Y-59896530D01*
X145493186Y-59891392D01*
X145607314Y-59825500D01*
X145700500Y-59732314D01*
X145766392Y-59618186D01*
X145800500Y-59490892D01*
X145800500Y-59359108D01*
X145766392Y-59231814D01*
X145765268Y-59229868D01*
X145738800Y-59184024D01*
X145700500Y-59117686D01*
X145607314Y-59024500D01*
X145547330Y-58989868D01*
X145493187Y-58958608D01*
X145429539Y-58941554D01*
X145365892Y-58924500D01*
X145275833Y-58924500D01*
X145208794Y-58904815D01*
X145188152Y-58888181D01*
X143986819Y-57686848D01*
X143953334Y-57625525D01*
X143950500Y-57599167D01*
X143950500Y-57584110D01*
X143950500Y-57584108D01*
X143916392Y-57456814D01*
X143916390Y-57456810D01*
X143890776Y-57412445D01*
X143890775Y-57412444D01*
X143879883Y-57393579D01*
X143858493Y-57356530D01*
X152649500Y-57356530D01*
X152649500Y-57563469D01*
X152689868Y-57766412D01*
X152689870Y-57766420D01*
X152769058Y-57957596D01*
X152884024Y-58129657D01*
X153030342Y-58275975D01*
X153030345Y-58275977D01*
X153202402Y-58390941D01*
X153393580Y-58470130D01*
X153596530Y-58510499D01*
X153596534Y-58510500D01*
X153596535Y-58510500D01*
X153803466Y-58510500D01*
X153803467Y-58510499D01*
X154006420Y-58470130D01*
X154197598Y-58390941D01*
X154369655Y-58275977D01*
X154515977Y-58129655D01*
X154630941Y-57957598D01*
X154710130Y-57766420D01*
X154750500Y-57563465D01*
X154750500Y-57356535D01*
X154710130Y-57153580D01*
X154630941Y-56962402D01*
X154515977Y-56790345D01*
X154515975Y-56790342D01*
X154369657Y-56644024D01*
X154201718Y-56531812D01*
X154197598Y-56529059D01*
X154006420Y-56449870D01*
X154006412Y-56449868D01*
X153803469Y-56409500D01*
X153803465Y-56409500D01*
X153596535Y-56409500D01*
X153596530Y-56409500D01*
X153393587Y-56449868D01*
X153393579Y-56449870D01*
X153202403Y-56529058D01*
X153030342Y-56644024D01*
X152884024Y-56790342D01*
X152769058Y-56962403D01*
X152689870Y-57153579D01*
X152689868Y-57153587D01*
X152649500Y-57356530D01*
X143858493Y-57356530D01*
X143850500Y-57342686D01*
X143757314Y-57249500D01*
X143675740Y-57202403D01*
X143643187Y-57183608D01*
X143579539Y-57166554D01*
X143515892Y-57149500D01*
X143384108Y-57149500D01*
X143256812Y-57183608D01*
X143142686Y-57249500D01*
X143142683Y-57249502D01*
X143049502Y-57342683D01*
X143049500Y-57342686D01*
X142983608Y-57456812D01*
X142949500Y-57584108D01*
X138850500Y-57584108D01*
X138850500Y-57506535D01*
X138810130Y-57303580D01*
X138730941Y-57112402D01*
X138615977Y-56940345D01*
X138615975Y-56940342D01*
X138469657Y-56794024D01*
X138313775Y-56689868D01*
X138297598Y-56679059D01*
X138249432Y-56659108D01*
X138106420Y-56599870D01*
X138106412Y-56599868D01*
X137903469Y-56559500D01*
X137903465Y-56559500D01*
X137696535Y-56559500D01*
X137696530Y-56559500D01*
X137493587Y-56599868D01*
X137493579Y-56599870D01*
X137302403Y-56679058D01*
X137130342Y-56794024D01*
X136984024Y-56940342D01*
X136869058Y-57112403D01*
X136789870Y-57303579D01*
X136789868Y-57303587D01*
X136749500Y-57506530D01*
X135850500Y-57506530D01*
X135850500Y-54200247D01*
X136749500Y-54200247D01*
X136749500Y-55939752D01*
X136761131Y-55998229D01*
X136761132Y-55998230D01*
X136805447Y-56064552D01*
X136871769Y-56108867D01*
X136871770Y-56108868D01*
X136930247Y-56120499D01*
X136930250Y-56120500D01*
X136930252Y-56120500D01*
X138669750Y-56120500D01*
X138669751Y-56120499D01*
X138684568Y-56117552D01*
X138728229Y-56108868D01*
X138728229Y-56108867D01*
X138728231Y-56108867D01*
X138794552Y-56064552D01*
X138838867Y-55998231D01*
X138838867Y-55998229D01*
X138838868Y-55998229D01*
X138850499Y-55939752D01*
X138850500Y-55939750D01*
X138850500Y-54816530D01*
X152649500Y-54816530D01*
X152649500Y-55023469D01*
X152689868Y-55226412D01*
X152689870Y-55226420D01*
X152769058Y-55417596D01*
X152884024Y-55589657D01*
X153030342Y-55735975D01*
X153030345Y-55735977D01*
X153202402Y-55850941D01*
X153393580Y-55930130D01*
X153596530Y-55970499D01*
X153596534Y-55970500D01*
X153596535Y-55970500D01*
X153803466Y-55970500D01*
X153803467Y-55970499D01*
X154006420Y-55930130D01*
X154197598Y-55850941D01*
X154369655Y-55735977D01*
X154515977Y-55589655D01*
X154630941Y-55417598D01*
X154710130Y-55226420D01*
X154750500Y-55023465D01*
X154750500Y-54984108D01*
X170574500Y-54984108D01*
X170574500Y-55115891D01*
X170608608Y-55243187D01*
X170610562Y-55246571D01*
X170674500Y-55357314D01*
X170767686Y-55450500D01*
X170881814Y-55516392D01*
X171009108Y-55550500D01*
X171009110Y-55550500D01*
X171140890Y-55550500D01*
X171140892Y-55550500D01*
X171268186Y-55516392D01*
X171382314Y-55450500D01*
X171475500Y-55357314D01*
X171541392Y-55243186D01*
X171575500Y-55115892D01*
X171575500Y-55073428D01*
X190800000Y-55073428D01*
X190800000Y-55246571D01*
X190827085Y-55417584D01*
X190880591Y-55582257D01*
X190959198Y-55736528D01*
X191023219Y-55824646D01*
X191023220Y-55824647D01*
X191456329Y-55391538D01*
X191499901Y-55467007D01*
X191592993Y-55560099D01*
X191668460Y-55603670D01*
X191235351Y-56036778D01*
X191235352Y-56036780D01*
X191323471Y-56100801D01*
X191477742Y-56179408D01*
X191642415Y-56232914D01*
X191813429Y-56260000D01*
X191986571Y-56260000D01*
X192157584Y-56232914D01*
X192322257Y-56179408D01*
X192476525Y-56100803D01*
X192564646Y-56036778D01*
X192564647Y-56036778D01*
X192131539Y-55603670D01*
X192207007Y-55560099D01*
X192300099Y-55467007D01*
X192343670Y-55391538D01*
X192776778Y-55824647D01*
X192776778Y-55824646D01*
X192840803Y-55736525D01*
X192919408Y-55582257D01*
X192972914Y-55417584D01*
X193000000Y-55246571D01*
X193000000Y-55073428D01*
X192972914Y-54902415D01*
X192919408Y-54737742D01*
X192840801Y-54583471D01*
X192776780Y-54495352D01*
X192776778Y-54495351D01*
X192343670Y-54928460D01*
X192300099Y-54852993D01*
X192207007Y-54759901D01*
X192131538Y-54716329D01*
X192557619Y-54290247D01*
X193389500Y-54290247D01*
X193389500Y-56029752D01*
X193401131Y-56088229D01*
X193401132Y-56088230D01*
X193445447Y-56154552D01*
X193511769Y-56198867D01*
X193511770Y-56198868D01*
X193570247Y-56210499D01*
X193570250Y-56210500D01*
X193570252Y-56210500D01*
X195309750Y-56210500D01*
X195309751Y-56210499D01*
X195324568Y-56207552D01*
X195368229Y-56198868D01*
X195368229Y-56198867D01*
X195368231Y-56198867D01*
X195434552Y-56154552D01*
X195478867Y-56088231D01*
X195478867Y-56088229D01*
X195478868Y-56088229D01*
X195490499Y-56029752D01*
X195490500Y-56029750D01*
X195490500Y-54290249D01*
X195490499Y-54290247D01*
X195478868Y-54231770D01*
X195478867Y-54231769D01*
X195434552Y-54165447D01*
X195368230Y-54121132D01*
X195368229Y-54121131D01*
X195309752Y-54109500D01*
X195309748Y-54109500D01*
X193570252Y-54109500D01*
X193570247Y-54109500D01*
X193511770Y-54121131D01*
X193511769Y-54121132D01*
X193445447Y-54165447D01*
X193401132Y-54231769D01*
X193401131Y-54231770D01*
X193389500Y-54290247D01*
X192557619Y-54290247D01*
X192564647Y-54283219D01*
X192476528Y-54219198D01*
X192322257Y-54140591D01*
X192157584Y-54087085D01*
X191986571Y-54060000D01*
X191813429Y-54060000D01*
X191642415Y-54087085D01*
X191477742Y-54140591D01*
X191323478Y-54219194D01*
X191235352Y-54283220D01*
X191668461Y-54716329D01*
X191592993Y-54759901D01*
X191499901Y-54852993D01*
X191456329Y-54928461D01*
X191023220Y-54495352D01*
X190959194Y-54583478D01*
X190880591Y-54737742D01*
X190827085Y-54902415D01*
X190800000Y-55073428D01*
X171575500Y-55073428D01*
X171575500Y-54984108D01*
X171541392Y-54856814D01*
X171475500Y-54742686D01*
X171411818Y-54679004D01*
X171378334Y-54617680D01*
X171375500Y-54591323D01*
X171375500Y-53559108D01*
X176699500Y-53559108D01*
X176699500Y-53690892D01*
X176706199Y-53715892D01*
X176733608Y-53818187D01*
X176748042Y-53843187D01*
X176799500Y-53932314D01*
X176799502Y-53932316D01*
X176829504Y-53962318D01*
X176862989Y-54023641D01*
X176858005Y-54093333D01*
X176829512Y-54137672D01*
X176824506Y-54142678D01*
X176824500Y-54142686D01*
X176758608Y-54256812D01*
X176729089Y-54366981D01*
X176724500Y-54384108D01*
X176724500Y-54515892D01*
X176740472Y-54575500D01*
X176758608Y-54643187D01*
X176786439Y-54691391D01*
X176824500Y-54757314D01*
X176917686Y-54850500D01*
X177031814Y-54916392D01*
X177159108Y-54950500D01*
X177159110Y-54950500D01*
X177290890Y-54950500D01*
X177290892Y-54950500D01*
X177418186Y-54916392D01*
X177532314Y-54850500D01*
X177595995Y-54786819D01*
X177657318Y-54753334D01*
X177683676Y-54750500D01*
X182614560Y-54750500D01*
X182614562Y-54750500D01*
X182690989Y-54730021D01*
X182690989Y-54730020D01*
X182698840Y-54727917D01*
X182699375Y-54729913D01*
X182731142Y-54723606D01*
X184171366Y-54723606D01*
X184238405Y-54743291D01*
X184259047Y-54759925D01*
X184322728Y-54823606D01*
X184436856Y-54889498D01*
X184564150Y-54923606D01*
X184564152Y-54923606D01*
X184695932Y-54923606D01*
X184695934Y-54923606D01*
X184823228Y-54889498D01*
X184937356Y-54823606D01*
X185030542Y-54730420D01*
X185096434Y-54616292D01*
X185130542Y-54488998D01*
X185130542Y-54357214D01*
X185096434Y-54229920D01*
X185030542Y-54115792D01*
X184995769Y-54081019D01*
X184962284Y-54019696D01*
X184967268Y-53950004D01*
X184976058Y-53931347D01*
X185041392Y-53818186D01*
X185075500Y-53690892D01*
X185075500Y-53559108D01*
X185041392Y-53431814D01*
X185040633Y-53430500D01*
X185012813Y-53382314D01*
X184975500Y-53317686D01*
X184882314Y-53224500D01*
X184808375Y-53181811D01*
X184768187Y-53158608D01*
X184675578Y-53133794D01*
X184640892Y-53124500D01*
X184509108Y-53124500D01*
X184381812Y-53158608D01*
X184267686Y-53224500D01*
X184267683Y-53224502D01*
X184204005Y-53288181D01*
X184142682Y-53321666D01*
X184116324Y-53324500D01*
X177658676Y-53324500D01*
X177591637Y-53304815D01*
X177570995Y-53288181D01*
X177507316Y-53224502D01*
X177507314Y-53224500D01*
X177433375Y-53181811D01*
X177393187Y-53158608D01*
X177300578Y-53133794D01*
X177265892Y-53124500D01*
X177134108Y-53124500D01*
X177006812Y-53158608D01*
X176892686Y-53224500D01*
X176892683Y-53224502D01*
X176799502Y-53317683D01*
X176799500Y-53317686D01*
X176733608Y-53431812D01*
X176714939Y-53501487D01*
X176699500Y-53559108D01*
X171375500Y-53559108D01*
X171375500Y-53200833D01*
X171395185Y-53133794D01*
X171411819Y-53113152D01*
X171515863Y-53009108D01*
X192874500Y-53009108D01*
X192874500Y-53140892D01*
X192877781Y-53153137D01*
X192908608Y-53268187D01*
X192937185Y-53317683D01*
X192974500Y-53382314D01*
X193067686Y-53475500D01*
X193181814Y-53541392D01*
X193309108Y-53575500D01*
X193309110Y-53575500D01*
X193440890Y-53575500D01*
X193440892Y-53575500D01*
X193568186Y-53541392D01*
X193682314Y-53475500D01*
X193745995Y-53411819D01*
X193807318Y-53378334D01*
X193833676Y-53375500D01*
X195474167Y-53375500D01*
X195541206Y-53395185D01*
X195561848Y-53411819D01*
X195763181Y-53613152D01*
X195796666Y-53674475D01*
X195799500Y-53700833D01*
X195799500Y-59441323D01*
X195779815Y-59508362D01*
X195763182Y-59529004D01*
X195699500Y-59592686D01*
X195633608Y-59706812D01*
X195626775Y-59732314D01*
X195619219Y-59760517D01*
X195619189Y-59760628D01*
X195582824Y-59820289D01*
X195519977Y-59850818D01*
X195450602Y-59842523D01*
X195396724Y-59798038D01*
X195384853Y-59775988D01*
X195381356Y-59767547D01*
X195370941Y-59742402D01*
X195255977Y-59570345D01*
X195255975Y-59570342D01*
X195109657Y-59424024D01*
X194974961Y-59334024D01*
X194937598Y-59309059D01*
X194746420Y-59229870D01*
X194746412Y-59229868D01*
X194543469Y-59189500D01*
X194543465Y-59189500D01*
X194336535Y-59189500D01*
X194336530Y-59189500D01*
X194133587Y-59229868D01*
X194133579Y-59229870D01*
X193942403Y-59309058D01*
X193770342Y-59424024D01*
X193624024Y-59570342D01*
X193509058Y-59742403D01*
X193429870Y-59933579D01*
X193429868Y-59933587D01*
X193389500Y-60136530D01*
X193389500Y-60343469D01*
X193429868Y-60546412D01*
X193429870Y-60546420D01*
X193509058Y-60737596D01*
X193624024Y-60909657D01*
X193770342Y-61055975D01*
X193770345Y-61055977D01*
X193942402Y-61170941D01*
X194133580Y-61250130D01*
X194336530Y-61290499D01*
X194336534Y-61290500D01*
X194336535Y-61290500D01*
X194543466Y-61290500D01*
X194543467Y-61290499D01*
X194746420Y-61250130D01*
X194937598Y-61170941D01*
X195109655Y-61055977D01*
X195255977Y-60909655D01*
X195370941Y-60737598D01*
X195450130Y-60546420D01*
X195490500Y-60343465D01*
X195490500Y-60297676D01*
X195510185Y-60230637D01*
X195562989Y-60184882D01*
X195632147Y-60174938D01*
X195695703Y-60203963D01*
X195702181Y-60209995D01*
X195792686Y-60300500D01*
X195906814Y-60366392D01*
X196034108Y-60400500D01*
X196034110Y-60400500D01*
X196165890Y-60400500D01*
X196165892Y-60400500D01*
X196293186Y-60366392D01*
X196407314Y-60300500D01*
X196500500Y-60207314D01*
X196566392Y-60093186D01*
X196600500Y-59965892D01*
X196600500Y-59834108D01*
X196566392Y-59706814D01*
X196500500Y-59592686D01*
X196436818Y-59529004D01*
X196403334Y-59467680D01*
X196400500Y-59441323D01*
X196400500Y-53485439D01*
X196397836Y-53475497D01*
X196380021Y-53409011D01*
X196357327Y-53369703D01*
X196340464Y-53340495D01*
X196340458Y-53340487D01*
X195834512Y-52834541D01*
X195834507Y-52834537D01*
X195825065Y-52829086D01*
X195825064Y-52829086D01*
X195765991Y-52794980D01*
X195765990Y-52794979D01*
X195740513Y-52788152D01*
X195689562Y-52774500D01*
X195689560Y-52774500D01*
X193833676Y-52774500D01*
X193766637Y-52754815D01*
X193745995Y-52738181D01*
X193682316Y-52674502D01*
X193682314Y-52674500D01*
X193625250Y-52641554D01*
X193568187Y-52608608D01*
X193504539Y-52591554D01*
X193440892Y-52574500D01*
X193309108Y-52574500D01*
X193181812Y-52608608D01*
X193067686Y-52674500D01*
X193067683Y-52674502D01*
X192974502Y-52767683D01*
X192974500Y-52767686D01*
X192908608Y-52881812D01*
X192885192Y-52969203D01*
X192874500Y-53009108D01*
X171515863Y-53009108D01*
X171786790Y-52738181D01*
X172240460Y-52284511D01*
X172280022Y-52215988D01*
X172300500Y-52139562D01*
X172300500Y-52060438D01*
X172300500Y-48658676D01*
X172320185Y-48591637D01*
X172336819Y-48570995D01*
X172342878Y-48564936D01*
X172400500Y-48507314D01*
X172466392Y-48393186D01*
X172500500Y-48265892D01*
X172500500Y-48134108D01*
X172466392Y-48006814D01*
X172400500Y-47892686D01*
X172307314Y-47799500D01*
X172250250Y-47766554D01*
X172193187Y-47733608D01*
X172129539Y-47716554D01*
X172065892Y-47699500D01*
X171934108Y-47699500D01*
X171806812Y-47733608D01*
X171692686Y-47799500D01*
X171692683Y-47799502D01*
X171599502Y-47892683D01*
X171599500Y-47892686D01*
X171533608Y-48006812D01*
X171507615Y-48103822D01*
X171499500Y-48134108D01*
X171499500Y-48265892D01*
X171503518Y-48280886D01*
X171533608Y-48393187D01*
X171566554Y-48450250D01*
X171599500Y-48507314D01*
X171599502Y-48507316D01*
X171663181Y-48570995D01*
X171696666Y-48632318D01*
X171699500Y-48658676D01*
X171699500Y-51924167D01*
X171679815Y-51991206D01*
X171663181Y-52011848D01*
X170834541Y-52840487D01*
X170834535Y-52840495D01*
X170794982Y-52909004D01*
X170794979Y-52909009D01*
X170774500Y-52985439D01*
X170774500Y-54591323D01*
X170754815Y-54658362D01*
X170738182Y-54679004D01*
X170674500Y-54742686D01*
X170608608Y-54856812D01*
X170574500Y-54984108D01*
X154750500Y-54984108D01*
X154750500Y-54816535D01*
X154710130Y-54613580D01*
X154630941Y-54422402D01*
X154515977Y-54250345D01*
X154515975Y-54250342D01*
X154369657Y-54104024D01*
X154260564Y-54031131D01*
X154197598Y-53989059D01*
X154180107Y-53981814D01*
X154006420Y-53909870D01*
X154006412Y-53909868D01*
X153803469Y-53869500D01*
X153803465Y-53869500D01*
X153596535Y-53869500D01*
X153596530Y-53869500D01*
X153393587Y-53909868D01*
X153393579Y-53909870D01*
X153202403Y-53989058D01*
X153030342Y-54104024D01*
X152884024Y-54250342D01*
X152769058Y-54422403D01*
X152689870Y-54613579D01*
X152689868Y-54613587D01*
X152649500Y-54816530D01*
X138850500Y-54816530D01*
X138850500Y-54200249D01*
X138850499Y-54200247D01*
X138838868Y-54141770D01*
X138838867Y-54141769D01*
X138794552Y-54075447D01*
X138728230Y-54031132D01*
X138728229Y-54031131D01*
X138669752Y-54019500D01*
X138669748Y-54019500D01*
X136930252Y-54019500D01*
X136930247Y-54019500D01*
X136871770Y-54031131D01*
X136871769Y-54031132D01*
X136805447Y-54075447D01*
X136761132Y-54141769D01*
X136761131Y-54141770D01*
X136749500Y-54200247D01*
X135850500Y-54200247D01*
X135850500Y-53534108D01*
X149149500Y-53534108D01*
X149149500Y-53665892D01*
X149156199Y-53690892D01*
X149183608Y-53793187D01*
X149198042Y-53818187D01*
X149249500Y-53907314D01*
X149342686Y-54000500D01*
X149456814Y-54066392D01*
X149584108Y-54100500D01*
X149584110Y-54100500D01*
X149715890Y-54100500D01*
X149715892Y-54100500D01*
X149843186Y-54066392D01*
X149957314Y-54000500D01*
X150020995Y-53936819D01*
X150082318Y-53903334D01*
X150108676Y-53900500D01*
X151920107Y-53900500D01*
X151987146Y-53920185D01*
X152017732Y-53952260D01*
X152019552Y-53950865D01*
X152024498Y-53957311D01*
X152024500Y-53957314D01*
X152117686Y-54050500D01*
X152210390Y-54104023D01*
X152230769Y-54115789D01*
X152231814Y-54116392D01*
X152359108Y-54150500D01*
X152359110Y-54150500D01*
X152490890Y-54150500D01*
X152490892Y-54150500D01*
X152618186Y-54116392D01*
X152732314Y-54050500D01*
X152825500Y-53957314D01*
X152891392Y-53843186D01*
X152925500Y-53715892D01*
X152925500Y-53584108D01*
X152925499Y-53584106D01*
X152924439Y-53576052D01*
X152926424Y-53575790D01*
X152927825Y-53516753D01*
X152966983Y-53458887D01*
X153031209Y-53431378D01*
X153045940Y-53430500D01*
X154569750Y-53430500D01*
X154569751Y-53430499D01*
X154584568Y-53427552D01*
X154628229Y-53418868D01*
X154628229Y-53418867D01*
X154628231Y-53418867D01*
X154694552Y-53374552D01*
X154738283Y-53309105D01*
X155549500Y-53309105D01*
X155549500Y-53440889D01*
X155565737Y-53501486D01*
X155583608Y-53568184D01*
X155588151Y-53576052D01*
X155649500Y-53682311D01*
X155649502Y-53682313D01*
X155654506Y-53687317D01*
X155687991Y-53748640D01*
X155683007Y-53818332D01*
X155654510Y-53862675D01*
X155649503Y-53867682D01*
X155649501Y-53867684D01*
X155649500Y-53867686D01*
X155619190Y-53920185D01*
X155583608Y-53981813D01*
X155549500Y-54109108D01*
X155549500Y-54240891D01*
X155583608Y-54368187D01*
X155612476Y-54418186D01*
X155649500Y-54482314D01*
X155742686Y-54575500D01*
X155856814Y-54641392D01*
X155984108Y-54675500D01*
X155984110Y-54675500D01*
X156115890Y-54675500D01*
X156115892Y-54675500D01*
X156243186Y-54641392D01*
X156357314Y-54575500D01*
X156450500Y-54482314D01*
X156516392Y-54368186D01*
X156550500Y-54240892D01*
X156550500Y-54240890D01*
X156552603Y-54233042D01*
X156554942Y-54233668D01*
X156578240Y-54181010D01*
X156636565Y-54142541D01*
X156672910Y-54137095D01*
X157795065Y-54137095D01*
X157795067Y-54137095D01*
X157871494Y-54116616D01*
X157940016Y-54077055D01*
X157995965Y-54021106D01*
X159624819Y-52392252D01*
X159686142Y-52358767D01*
X159755834Y-52363751D01*
X159800181Y-52392252D01*
X161429035Y-54021106D01*
X161484984Y-54077055D01*
X161484986Y-54077056D01*
X161484990Y-54077059D01*
X161552079Y-54115792D01*
X161553506Y-54116616D01*
X161629933Y-54137095D01*
X163794086Y-54137095D01*
X163820266Y-54144782D01*
X163847221Y-54149056D01*
X163856070Y-54155295D01*
X163861125Y-54156780D01*
X163876633Y-54168564D01*
X163879265Y-54170912D01*
X163985408Y-54277055D01*
X164021790Y-54298060D01*
X164031300Y-54306544D01*
X164043298Y-54325820D01*
X164058969Y-54342255D01*
X164067887Y-54365325D01*
X164068222Y-54365862D01*
X164068217Y-54366177D01*
X164068527Y-54366978D01*
X164082248Y-54418186D01*
X164148140Y-54532314D01*
X164241326Y-54625500D01*
X164355454Y-54691392D01*
X164482748Y-54725500D01*
X164482750Y-54725500D01*
X164614530Y-54725500D01*
X164614532Y-54725500D01*
X164741826Y-54691392D01*
X164855954Y-54625500D01*
X164949140Y-54532314D01*
X165015032Y-54418186D01*
X165049140Y-54290892D01*
X165049140Y-54159108D01*
X165015032Y-54031814D01*
X165007922Y-54019500D01*
X164990347Y-53989059D01*
X164949140Y-53917686D01*
X164870171Y-53838717D01*
X164836686Y-53777394D01*
X164841670Y-53707702D01*
X164850462Y-53689041D01*
X164885254Y-53628781D01*
X164919362Y-53501487D01*
X164919362Y-53369703D01*
X164885254Y-53242409D01*
X164819362Y-53128281D01*
X164726176Y-53035095D01*
X164640168Y-52985438D01*
X164612049Y-52969203D01*
X164548401Y-52952149D01*
X164484754Y-52935095D01*
X164352970Y-52935095D01*
X164225674Y-52969203D01*
X164111548Y-53035095D01*
X164111545Y-53035097D01*
X164047867Y-53098776D01*
X163986544Y-53132261D01*
X163960186Y-53135095D01*
X162011428Y-53135095D01*
X161944389Y-53115410D01*
X161923747Y-53098776D01*
X159897013Y-51072042D01*
X159897011Y-51072040D01*
X159875809Y-51059799D01*
X159875808Y-51059798D01*
X159828493Y-51032480D01*
X159828490Y-51032479D01*
X159828489Y-51032478D01*
X159828488Y-51032478D01*
X159752062Y-51012000D01*
X159672938Y-51012000D01*
X159596510Y-51032478D01*
X159527989Y-51072040D01*
X159527986Y-51072042D01*
X157501253Y-53098776D01*
X157439930Y-53132261D01*
X157413572Y-53135095D01*
X156561012Y-53135095D01*
X156493973Y-53115410D01*
X156453625Y-53073095D01*
X156450502Y-53067686D01*
X156450498Y-53067681D01*
X156357316Y-52974499D01*
X156357314Y-52974497D01*
X156289068Y-52935095D01*
X156243187Y-52908605D01*
X156179539Y-52891551D01*
X156115892Y-52874497D01*
X155984108Y-52874497D01*
X155856812Y-52908605D01*
X155742686Y-52974497D01*
X155742683Y-52974499D01*
X155649502Y-53067680D01*
X155649500Y-53067683D01*
X155583608Y-53181809D01*
X155553900Y-53292683D01*
X155549500Y-53309105D01*
X154738283Y-53309105D01*
X154738867Y-53308231D01*
X154750500Y-53249748D01*
X154750500Y-51510252D01*
X154750500Y-51510249D01*
X154750499Y-51510247D01*
X154738868Y-51451770D01*
X154738867Y-51451769D01*
X154694552Y-51385447D01*
X154628230Y-51341132D01*
X154628229Y-51341131D01*
X154569752Y-51329500D01*
X154569748Y-51329500D01*
X152830252Y-51329500D01*
X152830247Y-51329500D01*
X152771770Y-51341131D01*
X152771769Y-51341132D01*
X152705447Y-51385447D01*
X152661132Y-51451769D01*
X152661131Y-51451770D01*
X152649500Y-51510247D01*
X152649500Y-53030399D01*
X152629815Y-53097438D01*
X152577011Y-53143193D01*
X152507853Y-53153137D01*
X152493414Y-53150176D01*
X152490892Y-53149500D01*
X152359108Y-53149500D01*
X152231812Y-53183608D01*
X152117686Y-53249500D01*
X152117683Y-53249502D01*
X152104005Y-53263181D01*
X152042682Y-53296666D01*
X152016324Y-53299500D01*
X150108676Y-53299500D01*
X150041637Y-53279815D01*
X150020995Y-53263181D01*
X149957316Y-53199502D01*
X149957314Y-53199500D01*
X149886487Y-53158608D01*
X149843187Y-53133608D01*
X149766842Y-53113152D01*
X149715892Y-53099500D01*
X149584108Y-53099500D01*
X149456812Y-53133608D01*
X149342686Y-53199500D01*
X149342683Y-53199502D01*
X149249502Y-53292683D01*
X149249500Y-53292686D01*
X149183608Y-53406812D01*
X149158241Y-53501485D01*
X149149500Y-53534108D01*
X135850500Y-53534108D01*
X135850500Y-48318713D01*
X136724500Y-48318713D01*
X136724500Y-48531286D01*
X136744676Y-48658676D01*
X136757754Y-48741243D01*
X136820257Y-48933608D01*
X136823444Y-48943414D01*
X136919951Y-49132820D01*
X137044890Y-49304786D01*
X137195213Y-49455109D01*
X137367179Y-49580048D01*
X137367181Y-49580049D01*
X137367184Y-49580051D01*
X137556588Y-49676557D01*
X137758757Y-49742246D01*
X137968713Y-49775500D01*
X137968714Y-49775500D01*
X138181286Y-49775500D01*
X138181287Y-49775500D01*
X138391243Y-49742246D01*
X138593412Y-49676557D01*
X138782816Y-49580051D01*
X138873910Y-49513868D01*
X138954786Y-49455109D01*
X138954788Y-49455106D01*
X138954792Y-49455104D01*
X139105104Y-49304792D01*
X139105106Y-49304788D01*
X139105109Y-49304786D01*
X139230048Y-49132820D01*
X139230047Y-49132820D01*
X139230051Y-49132816D01*
X139326557Y-48943412D01*
X139392246Y-48741243D01*
X139425500Y-48531287D01*
X139425500Y-48318713D01*
X139423367Y-48305247D01*
X142549500Y-48305247D01*
X142549500Y-49344752D01*
X142561131Y-49403229D01*
X142561132Y-49403230D01*
X142605447Y-49469552D01*
X142671769Y-49513867D01*
X142671770Y-49513868D01*
X142730247Y-49525499D01*
X142730250Y-49525500D01*
X142730252Y-49525500D01*
X143769750Y-49525500D01*
X143769751Y-49525499D01*
X143784568Y-49522552D01*
X143828229Y-49513868D01*
X143828229Y-49513867D01*
X143828231Y-49513867D01*
X143894552Y-49469552D01*
X143927279Y-49420573D01*
X143980889Y-49375769D01*
X144050213Y-49367060D01*
X144099271Y-49386362D01*
X144188182Y-49445771D01*
X144188195Y-49445778D01*
X144315667Y-49498578D01*
X144315672Y-49498580D01*
X144315676Y-49498580D01*
X144315677Y-49498581D01*
X144451004Y-49525500D01*
X144451007Y-49525500D01*
X144588995Y-49525500D01*
X144680041Y-49507389D01*
X144724328Y-49498580D01*
X144851811Y-49445775D01*
X144966542Y-49369114D01*
X145064114Y-49271542D01*
X145064116Y-49271538D01*
X145067318Y-49268337D01*
X145075265Y-49263997D01*
X145080690Y-49256751D01*
X145105446Y-49247517D01*
X145128641Y-49234852D01*
X145137671Y-49235497D01*
X145146154Y-49232334D01*
X145171974Y-49237950D01*
X145198333Y-49239836D01*
X145207386Y-49245654D01*
X145214427Y-49247186D01*
X145242681Y-49268337D01*
X145303181Y-49328837D01*
X145336666Y-49390160D01*
X145339500Y-49416518D01*
X145339500Y-50699308D01*
X145363712Y-50789672D01*
X145370200Y-50813885D01*
X145370200Y-50813886D01*
X145370201Y-50813887D01*
X145429511Y-50916614D01*
X145798386Y-51285489D01*
X145901113Y-51344799D01*
X145925321Y-51351284D01*
X145925324Y-51351286D01*
X145925325Y-51351286D01*
X145955447Y-51359357D01*
X146015691Y-51375500D01*
X146015693Y-51375500D01*
X149809308Y-51375500D01*
X149809309Y-51375500D01*
X149899673Y-51351286D01*
X149923887Y-51344799D01*
X150026614Y-51285489D01*
X151435489Y-49876614D01*
X151494799Y-49773887D01*
X151520878Y-49676557D01*
X151525500Y-49659309D01*
X151525500Y-49643971D01*
X151527090Y-49634140D01*
X151535542Y-49616458D01*
X151539618Y-49601246D01*
X151538282Y-49600693D01*
X151541388Y-49593192D01*
X151541392Y-49593186D01*
X151575500Y-49465892D01*
X151575500Y-49334108D01*
X151541392Y-49206814D01*
X151475500Y-49092686D01*
X151382314Y-48999500D01*
X151325250Y-48966554D01*
X151268187Y-48933608D01*
X151204539Y-48916554D01*
X151140892Y-48899500D01*
X151009108Y-48899500D01*
X150881812Y-48933608D01*
X150767686Y-48999500D01*
X150767683Y-48999502D01*
X150674502Y-49092683D01*
X150674500Y-49092686D01*
X150608608Y-49206812D01*
X150574500Y-49334108D01*
X150574500Y-49412035D01*
X150554815Y-49479074D01*
X150538181Y-49499716D01*
X149599716Y-50438181D01*
X149538393Y-50471666D01*
X149512035Y-50474500D01*
X146364500Y-50474500D01*
X146297461Y-50454815D01*
X146251706Y-50402011D01*
X146240500Y-50350500D01*
X146240500Y-49416518D01*
X146249144Y-49387077D01*
X146255668Y-49357091D01*
X146259422Y-49352075D01*
X146260185Y-49349479D01*
X146276819Y-49328837D01*
X146331658Y-49273998D01*
X146392981Y-49240513D01*
X146431495Y-49238276D01*
X146434313Y-49238553D01*
X146749810Y-48923057D01*
X146757149Y-48950445D01*
X146799936Y-49024554D01*
X146860446Y-49085064D01*
X146934555Y-49127851D01*
X146961941Y-49135189D01*
X146646443Y-49450687D01*
X146704744Y-49489642D01*
X146841232Y-49546177D01*
X146841240Y-49546179D01*
X146986126Y-49574999D01*
X146986129Y-49575000D01*
X147133871Y-49575000D01*
X147133873Y-49574999D01*
X147278759Y-49546179D01*
X147278767Y-49546177D01*
X147415256Y-49489641D01*
X147415262Y-49489638D01*
X147473555Y-49450687D01*
X147473555Y-49450686D01*
X147158058Y-49135189D01*
X147185445Y-49127851D01*
X147259554Y-49085064D01*
X147320064Y-49024554D01*
X147362851Y-48950445D01*
X147370189Y-48923057D01*
X147685686Y-49238555D01*
X147685687Y-49238555D01*
X147724638Y-49180262D01*
X147724641Y-49180256D01*
X147781177Y-49043767D01*
X147781179Y-49043759D01*
X147809999Y-48898873D01*
X147810000Y-48898871D01*
X147810000Y-48751128D01*
X147809999Y-48751126D01*
X147781179Y-48606240D01*
X147781177Y-48606232D01*
X147724642Y-48469744D01*
X147685687Y-48411443D01*
X147370189Y-48726941D01*
X147362851Y-48699555D01*
X147320064Y-48625446D01*
X147259554Y-48564936D01*
X147185445Y-48522149D01*
X147158057Y-48514810D01*
X147473554Y-48199312D01*
X147415255Y-48160357D01*
X147278767Y-48103822D01*
X147278759Y-48103820D01*
X147133872Y-48075000D01*
X146986128Y-48075000D01*
X146841240Y-48103820D01*
X146841232Y-48103822D01*
X146704743Y-48160358D01*
X146646444Y-48199312D01*
X146646443Y-48199312D01*
X146961942Y-48514810D01*
X146934555Y-48522149D01*
X146860446Y-48564936D01*
X146799936Y-48625446D01*
X146757149Y-48699555D01*
X146749810Y-48726941D01*
X146434312Y-48411443D01*
X146431491Y-48411721D01*
X146429797Y-48411399D01*
X146428183Y-48412002D01*
X146395606Y-48404915D01*
X146362845Y-48398702D01*
X146361055Y-48397399D01*
X146359910Y-48397150D01*
X146331656Y-48375999D01*
X146236545Y-48280888D01*
X146236541Y-48280885D01*
X146121817Y-48204228D01*
X146121804Y-48204221D01*
X145994332Y-48151421D01*
X145994322Y-48151418D01*
X145858995Y-48124500D01*
X145858993Y-48124500D01*
X145721007Y-48124500D01*
X145721005Y-48124500D01*
X145585677Y-48151418D01*
X145585667Y-48151421D01*
X145458195Y-48204221D01*
X145458182Y-48204228D01*
X145343458Y-48280885D01*
X145343454Y-48280888D01*
X145242681Y-48381662D01*
X145181358Y-48415147D01*
X145111666Y-48410163D01*
X145067319Y-48381662D01*
X144966545Y-48280888D01*
X144966541Y-48280885D01*
X144851817Y-48204228D01*
X144851804Y-48204221D01*
X144724332Y-48151421D01*
X144724322Y-48151418D01*
X144588995Y-48124500D01*
X144588993Y-48124500D01*
X144451007Y-48124500D01*
X144451005Y-48124500D01*
X144315677Y-48151418D01*
X144315667Y-48151421D01*
X144188195Y-48204221D01*
X144188177Y-48204231D01*
X144099270Y-48263637D01*
X144032593Y-48284515D01*
X143965213Y-48266030D01*
X143927279Y-48229427D01*
X143894552Y-48180448D01*
X143864485Y-48160357D01*
X143828230Y-48136132D01*
X143828229Y-48136131D01*
X143769752Y-48124500D01*
X143769748Y-48124500D01*
X142730252Y-48124500D01*
X142730247Y-48124500D01*
X142671770Y-48136131D01*
X142671769Y-48136132D01*
X142605447Y-48180447D01*
X142561132Y-48246769D01*
X142561131Y-48246770D01*
X142549500Y-48305247D01*
X139423367Y-48305247D01*
X139392246Y-48108757D01*
X139326557Y-47906588D01*
X139230051Y-47717184D01*
X139230049Y-47717181D01*
X139230048Y-47717179D01*
X139105109Y-47545213D01*
X138954786Y-47394890D01*
X138782820Y-47269951D01*
X138593414Y-47173444D01*
X138593413Y-47173443D01*
X138593412Y-47173443D01*
X138391243Y-47107754D01*
X138391240Y-47107753D01*
X138229957Y-47082208D01*
X138181287Y-47074500D01*
X137968713Y-47074500D01*
X137920042Y-47082208D01*
X137758760Y-47107753D01*
X137556585Y-47173444D01*
X137367179Y-47269951D01*
X137195213Y-47394890D01*
X137044890Y-47545213D01*
X136919951Y-47717179D01*
X136823444Y-47906585D01*
X136757753Y-48108760D01*
X136724500Y-48318713D01*
X135850500Y-48318713D01*
X135850500Y-47009108D01*
X186774500Y-47009108D01*
X186774500Y-47140891D01*
X186808608Y-47268187D01*
X186838493Y-47319949D01*
X186874500Y-47382314D01*
X186874502Y-47382316D01*
X186938181Y-47445995D01*
X186971666Y-47507318D01*
X186974500Y-47533676D01*
X186974500Y-50841323D01*
X186954815Y-50908362D01*
X186938182Y-50929004D01*
X186874500Y-50992686D01*
X186808608Y-51106812D01*
X186774500Y-51234108D01*
X186774500Y-51365892D01*
X186779740Y-51385447D01*
X186808608Y-51493187D01*
X186818458Y-51510247D01*
X186874500Y-51607314D01*
X186967686Y-51700500D01*
X187081814Y-51766392D01*
X187209108Y-51800500D01*
X187209110Y-51800500D01*
X187340890Y-51800500D01*
X187340892Y-51800500D01*
X187468186Y-51766392D01*
X187582314Y-51700500D01*
X187675500Y-51607314D01*
X187741392Y-51493186D01*
X187775500Y-51365892D01*
X187775500Y-51234108D01*
X187741392Y-51106814D01*
X187675500Y-50992686D01*
X187611818Y-50929004D01*
X187578334Y-50867680D01*
X187575500Y-50841323D01*
X187575500Y-48368713D01*
X192724500Y-48368713D01*
X192724500Y-48581286D01*
X192756323Y-48782213D01*
X192757754Y-48791243D01*
X192804011Y-48933608D01*
X192823444Y-48993414D01*
X192919951Y-49182820D01*
X193044890Y-49354786D01*
X193195213Y-49505109D01*
X193367179Y-49630048D01*
X193367181Y-49630049D01*
X193367184Y-49630051D01*
X193556588Y-49726557D01*
X193758757Y-49792246D01*
X193968713Y-49825500D01*
X193968714Y-49825500D01*
X194181286Y-49825500D01*
X194181287Y-49825500D01*
X194391243Y-49792246D01*
X194593412Y-49726557D01*
X194782816Y-49630051D01*
X194898257Y-49546179D01*
X194954786Y-49505109D01*
X194954788Y-49505106D01*
X194954792Y-49505104D01*
X195105104Y-49354792D01*
X195105106Y-49354788D01*
X195105109Y-49354786D01*
X195230048Y-49182820D01*
X195230047Y-49182820D01*
X195230051Y-49182816D01*
X195326557Y-48993412D01*
X195392246Y-48791243D01*
X195425500Y-48581287D01*
X195425500Y-48368713D01*
X195392246Y-48158757D01*
X195326557Y-47956588D01*
X195230051Y-47767184D01*
X195230049Y-47767181D01*
X195230048Y-47767179D01*
X195105109Y-47595213D01*
X194954786Y-47444890D01*
X194782820Y-47319951D01*
X194593414Y-47223444D01*
X194593413Y-47223443D01*
X194593412Y-47223443D01*
X194391243Y-47157754D01*
X194391241Y-47157753D01*
X194391240Y-47157753D01*
X194229957Y-47132208D01*
X194181287Y-47124500D01*
X193968713Y-47124500D01*
X193920042Y-47132208D01*
X193758760Y-47157753D01*
X193556585Y-47223444D01*
X193367179Y-47319951D01*
X193195213Y-47444890D01*
X193044890Y-47595213D01*
X192919951Y-47767179D01*
X192823444Y-47956585D01*
X192757753Y-48158760D01*
X192724500Y-48368713D01*
X187575500Y-48368713D01*
X187575500Y-47533676D01*
X187595185Y-47466637D01*
X187611819Y-47445995D01*
X187612924Y-47444890D01*
X187675500Y-47382314D01*
X187741392Y-47268186D01*
X187775500Y-47140892D01*
X187775500Y-47009108D01*
X187741392Y-46881814D01*
X187675500Y-46767686D01*
X187582314Y-46674500D01*
X187525250Y-46641554D01*
X187468187Y-46608608D01*
X187404539Y-46591554D01*
X187340892Y-46574500D01*
X187209108Y-46574500D01*
X187081812Y-46608608D01*
X186967686Y-46674500D01*
X186967683Y-46674502D01*
X186874502Y-46767683D01*
X186874500Y-46767686D01*
X186808608Y-46881812D01*
X186774500Y-47009108D01*
X135850500Y-47009108D01*
X135850500Y-46149500D01*
X135870185Y-46082461D01*
X135922989Y-46036706D01*
X135974500Y-46025500D01*
X196900500Y-46025500D01*
X196967539Y-46045185D01*
G37*
%TD.AperFunction*%
%TD*%
M02*
